{
.appVersion = "850";
copyright = "Copyright (c) 2012, Eduardo Tunni (http://www.tipo.net.ar), with Reserved Font Name Changa"";
customParameters = (
{
name = licenseURL;
value = "http://scripts.sil.org/OFL";
},
{
name = trademark;
value = "Changa is a trademark of Eduardo Rodriguez Tunni.";
},
{
name = license;
value = "This Font Software is licensed under the SIL Open Font License, Version 1.1. This license is available with a FAQ at: http://scripts.sil.org/OFL";
},
{
name = openTypeOS2VendorID;
value = TIPO;
}
);
date = "2016-02-27 15:08:35 +0000";
designer = "Eduardo Rodriguez Tunni";
designerURL = "http://www.tipo.net.ar";
familyName = "Changa";
featurePrefixes = (
{
automatic = 1;
code = "languagesystem DFLT dflt;\012languagesystem arab dflt;\012languagesystem latn dflt;\012languagesystem latn CAT;\012languagesystem latn ROM;\012languagesystem latn MOL;\012languagesystem latn KAZ;\012languagesystem latn TAT;\012languagesystem latn TRK;\012languagesystem latn CRT;\012languagesystem latn AZE;\012languagesystem arab URD;\012";
name = Languagesystems;
}
);
features = (
{
automatic = 1;
code = "feature ccmp;\012feature locl;\012feature subs;\012feature sups;\012feature numr;\012feature dnom;\012feature frac;\012feature ordn;\012feature init;\012feature medi;\012feature fina;\012feature rlig;\012";
name = aalt;
},
{
automatic = 1;

glyphs = (
{
color = 10;
glyphname = A;
layers = (
{
anchors = (
{
name = bottom;
position = "{294, 0}";
},
{
name = ogonek;
position = "{572, 0}";
},
{
name = top;
position = "{294, 625}";
}
);
hints = (
{
horizontal = 1;
origin = "{1, 3}";
target = "{1, 2}";
},
{
horizontal = 1;
origin = "{0, 1}";
target = "{0, 6}";
},
{
horizontal = 1;
origin = "{0, 7}";
target = up;
type = BottomGhost;
},
{
horizontal = 1;
origin = "{0, 6}";
target = down;
type = TopGhost;
}
);
layerId = "D5343206-61BD-433B-AB67-A494CBABC038";
paths = (
{
closed = 1;
nodes = (
"151 0 LINE",
"289 493 LINE",
"298 493 LINE",
"436 0 LINE",
"576 0 LINE",
"401 625 LINE",
"186 625 LINE",
"11 0 LINE"
);
},
{
closed = 1;
nodes = (
"475 124 LINE",
"475 229 LINE",
"113 229 LINE",
"113 124 LINE"
);
}
);
width = 587;
}
);
leftKerningGroup = A;
rightKerningGroup = A;
unicode = 0041;
},
{
color = 10;
glyphname = AE;
lastChange = "2016-02-27 16:03:26 +0000";
layers = (
{
anchors = (
{
name = bottom;
position = "{395, 0}";
},
{
name = top;
position = "{395, 625}";
}
);
hints = (
{
horizontal = 1;
origin = "{0, 15}";
target = "{0, 6}";
},
{
horizontal = 1;
origin = "{0, 1}";
target = "{1, 3}";
},
{
horizontal = 1;
origin = "{0, 7}";
target = "{0, 10}";
},
{
horizontal = 1;
origin = "{0, 14}";
target = "{0, 11}";
},
{
horizontal = 1;
origin = "{0, 15}";
target = up;
type = BottomGhost;
},
{
horizontal = 1;
origin = "{0, 14}";
target = down;
type = TopGhost;
}
);
layerId = "D5343206-61BD-433B-AB67-A494CBABC038";
paths = (
{
closed = 1;
nodes = (
"159 0 LINE",
"188 122 LINE",
"394 122 LINE",
"424 0 LINE",
"748 0 LINE",
"748 118 LINE",
"541 118 LINE",
"506 254 LINE",
"656 254 LINE",
"656 363 LINE",
"478 363 LINE",
"440 507 LINE",
"679 507 LINE",
"698 625 LINE",
"173 625 LINE",
"11 0 LINE"
);
},
{
closed = 1;
nodes = (
"277 493 LINE",
"306 493 LINE",
"367 239 LINE",
"216 239 LINE"
);
}
);
width = 792;
}
);
leftKerningGroup = A;
leftMetricsKey = A;
rightKerningGroup = E;
rightMetricsKey = E;
unicode = 00C6;
},
{
color = 10;
glyphname = B;
layers = (
{
hints = (
{
horizontal = 1;
origin = "{0, 0}";
target = "{1, 18}";
},
{
horizontal = 1;
origin = "{1, 10}";
target = "{1, 9}";
},
{
horizontal = 1;
origin = "{0, 15}";
target = "{1, 1}";
},
{
origin = "{0, 0}";
target = "{1, 19}";
},
{
origin = "{1, 14}";
target = "{0, 4}";
},
{
origin = "{1, 5}";
target = "{0, 11}";
},
{
horizontal = 1;
origin = "{0, 0}";
target = up;
type = BottomGhost;
},
{
horizontal = 1;
origin = "{0, 15}";
target = down;
type = TopGhost;
}
);
layerId = "D5343206-61BD-433B-AB67-A494CBABC038";
paths = (
{
closed = 1;
nodes = (
"74 0 LINE",
"365 0 LINE SMOOTH",
"483 0 OFFCURVE",
"548 62 OFFCURVE",
"548 176 CURVE SMOOTH",
"548 243 OFFCURVE",
"511 298 OFFCURVE",
"452 315 CURVE",
"452 321 LINE",
"495 349 OFFCURVE",
"517 398 OFFCURVE",
"517 466 CURVE SMOOTH",
"517 576 OFFCURVE",
"460 625 OFFCURVE",
"332 625 CURVE SMOOTH",
"74 625 LINE"
);
},
{
closed = 1;
nodes = (
"214 583 LINE",
"155 523 LINE",
"313 523 LINE SMOOTH",
"363 523 OFFCURVE",
"377 505 OFFCURVE",
"377 444 CURVE SMOOTH",
"377 384 OFFCURVE",
"362 365 OFFCURVE",
"313 365 CURVE SMOOTH",
"198 365 LINE",
"198 267 LINE",
"339 267 LINE SMOOTH",
"388 267 OFFCURVE",
"406 246 OFFCURVE",
"406 188 CURVE SMOOTH",
"406 126 OFFCURVE",
"387 102 OFFCURVE",
"338 102 CURVE SMOOTH",
"155 102 LINE",
"214 42 LINE"
);
}
);
width = 586;
}
);
leftKerningGroup = H;
leftMetricsKey = H;
rightKerningGroup = B;
unicode = 0042;
},
{
color = 10;
glyphname = C;
layers = (
{
anchors = (
{
name = bottom;
position = "{273, 0}";
},
{
name = top;
position = "{289, 625}";
}
);
hints = (
{
horizontal = 1;
origin = "{0, 23}";
target = "{0, 3}";
},
{
horizontal = 1;
origin = "{0, 17}";
target = "{0, 10}";
},
{
origin = "{0, 20}";
target = "{0, 6}";
}
);
layerId = "D5343206-61BD-433B-AB67-A494CBABC038";
paths = (
{
closed = 1;
nodes = (
"462 127 LINE",
"416 112 OFFCURVE",
"359 103 OFFCURVE",
"304 103 CURVE SMOOTH",
"268 103 OFFCURVE",
"233 107 OFFCURVE",
"201 115 CURVE",
"201 449 LINE SMOOTH",
"201 510 OFFCURVE",
"230 523 OFFCURVE",
"305 523 CURVE SMOOTH",
"338 523 OFFCURVE",
"403 516 OFFCURVE",
"449 505 CURVE",
"467 617 LINE",
"432 630 OFFCURVE",
"360 640 OFFCURVE",
"312 640 CURVE SMOOTH",
"106 640 OFFCURVE",
"51 568 OFFCURVE",
"51 312 CURVE SMOOTH",
"51 59 OFFCURVE",
"103 -15 OFFCURVE",
"298 -15 CURVE SMOOTH",
"373 -15 OFFCURVE",
"425 -8 OFFCURVE",
"474 11 CURVE"
);
}
);
width = 497;
}
);
leftKerningGroup = O;
leftMetricsKey = O;
rightKerningGroup = C;
unicode = 0043;
},
{
color = 10;
glyphname = D;
layers = (
{
anchors = (
{
name = bottom;
position = "{318, 0}";
},
{
name = center;
position = "{164, 313}";
},
{
name = top;
position = "{318, 625}";
}
);
hints = (
{
horizontal = 1;
origin = "{0, 0}";
target = "{1, 8}";
},
{
horizontal = 1;
origin = "{0, 8}";
target = "{1, 9}";
},
{
origin = "{0, 0}";
target = "{1, 8}";
},
{
origin = "{1, 4}";
target = "{0, 4}";
},
{
horizontal = 1;
origin = "{0, 0}";
target = up;
type = BottomGhost;
},
{
horizontal = 1;
origin = "{0, 8}";
target = down;
type = TopGhost;
}
);
layerId = "D5343206-61BD-433B-AB67-A494CBABC038";
paths = (
{
closed = 1;
nodes = (
"74 0 LINE",
"320 0 LINE SMOOTH",
"534 0 OFFCURVE",
"585 59 OFFCURVE",
"585 312 CURVE SMOOTH",
"585 566 OFFCURVE",
"534 625 OFFCURVE",
"320 625 CURVE SMOOTH",
"74 625 LINE"
);
},
{
closed = 1;
nodes = (
"357 513 LINE SMOOTH",
"416 513 OFFCURVE",
"435 496 OFFCURVE",
"435 444 CURVE SMOOTH",
"435 181 LINE SMOOTH",
"435 129 OFFCURVE",
"416 112 OFFCURVE",
"357 112 CURVE SMOOTH",
"214 112 LINE",
"214 513 LINE"
);
}
);
width = 636;
}
);
leftKerningGroup = H;
leftMetricsKey = H;
rightKerningGroup = O;
rightMetricsKey = O;
unicode = 0044;
},
{
color = 10;
glyphname = E;
layers = (
{
anchors = (
{
name = bottom;
position = "{268, 0}";
},
{
name = ogonek;
position = "{473, 0}";
},
{
name = top;
position = "{279, 625}";
},
{
name = topleft;
position = "{12, 625}";
}
);
hints = (
{
horizontal = 1;
origin = "{0, 7}";
target = "{0, 10}";
},
{
horizontal = 1;
origin = "{0, 11}";
target = "{0, 2}";
},
{
horizontal = 1;
origin = "{0, 6}";
target = "{0, 3}";
},
{
origin = "{0, 7}";
target = "{0, 10}";
},
{
horizontal = 1;
origin = "{0, 7}";
target = up;
type = BottomGhost;
},
{
horizontal = 1;
origin = "{0, 6}";
target = down;
type = TopGhost;
}
);
layerId = "D5343206-61BD-433B-AB67-A494CBABC038";
paths = (
{
closed = 1;
nodes = (
"436 260 LINE",
"436 365 LINE",
"214 365 LINE",
"214 509 LINE",
"456 509 LINE",
"473 625 LINE",
"74 625 LINE",
"74 0 LINE",
"473 0 LINE",
"473 116 LINE",
"214 116 LINE",
"214 260 LINE"
);
}
);
width = 517;
}
);
leftKerningGroup = H;
leftMetricsKey = H;
rightKerningGroup = E;
unicode = 0045;
},
{
color = 10;
glyphname = F;
layers = (
{
hints = (
{
horizontal = 1;
origin = "{0, 9}";
target = "{0, 2}";
},
{
horizontal = 1;
origin = "{0, 3}";
target = "{0, 6}";
},
{
origin = "{0, 7}";
target = "{0, 8}";
},
{
horizontal = 1;
origin = "{0, 7}";
target = up;
type = BottomGhost;
},
{
horizontal = 1;
origin = "{0, 6}";
target = down;
type = TopGhost;
}
);
layerId = "D5343206-61BD-433B-AB67-A494CBABC038";
paths = (
{
closed = 1;
nodes = (
"402 244 LINE",
"402 349 LINE",
"214 349 LINE",
"214 509 LINE",
"425 509 LINE",
"442 625 LINE",
"74 625 LINE",
"74 0 LINE",
"214 0 LINE",
"214 244 LINE"
);
}
);
width = 458;
}
);
leftKerningGroup = H;
leftMetricsKey = H;
rightKerningGroup = F;
unicode = 0046;
},
{
color = 10;
glyphname = G;
layers = (
{
anchors = (
{
name = bottom;
position = "{294, 0}";
},
{
name = top;
position = "{314, 625}";
}
);
hints = (
{
horizontal = 1;
origin = "{0, 21}";
target = "{0, 4}";
},
{
horizontal = 1;
origin = "{1, 3}";
target = "{1, 2}";
},
{
horizontal = 1;
origin = "{0, 15}";
target = "{0, 8}";
},
{
origin = "{0, 18}";
target = "{0, 4}";
},
{
origin = "{1, 5}";
target = "{0, 2}";
}
);
layerId = "D5343206-61BD-433B-AB67-A494CBABC038";
paths = (
{
closed = 1;
nodes = (
"386 -15 OFFCURVE",
"456 -4 OFFCURVE",
"523 24 CURVE",
"509 97 LINE",
"201 97 LINE",
"201 449 LINE SMOOTH",
"201 510 OFFCURVE",
"230 523 OFFCURVE",
"307 523 CURVE SMOOTH",
"347 523 OFFCURVE",
"425 516 OFFCURVE",
"479 505 CURVE",
"497 617 LINE",
"457 630 OFFCURVE",
"372 640 OFFCURVE",
"316 640 CURVE SMOOTH",
"105 640 OFFCURVE",
"51 570 OFFCURVE",
"51 312 CURVE SMOOTH",
"51 45 OFFCURVE",
"98 -15 OFFCURVE",
"284 -15 CURVE SMOOTH"
);
},
{
closed = 1;
nodes = (
"523 24 LINE",
"523 356 LINE",
"316 356 LINE",
"316 251 LINE",
"393 251 LINE",
"393 30 LINE"
);
}
);
width = 572;
}
);
leftKerningGroup = O;
leftMetricsKey = O;
rightKerningGroup = G;
rightMetricsKey = "=H-25";
unicode = 0047;
},
{
color = 10;
glyphname = H;
layers = (
{
anchors = (
{
name = bottom;
position = "{322, 0}";
},
{
name = center;
position = "{322, 491}";
},
{
name = top;
position = "{322, 625}";
},
{
name = topleft;
position = "{20, 625}";
}
);
hints = (
{
horizontal = 1;
origin = "{2, 2}";
target = "{2, 1}";
},
{
origin = "{0, 2}";
target = "{0, 3}";
},
{
origin = "{1, 0}";
target = "{1, 1}";
},
{
horizontal = 1;
origin = "{0, 1}";
target = down;
type = TopGhost;
},
{
horizontal = 1;
origin = "{0, 2}";
target = up;
type = BottomGhost;
}
);
layerId = "D5343206-61BD-433B-AB67-A494CBABC038";
paths = (
{
closed = 1;
nodes = (
"214 625 LINE",
"74 625 LINE",
"74 0 LINE",
"214 0 LINE"
);
},
{
closed = 1;
nodes = (
"430 0 LINE",
"570 0 LINE",
"570 625 LINE",
"430 625 LINE"
);
},
{
closed = 1;
nodes = (
"446 363 LINE",
"198 363 LINE",
"198 258 LINE",
"446 258 LINE"
);
}
);
width = 644;
}
);
leftKerningGroup = H;
rightKerningGroup = H;
unicode = 0048;
},
{
color = 10;
glyphname = I;
layers = (
{
anchors = (
{
name = bottom;
position = "{144, 0}";
},
{
name = ogonek;
position = "{214, 0}";
},
{
name = top;
position = "{144, 625}";
},
{
name = topleft;
position = "{20, 625}";
}
);
hints = (
{
origin = "{0, 0}";
target = "{0, 1}";
},
{
horizontal = 1;
origin = "{0, 0}";
target = up;
type = BottomGhost;
},
{
horizontal = 1;
origin = "{0, 3}";
target = down;
type = TopGhost;
}
);
layerId = "D5343206-61BD-433B-AB67-A494CBABC038";
paths = (
{
closed = 1;
nodes = (
"74 0 LINE",
"214 0 LINE",
"214 625 LINE",
"74 625 LINE"
);
}
);
width = 288;
}
);
leftKerningGroup = H;
leftMetricsKey = H;
rightKerningGroup = H;
rightMetricsKey = H;
unicode = 0049;
},
{
color = 10;
glyphname = J;
layers = (
{
anchors = (
{
name = bottom;
position = "{184, 0}";
},
{
name = top;
position = "{184, 625}";
}
);
hints = (
{
horizontal = 1;
origin = "{0, 0}";
target = "{0, 13}";
},
{
horizontal = 1;
origin = "{0, 7}";
target = "{0, 6}";
},
{
origin = "{0, 9}";
target = "{0, 4}";
},
{
horizontal = 1;
origin = "{0, 0}";
target = up;
type = BottomGhost;
},
{
horizontal = 1;
origin = "{0, 6}";
target = down;
type = TopGhost;
}
);
layerId = "D5343206-61BD-433B-AB67-A494CBABC038";
paths = (
{
closed = 1;
nodes = (
"31 0 LINE",
"138 0 LINE SMOOTH",
"238 0 OFFCURVE",
"293 39 OFFCURVE",
"293 147 CURVE SMOOTH",
"293 625 LINE",
"53 625 LINE",
"53 509 LINE",
"153 509 LINE",
"153 144 LINE SMOOTH",
"153 116 OFFCURVE",
"132 114 OFFCURVE",
"105 114 CURVE SMOOTH",
"16 114 LINE"
);
}
);
width = 367;
}
);
leftKerningGroup = J;
rightKerningGroup = J;
rightMetricsKey = H;
unicode = 004A;
},
{
color = 10;
glyphname = K;
layers = (
{
anchors = (
{
name = bottom;
position = "{306, 0}";
},
{
name = top;
position = "{306, 625}";
}
);
hints = (
{
horizontal = 1;
origin = "{0, 9}";
target = "{0, 8}";
},
{
origin = "{1, 3}";
target = "{1, 0}";
},
{
horizontal = 1;
origin = "{1, 3}";
target = up;
type = BottomGhost;
},
{
horizontal = 1;
origin = "{1, 2}";
target = down;
type = TopGhost;
}
);
layerId = "D5343206-61BD-433B-AB67-A494CBABC038";
paths = (
{
closed = 1;
nodes = (
"571 0 LINE",
"417 321 LINE",
"566 625 LINE",
"415 625 LINE",
"344 482 LINE SMOOTH",
"325 444 OFFCURVE",
"310 408 OFFCURVE",
"310 374 CURVE",
"198 374 LINE",
"198 268 LINE",
"310 268 LINE",
"310 234 OFFCURVE",
"326 198 OFFCURVE",
"344 160 CURVE SMOOTH",
"420 0 LINE"
);
},
{
closed = 1;
nodes = (
"214 0 LINE",
"214 625 LINE",
"74 625 LINE",
"74 0 LINE"
);
}
);
width = 579;
}
);
leftKerningGroup = H;
leftMetricsKey = H;
rightKerningGroup = K;
unicode = 004B;
},
{
color = 10;
glyphname = L;
layers = (
{
anchors = (
{
name = bottom;
position = "{253, 0}";
},
{
name = center;
position = "{144, 343}";
},
{
name = top;
position = "{144, 625}";
},
{
name = topright;
position = "{352, 625}";
}
);
hints = (
{
horizontal = 1;
origin = "{0, 5}";
target = "{0, 2}";
},
{
horizontal = 1;
origin = "{0, 4}";
target = down;
type = TopGhost;
},
{
origin = "{0, 5}";
target = "{0, 2}";
},
{
horizontal = 1;
origin = "{0, 5}";
target = up;
type = BottomGhost;
}
);
layerId = "D5343206-61BD-433B-AB67-A494CBABC038";
paths = (
{
closed = 1;
nodes = (
"428 0 LINE",
"428 116 LINE",
"214 116 LINE",
"214 625 LINE",
"74 625 LINE",
"74 0 LINE"
);
}
);
width = 436;
}
);
leftKerningGroup = H;
leftMetricsKey = H;
rightKerningGroup = L;
unicode = 004C;
},
{
color = 10;
glyphname = M;
layers = (
{
hints = (
{
horizontal = 1;
origin = "{0, 15}";
target = up;
type = BottomGhost;
},
{
horizontal = 1;
origin = "{0, 14}";
target = down;
type = TopGhost;
}
);
layerId = "D5343206-61BD-433B-AB67-A494CBABC038";
paths = (
{
closed = 1;
nodes = (
"198 0 LINE",
"224 417 LINE",
"230 417 LINE",
"346 0 LINE",
"456 0 LINE",
"571 417 LINE",
"578 417 LINE",
"603 0 LINE",
"742 0 LINE",
"702 625 LINE",
"519 625 LINE",
"404 217 LINE",
"397 217 LINE",
"283 625 LINE",
"99 625 LINE",
"59 0 LINE"
);
}
);
width = 801;
}
);
leftKerningGroup = M;
leftMetricsKey = "=H-15";
rightKerningGroup = M;
rightMetricsKey = "=H-15";
unicode = 004D;
},
{
color = 10;
glyphname = N;
layers = (
{
anchors = (
{
name = bottom;
position = "{334, 0}";
},
{
name = top;
position = "{340, 625}";
}
);
hints = (
{
origin = "{0, 17}";
target = "{0, 0}";
},
{
origin = "{0, 10}";
target = "{0, 7}";
},
{
horizontal = 1;
origin = "{0, 17}";
target = up;
type = BottomGhost;
},
{
horizontal = 1;
origin = "{0, 16}";
target = down;
type = TopGhost;
}
);
layerId = "D5343206-61BD-433B-AB67-A494CBABC038";
paths = (
{
closed = 1;
nodes = (
"219 0 LINE",
"219 387 LINE",
"225 387 LINE",
"226 367 OFFCURVE",
"231 353 OFFCURVE",
"251 322 CURVE SMOOTH",
"450 0 LINE",
"588 0 LINE",
"588 625 LINE",
"448 625 LINE",
"448 238 LINE",
"442 238 LINE",
"440 258 OFFCURVE",
"435 272 OFFCURVE",
"416 303 CURVE SMOOTH",
"216 625 LINE",
"79 625 LINE",
"79 0 LINE"
);
}
);
width = 667;
}
);
leftKerningGroup = H;
leftMetricsKey = "=H+5";
rightKerningGroup = H;
rightMetricsKey = "=H+5";
unicode = 004E;
},
{
color = 10;
glyphname = O;
layers = (
{
anchors = (
{
name = bottom;
position = "{323, 0}";
},
{
name = center;
position = "{323, 313}";
},
{
name = ogonek;
position = "{387, -11}";
},
{
name = top;
position = "{323, 625}";
},
{
name = topleft;
position = "{29, 625}";
},
{
name = topright;
position = "{616, 625}";
}
);
hints = (
{
horizontal = 1;
origin = "{0, 2}";
target = "{1, 9}";
},
{
horizontal = 1;
origin = "{0, 8}";
target = "{1, 3}";
},
{
origin = "{0, 11}";
target = "{1, 9}";
},
{
origin = "{1, 5}";
target = "{0, 5}";
}
);
layerId = "D5343206-61BD-433B-AB67-A494CBABC038";
paths = (
{
closed = 1;
nodes = (
"51 51 OFFCURVE",
"106 -15 OFFCURVE",
"323 -15 CURVE SMOOTH",
"539 -15 OFFCURVE",
"595 51 OFFCURVE",
"595 312 CURVE SMOOTH",
"595 574 OFFCURVE",
"539 640 OFFCURVE",
"323 640 CURVE SMOOTH",
"106 640 OFFCURVE",
"51 574 OFFCURVE",
"51 312 CURVE SMOOTH"
);
},
{
closed = 1;
nodes = (
"201 456 LINE SMOOTH",
"201 505 OFFCURVE",
"221 521 OFFCURVE",
"283 521 CURVE SMOOTH",
"444 521 LINE",
"444 169 LINE SMOOTH",
"444 120 OFFCURVE",
"423 104 OFFCURVE",
"361 104 CURVE SMOOTH",
"201 104 LINE"
);
}
);
width = 646;
}
);
leftKerningGroup = O;
rightKerningGroup = O;
unicode = 004F;
},
{
color = 10;
glyphname = OE;
layers = (
{
anchors = (
{
name = bottom;
position = "{444, 0}";
},
{
name = top;
position = "{444, 625}";
}
);
hints = (
{
horizontal = 1;
origin = "{0, 7}";
target = "{0, 10}";
},
{
horizontal = 1;
origin = "{0, 11}";
target = "{0, 2}";
},
{
horizontal = 1;
origin = "{0, 6}";
target = "{0, 3}";
},
{
origin = "{0, 7}";
target = "{0, 10}";
},
{
horizontal = 1;
origin = "{0, 8}";
target = up;
type = BottomGhost;
},
{
horizontal = 1;
origin = "{0, 5}";
target = down;
type = TopGhost;
}
);
layerId = "D5343206-61BD-433B-AB67-A494CBABC038";
paths = (
{
closed = 1;
nodes = (
"806 260 LINE",
"806 365 LINE",
"584 365 LINE",
"584 509 LINE",
"826 509 LINE",
"843 625 LINE",
"444 625 LINE",
"444 0 LINE",
"843 0 LINE",
"843 116 LINE",
"584 116 LINE",
"584 260 LINE"
);
},
{
closed = 1;
nodes = (
"51 62 OFFCURVE",
"106 0 OFFCURVE",
"323 0 CURVE SMOOTH",
"458 0 LINE",
"458 625 LINE",
"323 625 LINE",
"106 625 OFFCURVE",
"51 563 OFFCURVE",
"51 312 CURVE SMOOTH"
);
},
{
closed = 1;
nodes = (
"201 444 LINE SMOOTH",
"201 493 OFFCURVE",
"221 509 OFFCURVE",
"283 509 CURVE SMOOTH",
"444 509 LINE",
"444 181 LINE SMOOTH",
"444 132 OFFCURVE",
"423 116 OFFCURVE",
"361 116 CURVE SMOOTH",
"201 116 LINE"
);
}
);
width = 887;
}
);
leftKerningGroup = O;
leftMetricsKey = O;
rightKerningGroup = E;
rightMetricsKey = E;
unicode = 0152;
},
{
color = 10;
glyphname = P;
layers = (
{
hints = (
{
horizontal = 1;
origin = "{0, 10}";
target = "{1, 9}";
},
{
horizontal = 1;
origin = "{0, 7}";
target = "{1, 0}";
},
{
origin = "{0, 8}";
target = "{0, 9}";
},
{
origin = "{1, 5}";
target = "{0, 3}";
},
{
horizontal = 1;
origin = "{0, 8}";
target = up;
type = BottomGhost;
},
{
horizontal = 1;
origin = "{0, 7}";
target = down;
type = TopGhost;
}
);
layerId = "D5343206-61BD-433B-AB67-A494CBABC038";
paths = (
{
closed = 1;
nodes = (
"350 184 LINE SMOOTH",
"480 184 OFFCURVE",
"536 250 OFFCURVE",
"536 406 CURVE SMOOTH",
"536 566 OFFCURVE",
"482 625 OFFCURVE",
"335 625 CURVE SMOOTH",
"74 625 LINE",
"74 0 LINE",
"214 0 LINE",
"214 184 LINE"
);
},
{
closed = 1;
nodes = (
"214 509 LINE",
"332 509 LINE SMOOTH",
"375 509 OFFCURVE",
"389 499 OFFCURVE",
"389 467 CURVE SMOOTH",
"389 331 LINE SMOOTH",
"389 299 OFFCURVE",
"375 289 OFFCURVE",
"332 289 CURVE SMOOTH",
"214 289 LINE"
);
}
);
width = 554;
}
);
leftKerningGroup = H;
leftMetricsKey = H;
rightKerningGroup = P;
unicode = 0050;
},
{
color = 10;
glyphname = Thorn;
layers = (
{
hints = (
{
horizontal = 1;
origin = "{0, 5}";
target = "{1, 3}";
},
{
horizontal = 1;
origin = "{0, 0}";
target = "{1, 4}";
},
{
origin = "{0, 3}";
target = "{0, 4}";
},
{
origin = "{1, 9}";
target = "{0, 9}";
},
{
horizontal = 1;
origin = "{0, 3}";
target = up;
type = BottomGhost;
},
{
horizontal = 1;
origin = "{0, 2}";
target = down;
type = TopGhost;
}
);
layerId = "D5343206-61BD-433B-AB67-A494CBABC038";
paths = (
{
closed = 1;
nodes = (
"214 533 LINE",
"214 625 LINE",
"74 625 LINE",
"74 0 LINE",
"214 0 LINE",
"214 92 LINE",
"350 92 LINE SMOOTH",
"480 92 OFFCURVE",
"536 158 OFFCURVE",
"536 314 CURVE SMOOTH",
"536 475 OFFCURVE",
"482 533 OFFCURVE",
"335 533 CURVE SMOOTH"
);
},
{
closed = 1;
nodes = (
"389 208 OFFCURVE",
"375 198 OFFCURVE",
"332 198 CURVE SMOOTH",
"214 198 LINE",
"214 428 LINE",
"332 428 LINE SMOOTH",
"375 428 OFFCURVE",
"389 418 OFFCURVE",
"389 386 CURVE SMOOTH",
"389 240 LINE SMOOTH"
);
}
);
width = 554;
}
);
leftKerningGroup = H;
leftMetricsKey = H;
rightKerningGroup = Thorn;
rightMetricsKey = P;
unicode = 00DE;
},
{
color = 10;
glyphname = Q;
layers = (
{
hints = (
{
horizontal = 1;
origin = "{0, 13}";
target = "{1, 9}";
},
{
horizontal = 1;
origin = "{0, 7}";
target = "{1, 3}";
},
{
origin = "{0, 10}";
target = "{1, 9}";
},
{
origin = "{1, 5}";
target = "{0, 4}";
}
);
layerId = "D5343206-61BD-433B-AB67-A494CBABC038";
paths = (
{
closed = 1;
nodes = (
"376 25 LINE",
"473 23 LINE",
"555 58 OFFCURVE",
"585 133 OFFCURVE",
"585 312 CURVE SMOOTH",
"585 571 OFFCURVE",
"528 640 OFFCURVE",
"318 640 CURVE SMOOTH",
"107 640 OFFCURVE",
"51 572 OFFCURVE",
"51 312 CURVE SMOOTH",
"51 53 OFFCURVE",
"108 -15 OFFCURVE",
"318 -15 CURVE"
);
},
{
closed = 1;
nodes = (
"202 456 LINE SMOOTH",
"202 505 OFFCURVE",
"221 521 OFFCURVE",
"282 521 CURVE SMOOTH",
"434 521 LINE",
"434 169 LINE SMOOTH",
"434 120 OFFCURVE",
"414 104 OFFCURVE",
"353 104 CURVE SMOOTH",
"202 104 LINE"
);
},
{
closed = 1;
nodes = (
"592 5 LINE",
"481 75 LINE",
"376 25 LINE",
"376 -15 LINE",
"557 -74 LINE"
);
}
);
width = 636;
}
);
leftKerningGroup = O;
rightKerningGroup = O;
unicode = 0051;
},
{
color = 10;
glyphname = R;
layers = (
{
anchors = (
{
name = bottom;
position = "{299, 0}";
},
{
name = top;
position = "{305, 625}";
}
);
hints = (
{
horizontal = 1;
origin = "{0, 10}";
target = "{1, 9}";
},
{
horizontal = 1;
origin = "{1, 0}";
target = "{0, 7}";
},
{
origin = "{0, 8}";
target = "{0, 9}";
},
{
origin = "{1, 5}";
target = "{0, 3}";
},
{
horizontal = 1;
origin = "{0, 8}";
target = up;
type = BottomGhost;
},
{
horizontal = 1;
origin = "{0, 7}";
target = down;
type = TopGhost;
}
);
layerId = "D5343206-61BD-433B-AB67-A494CBABC038";
paths = (
{
closed = 1;
nodes = (
"355 205 LINE SMOOTH",
"486 205 OFFCURVE",
"541 265 OFFCURVE",
"541 406 CURVE SMOOTH",
"541 566 OFFCURVE",
"487 625 OFFCURVE",
"340 625 CURVE SMOOTH",
"74 625 LINE",
"74 0 LINE",
"214 0 LINE",
"214 205 LINE"
);
},
{
closed = 1;
nodes = (
"214 509 LINE",
"337 509 LINE SMOOTH",
"380 509 OFFCURVE",
"394 499 OFFCURVE",
"394 467 CURVE SMOOTH",
"394 352 LINE SMOOTH",
"394 320 OFFCURVE",
"380 310 OFFCURVE",
"337 310 CURVE SMOOTH",
"214 310 LINE"
);
},
{
closed = 1;
nodes = (
"305 238 LINE",
"417 0 LINE",
"569 0 LINE",
"430 289 LINE"
);
}
);
width = 598;
}
);
leftKerningGroup = H;
leftMetricsKey = H;
rightKerningGroup = R;
unicode = 0052;
},
{
color = 10;
glyphname = S;
layers = (
{
anchors = (
{
name = bottom;
position = "{271, 0}";
},
{
name = top;
position = "{271, 625}";
}
);
hints = (
{
horizontal = 1;
origin = "{0, 3}";
target = "{0, 32}";
},
{
horizontal = 1;
place = "{158.1, 58.2}";
},
{
horizontal = 1;
origin = "{0, 21}";
target = "{0, 14}";
},
{
origin = "{0, 24}";
target = "{0, 10}";
},
{
origin = "{0, 29}";
target = "{0, 6}";
}
);
layerId = "D5343206-61BD-433B-AB67-A494CBABC038";
paths = (
{
closed = 1;
nodes = (
"38 14 LINE",
"110 -6 OFFCURVE",
"183 -15 OFFCURVE",
"264 -15 CURVE SMOOTH",
"440 -15 OFFCURVE",
"509 40 OFFCURVE",
"509 182 CURVE SMOOTH",
"509 313 OFFCURVE",
"452 363 OFFCURVE",
"293 376 CURVE SMOOTH",
"198 383 LINE",
"198 517 LINE",
"225 521 OFFCURVE",
"244 522 OFFCURVE",
"283 522 CURVE SMOOTH",
"345 522 OFFCURVE",
"394 518 OFFCURVE",
"457 505 CURVE",
"475 617 LINE",
"404 632 OFFCURVE",
"334 640 OFFCURVE",
"260 640 CURVE SMOOTH",
"103 640 OFFCURVE",
"46 586 OFFCURVE",
"46 433 CURVE SMOOTH",
"46 305 OFFCURVE",
"96 262 OFFCURVE",
"264 249 CURVE SMOOTH",
"357 242 LINE",
"357 108 LINE",
"316 103 OFFCURVE",
"291 102 OFFCURVE",
"257 102 CURVE SMOOTH",
"191 102 OFFCURVE",
"118 112 OFFCURVE",
"58 129 CURVE"
);
}
);
width = 542;
}
);
leftKerningGroup = S;
rightKerningGroup = S;
unicode = 0053;
},
{
color = 10;
glyphname = T;
layers = (
{
anchors = (
{
name = bottom;
position = "{236, 0}";
},
{
name = center;
position = "{236, 291}";
},
{
name = top;
position = "{236, 625}";
}
);
hints = (
{
horizontal = 1;
origin = "{0, 3}";
target = "{0, 2}";
},
{
origin = "{0, 5}";
target = "{0, 6}";
},
{
horizontal = 1;
origin = "{0, 5}";
target = up;
type = BottomGhost;
},
{
horizontal = 1;
origin = "{0, 2}";
target = down;
type = TopGhost;
}
);
layerId = "D5343206-61BD-433B-AB67-A494CBABC038";
paths = (
{
closed = 1;
nodes = (
"461 509 LINE",
"461 625 LINE",
"11 625 LINE",
"11 509 LINE",
"166 509 LINE",
"166 0 LINE",
"306 0 LINE",
"306 509 LINE"
);
}
);
width = 472;
}
);
leftKerningGroup = T;
rightKerningGroup = T;
unicode = 0054;
},
{
color = 10;
glyphname = U;
layers = (
{
anchors = (
{
name = bottom;
position = "{319, 0}";
},
{
name = ogonek;
position = "{368, -12}";
},
{
name = top;
position = "{319, 625}";
},
{
name = topright;
position = "{572, 625}";
}
);
hints = (
{
horizontal = 1;
origin = "{0, 15}";
target = "{0, 9}";
},
{
origin = "{0, 12}";
target = "{0, 9}";
},
{
origin = "{0, 5}";
target = "{0, 2}";
},
{
horizontal = 1;
origin = "{0, 11}";
target = down;
type = TopGhost;
}
);
layerId = "D5343206-61BD-433B-AB67-A494CBABC038";
paths = (
{
closed = 1;
nodes = (
"522 -15 OFFCURVE",
"572 30 OFFCURVE",
"572 207 CURVE SMOOTH",
"572 625 LINE",
"432 625 LINE",
"432 157 LINE SMOOTH",
"432 114 OFFCURVE",
"412 104 OFFCURVE",
"322 104 CURVE SMOOTH",
"204 104 LINE",
"204 625 LINE",
"64 625 LINE",
"64 207 LINE SMOOTH",
"64 29 OFFCURVE",
"114 -15 OFFCURVE",
"318 -15 CURVE SMOOTH"
);
}
);
width = 636;
}
);
leftKerningGroup = U;
leftMetricsKey = "=H-10";
rightKerningGroup = U;
rightMetricsKey = "=H-10";
unicode = 0055;
},
{
color = 10;
glyphname = V;
layers = (
{
hints = (
{
horizontal = 1;
origin = "{0, 7}";
target = down;
type = TopGhost;
},
{
horizontal = 1;
origin = "{0, 0}";
target = up;
type = BottomGhost;
}
);
layerId = "D5343206-61BD-433B-AB67-A494CBABC038";
paths = (
{
closed = 1;
nodes = (
"173 0 LINE",
"388 0 LINE",
"553 625 LINE",
"413 625 LINE",
"285 132 LINE",
"276 132 LINE",
"148 625 LINE",
"8 625 LINE"
);
}
);
width = 561;
}
);
leftKerningGroup = V;
rightKerningGroup = V;
unicode = 0056;
},
{
color = 10;
glyphname = W;
layers = (
{
anchors = (
{
name = bottom;
position = "{427, 0}";
},
{
name = top;
position = "{427, 625}";
}
);
hints = (
{
horizontal = 1;
origin = "{0, 7}";
target = down;
type = TopGhost;
},
{
horizontal = 1;
origin = "{0, 0}";
target = up;
type = BottomGhost;
}
);
layerId = "D5343206-61BD-433B-AB67-A494CBABC038";
paths = (
{
closed = 1;
nodes = (
"121 0 LINE",
"334 0 LINE",
"460 625 LINE",
"351 625 LINE",
"247 132 LINE",
"238 132 LINE",
"165 625 LINE",
"25 625 LINE"
);
},
{
closed = 1;
nodes = (
"688 625 LINE",
"615 132 LINE",
"606 132 LINE",
"502 625 LINE",
"393 625 LINE",
"519 0 LINE",
"732 0 LINE",
"828 625 LINE"
);
}
);
width = 853;
}
);
leftKerningGroup = W;
rightKerningGroup = W;
unicode = 0057;
},
{
color = 10;
glyphname = X;
layers = (
{
hints = (
{
horizontal = 1;
origin = "{1, 1}";
target = up;
type = BottomGhost;
},
{
horizontal = 1;
origin = "{0, 1}";
target = down;
type = TopGhost;
}
);
layerId = "D5343206-61BD-433B-AB67-A494CBABC038";
paths = (
{
closed = 1;
nodes = (
"172 625 LINE",
"16 625 LINE",
"406 0 LINE",
"562 0 LINE"
);
},
{
closed = 1;
nodes = (
"226 367 LINE",
"8 0 LINE",
"160 0 LINE",
"323 275 LINE"
);
},
{
closed = 1;
nodes = (
"337 258 LINE",
"555 625 LINE",
"402 625 LINE",
"240 350 LINE"
);
}
);
width = 570;
}
);
leftKerningGroup = X;
rightKerningGroup = X;
unicode = 0058;
},
{
color = 10;
glyphname = Y;
layers = (
{
anchors = (
{
name = bottom;
position = "{263, 0}";
},
{
name = top;
position = "{263, 625}";
},
{
name = topleft;
position = "{14, 625}";
}
);
hints = (
{
horizontal = 1;
origin = "{0, 2}";
target = down;
type = TopGhost;
},
{
origin = "{0, 4}";
target = "{0, 5}";
},
{
horizontal = 1;
origin = "{0, 4}";
target = up;
type = BottomGhost;
}
);
layerId = "D5343206-61BD-433B-AB67-A494CBABC038";
paths = (
{
closed = 1;
nodes = (
"289 292 LINE",
"154 625 LINE",
"8 625 LINE",
"193 209 LINE",
"193 0 LINE",
"333 0 LINE",
"333 209 LINE",
"518 625 LINE",
"372 625 LINE",
"237 292 LINE"
);
}
);
width = 526;
}
);
leftKerningGroup = Y;
rightKerningGroup = Y;
unicode = 0059;
},
{
color = 10;
glyphname = Z;
layers = (
{
anchors = (
{
name = bottom;
position = "{282, 0}";
},
{
name = top;
position = "{312, 625}";
}
);
hints = (
{
horizontal = 1;
origin = "{0, 11}";
target = "{0, 2}";
},
{
horizontal = 1;
origin = "{0, 7}";
target = "{0, 6}";
},
{
horizontal = 1;
origin = "{0, 11}";
target = up;
type = BottomGhost;
},
{
horizontal = 1;
origin = "{0, 6}";
target = down;
type = TopGhost;
}
);
layerId = "D5343206-61BD-433B-AB67-A494CBABC038";
paths = (
{
closed = 1;
nodes = (
"522 0 LINE",
"522 116 LINE",
"227 116 LINE",
"224 122 LINE",
"530 533 LINE",
"530 625 LINE",
"64 625 LINE",
"78 509 LINE",
"336 509 LINE",
"339 503 LINE",
"31 92 LINE",
"31 0 LINE"
);
}
);
width = 563;
}
);
leftKerningGroup = Z;
rightKerningGroup = Z;
unicode = 005A;
},
{
color = 10;
glyphname = a;
layers = (
{
anchors = (
{
name = bottom;
position = "{276, 0}";
},
{
name = ogonek;
position = "{484, 0}";
},
{
name = top;
position = "{282, 500}";
}
);
hints = (
{
horizontal = 1;
origin = "{0, 36}";
target = "{0, 23}";
},
{
horizontal = 1;
origin = "{0, 28}";
target = "{0, 29}";
},
{
horizontal = 1;
origin = "{0, 8}";
target = "{0, 15}";
},
{
origin = "{0, 33}";
target = "{0, 23}";
},
{
origin = "{0, 19}";
target = "{0, 4}";
},
{
horizontal = 1;
origin = "{0, 36}";
target = up;
type = BottomGhost;
},
{
horizontal = 1;
origin = "{0, 8}";
target = down;
type = TopGhost;
}
);
layerId = "D5343206-61BD-433B-AB67-A494CBABC038";
paths = (
{
closed = 1;
nodes = (
"273 -12 OFFCURVE",
"331 9 OFFCURVE",
"380 50 CURVE",
"416 0 LINE",
"484 0 LINE",
"484 358 LINE SMOOTH",
"484 468 OFFCURVE",
"427 512 OFFCURVE",
"282 512 CURVE SMOOTH",
"206 512 OFFCURVE",
"125 500 OFFCURVE",
"65 480 CURVE",
"83 381 LINE",
"147 398 OFFCURVE",
"208 406 OFFCURVE",
"263 406 CURVE SMOOTH",
"299 406 OFFCURVE",
"323 404 OFFCURVE",
"344 398 CURVE",
"344 138 LINE SMOOTH",
"344 100 OFFCURVE",
"326 88 OFFCURVE",
"268 88 CURVE SMOOTH",
"171 88 LINE",
"171 177 LINE SMOOTH",
"171 217 OFFCURVE",
"189 228 OFFCURVE",
"247 228 CURVE SMOOTH",
"374 228 LINE",
"374 307 LINE",
"323 307 LINE SMOOTH",
"93 307 OFFCURVE",
"43 278 OFFCURVE",
"43 146 CURVE SMOOTH",
"43 34 OFFCURVE",
"90 -12 OFFCURVE",
"205 -12 CURVE SMOOTH"
);
}
);
width = 553;
}
);
leftKerningGroup = a;
leftMetricsKey = "=o-5";
rightKerningGroup = n;
rightMetricsKey = n;
unicode = 0061;
},
{
color = 10;
glyphname = ae;
layers = (
{
anchors = (
{
name = bottom;
position = "{421, 0}";
},
{
name = top;
position = "{421, 500}";
}
);
hints = (
{
horizontal = 1;
origin = "{0, 35}";
target = "{0, 22}";
},
{
horizontal = 1;
origin = "{0, 27}";
target = "{0, 28}";
},
{
horizontal = 1;
origin = "{0, 7}";
target = "{0, 14}";
},
{
origin = "{0, 32}";
target = "{0, 22}";
},
{
origin = "{0, 18}";
target = "{0, 3}";
},
{
horizontal = 1;
origin = "{1, 34}";
target = "{1, 6}";
},
{
horizontal = 1;
origin = "{1, 20}";
target = "{1, 19}";
},
{
horizontal = 1;
origin = "{1, 27}";
target = "{1, 13}";
},
{
origin = "{0, 18}";
target = "{1, 9}";
},
{
origin = "{1, 15}";
target = "{1, 24}";
},
{
horizontal = 1;
origin = "{0, 35}";
target = up;
type = BottomGhost;
},
{
horizontal = 1;
origin = "{0, 7}";
target = down;
type = TopGhost;
}
);
layerId = "D5343206-61BD-433B-AB67-A494CBABC038";
paths = (
{
closed = 1;
nodes = (
"276 -12 OFFCURVE",
"335 10 OFFCURVE",
"385 54 CURVE",
"485 50 LINE",
"485 358 LINE SMOOTH",
"485 468 OFFCURVE",
"427 512 OFFCURVE",
"282 512 CURVE SMOOTH",
"206 512 OFFCURVE",
"125 500 OFFCURVE",
"65 480 CURVE",
"83 381 LINE",
"147 398 OFFCURVE",
"208 406 OFFCURVE",
"263 406 CURVE SMOOTH",
"299 406 OFFCURVE",
"323 404 OFFCURVE",
"344 398 CURVE",
"344 138 LINE SMOOTH",
"344 100 OFFCURVE",
"326 88 OFFCURVE",
"268 88 CURVE SMOOTH",
"171 88 LINE",
"171 177 LINE SMOOTH",
"171 217 OFFCURVE",
"189 228 OFFCURVE",
"247 228 CURVE SMOOTH",
"374 228 LINE",
"374 307 LINE",
"323 307 LINE SMOOTH",
"93 307 OFFCURVE",
"43 278 OFFCURVE",
"43 146 CURVE SMOOTH",
"43 34 OFFCURVE",
"90 -12 OFFCURVE",
"205 -12 CURVE SMOOTH"
);
},
{
closed = 1;
nodes = (
"633 -12 OFFCURVE",
"709 -1 OFFCURVE",
"769 20 CURVE",
"751 119 LINE",
"684 101 OFFCURVE",
"632 94 OFFCURVE",
"576 94 CURVE SMOOTH",
"538 94 OFFCURVE",
"510 96 OFFCURVE",
"484 102 CURVE",
"484 355 LINE SMOOTH",
"484 393 OFFCURVE",
"502 405 OFFCURVE",
"562 405 CURVE SMOOTH",
"656 405 LINE",
"656 323 LINE SMOOTH",
"656 283 OFFCURVE",
"638 272 OFFCURVE",
"578 272 CURVE SMOOTH",
"454 272 LINE",
"454 193 LINE",
"484 193 LINE SMOOTH",
"729 193 OFFCURVE",
"782 222 OFFCURVE",
"782 354 CURVE SMOOTH",
"782 477 OFFCURVE",
"735 512 OFFCURVE",
"568 512 CURVE SMOOTH",
"481 512 OFFCURVE",
"426 494 OFFCURVE",
"391 455 CURVE",
"365 76 LINE",
"397 14 OFFCURVE",
"454 -12 OFFCURVE",
"558 -12 CURVE SMOOTH"
);
}
);
width = 840;
}
);
leftKerningGroup = a;
leftMetricsKey = a;
rightKerningGroup = e;
rightMetricsKey = e;
unicode = 00E6;
},
{
color = 10;
glyphname = b;
layers = (
{
hints = (
{
horizontal = 1;
origin = "{0, 5}";
target = "{1, 4}";
},
{
horizontal = 1;
origin = "{0, 11}";
target = "{1, 8}";
},
{
origin = "{1, 0}";
target = "{0, 8}";
},
{
horizontal = 1;
origin = "{0, 5}";
target = up;
type = BottomGhost;
},
{
origin = "{2, 7}";
target = "{2, 6}";
},
{
horizontal = 1;
origin = "{0, 11}";
target = down;
type = TopGhost;
}
);
layerId = "D5343206-61BD-433B-AB67-A494CBABC038";
paths = (
{
closed = 1;
nodes = (
"175 515 OFFCURVE",
"129 457 OFFCURVE",
"129 250 CURVE SMOOTH",
"129 45 OFFCURVE",
"168 -12 OFFCURVE",
"309 -12 CURVE SMOOTH",
"477 -12 OFFCURVE",
"531 50 OFFCURVE",
"531 250 CURVE SMOOTH",
"531 451 OFFCURVE",
"483 515 OFFCURVE",
"337 515 CURVE SMOOTH"
);
},
{
closed = 1;
nodes = (
"382 120 LINE SMOOTH",
"382 103 OFFCURVE",
"372 97 OFFCURVE",
"339 97 CURVE SMOOTH",
"214 97 LINE",
"214 380 LINE SMOOTH",
"214 400 OFFCURVE",
"224 406 OFFCURVE",
"257 406 CURVE SMOOTH",
"382 406 LINE"
);
},
{
closed = 1;
nodes = (
"74 23 LINE",
"153 -2 OFFCURVE",
"219 -12 OFFCURVE",
"309 -12 CURVE",
"214 69 LINE",
"214 114 LINE",
"214 672 LINE",
"74 659 LINE"
);
}
);
width = 579;
}
);
leftKerningGroup = h;
leftMetricsKey = n;
rightKerningGroup = o;
rightMetricsKey = o;
unicode = 0062;
},
{
color = 10;
glyphname = c;
layers = (
{
anchors = (
{
name = bottom;
position = "{244, 0}";
},
{
name = top;
position = "{246, 500}";
}
);
hints = (
{
horizontal = 1;
origin = "{0, 26}";
target = "{0, 6}";
},
{
horizontal = 1;
origin = "{0, 20}";
target = "{0, 13}";
},
{
horizontal = 1;
origin = "{0, 20}";
target = down;
type = TopGhost;
},
{
origin = "{0, 23}";
target = "{0, 10}";
},
{
horizontal = 1;
origin = "{0, 26}";
target = up;
type = BottomGhost;
},
{
horizontal = 1;
origin = "{0, 20}";
target = down;
type = TopGhost;
}
);
layerId = "D5343206-61BD-433B-AB67-A494CBABC038";
paths = (
{
closed = 1;
nodes = (
"311 -12 OFFCURVE",
"374 -1 OFFCURVE",
"423 20 CURVE",
"410 119 LINE",
"360 101 OFFCURVE",
"322 94 OFFCURVE",
"278 94 CURVE SMOOTH",
"241 94 OFFCURVE",
"217 96 OFFCURVE",
"196 102 CURVE",
"196 327 LINE SMOOTH",
"196 385 OFFCURVE",
"217 406 OFFCURVE",
"276 406 CURVE SMOOTH",
"318 406 OFFCURVE",
"358 402 OFFCURVE",
"399 392 CURVE",
"413 493 LINE",
"375 504 OFFCURVE",
"303 512 OFFCURVE",
"247 512 CURVE SMOOTH",
"98 512 OFFCURVE",
"48 449 OFFCURVE",
"48 250 CURVE SMOOTH",
"48 52 OFFCURVE",
"98 -12 OFFCURVE",
"247 -12 CURVE SMOOTH"
);
}
);
width = 451;
}
);
leftKerningGroup = o;
leftMetricsKey = o;
rightKerningGroup = c;
rightMetricsKey = "=o-20";
unicode = 0063;
},
{
color = 10;
glyphname = d;
layers = (
{
anchors = (
{
name = bottom;
position = "{288, 0}";
},
{
name = center;
position = "{435, 587}";
},
{
name = top;
position = "{288, 500}";
},
{
name = topright;
position = "{505, 500}";
}
);
hints = (
{
horizontal = 1;
origin = "{0, 5}";
target = "{1, 4}";
},
{
horizontal = 1;
origin = "{0, 11}";
target = "{1, 8}";
},
{
origin = "{0, 2}";
target = "{1, 4}";
},
{
origin = "{2, 0}";
target = "{2, 4}";
},
{
horizontal = 1;
origin = "{0, 5}";
target = up;
type = BottomGhost;
},
{
horizontal = 1;
origin = "{0, 11}";
target = down;
type = TopGhost;
}
);
layerId = "D5343206-61BD-433B-AB67-A494CBABC038";
paths = (
{
closed = 1;
nodes = (
"96 513 OFFCURVE",
"48 449 OFFCURVE",
"48 250 CURVE SMOOTH",
"48 48 OFFCURVE",
"95 -14 OFFCURVE",
"242 -15 CURVE SMOOTH",
"404 -16 OFFCURVE",
"450 43 OFFCURVE",
"450 250 CURVE SMOOTH",
"450 454 OFFCURVE",
"404 511 OFFCURVE",
"242 512 CURVE SMOOTH"
);
},
{
closed = 1;
nodes = (
"365 120 LINE SMOOTH",
"365 100 OFFCURVE",
"356 94 OFFCURVE",
"322 94 CURVE SMOOTH",
"197 94 LINE",
"197 377 LINE SMOOTH",
"197 397 OFFCURVE",
"207 403 OFFCURVE",
"240 403 CURVE SMOOTH",
"365 403 LINE"
);
},
{
closed = 1;
nodes = (
"365 659 LINE",
"365 114 LINE",
"437 0 LINE",
"505 0 LINE",
"505 672 LINE"
);
}
);
width = 579;
}
);
leftKerningGroup = o;
leftMetricsKey = o;
rightKerningGroup = l;
rightMetricsKey = "=|h";
unicode = 0064;
},
{
color = 10;
glyphname = eth;
layers = (
{
components = (
{
name = slashshortcomb;
transform = "{1, 0, 0, 1, 249, 232}";
}
);
hints = (
{
horizontal = 1;
origin = "{0, 11}";
target = "{1, 9}";
},
{
horizontal = 1;
origin = "{1, 3}";
target = "{0, 5}";
},
{
origin = "{0, 8}";
target = "{1, 9}";
},
{
origin = "{1, 5}";
target = "{0, 2}";
},
{
horizontal = 1;
origin = "{0, 11}";
target = up;
type = BottomGhost;
}
);
layerId = "D5343206-61BD-433B-AB67-A494CBABC038";
paths = (
{
closed = 1;
nodes = (
"459 -12 OFFCURVE",
"517 49 OFFCURVE",
"517 231 CURVE SMOOTH",
"517 333 LINE",
"426 442 LINE",
"284 442 LINE SMOOTH",
"109 442 OFFCURVE",
"51 386 OFFCURVE",
"51 215 CURVE SMOOTH",
"51 44 OFFCURVE",
"109 -12 OFFCURVE",
"284 -12 CURVE SMOOTH"
);
},
{
closed = 1;
nodes = (
"200 307 LINE SMOOTH",
"200 327 OFFCURVE",
"210 333 OFFCURVE",
"243 333 CURVE SMOOTH",
"368 333 LINE",
"368 123 LINE SMOOTH",
"368 103 OFFCURVE",
"359 97 OFFCURVE",
"325 97 CURVE SMOOTH",
"200 97 LINE"
);
},
{
closed = 1;
nodes = (
"518 333 LINE",
"518 447 OFFCURVE",
"467 594 OFFCURVE",
"395 691 CURVE",
"270 655 LINE",
"343 554 OFFCURVE",
"383 439 OFFCURVE",
"383 333 CURVE"
);
}
);
width = 571;
}
);
leftKerningGroup = eth;
rightKerningGroup = eth;
unicode = 00F0;
},
{
color = 10;
glyphname = e;
layers = (
{
anchors = (
{
name = bottom;
position = "{267, 0}";
},
{
name = ogonek;
position = "{482, 20}";
},
{
name = top;
position = "{281, 500}";
}
);
hints = (
{
horizontal = 1;
origin = "{0, 33}";
target = "{0, 6}";
},
{
horizontal = 1;
origin = "{0, 20}";
target = "{0, 19}";
},
{
horizontal = 1;
origin = "{0, 27}";
target = "{0, 13}";
},
{
origin = "{0, 30}";
target = "{0, 9}";
},
{
origin = "{0, 15}";
target = "{0, 24}";
},
{
horizontal = 1;
origin = "{0, 33}";
target = up;
type = BottomGhost;
},
{
horizontal = 1;
origin = "{0, 27}";
target = down;
type = TopGhost;
}
);
layerId = "D5343206-61BD-433B-AB67-A494CBABC038";
paths = (
{
closed = 1;
nodes = (
"348 -12 OFFCURVE",
"424 -1 OFFCURVE",
"482 20 CURVE",
"464 119 LINE",
"396 101 OFFCURVE",
"344 94 OFFCURVE",
"289 94 CURVE SMOOTH",
"247 94 OFFCURVE",
"221 96 OFFCURVE",
"197 102 CURVE",
"197 355 LINE SMOOTH",
"197 393 OFFCURVE",
"215 405 OFFCURVE",
"274 405 CURVE SMOOTH",
"369 405 LINE",
"369 323 LINE SMOOTH",
"369 283 OFFCURVE",
"350 272 OFFCURVE",
"291 272 CURVE SMOOTH",
"167 272 LINE",
"167 193 LINE",
"197 193 LINE SMOOTH",
"441 193 OFFCURVE",
"495 222 OFFCURVE",
"495 354 CURVE SMOOTH",
"495 477 OFFCURVE",
"447 512 OFFCURVE",
"281 512 CURVE SMOOTH",
"111 512 OFFCURVE",
"48 442 OFFCURVE",
"48 250 CURVE SMOOTH",
"48 54 OFFCURVE",
"106 -12 OFFCURVE",
"270 -12 CURVE SMOOTH"
);
}
);
width = 553;
}
);
leftKerningGroup = o;
leftMetricsKey = o;
rightKerningGroup = e;
rightMetricsKey = "=o+10";
unicode = 0065;
},
{
color = 10;
glyphname = f;
layers = (
{
hints = (
{
horizontal = 1;
origin = "{1, 0}";
target = "{1, 1}";
},
{
origin = "{0, 9}";
target = "{0, 10}";
},
{
horizontal = 1;
origin = "{0, 0}";
target = "{0, 5}";
},
{
horizontal = 1;
origin = "{0, 9}";
target = up;
type = BottomGhost;
},
{
horizontal = 1;
origin = "{0, 5}";
target = down;
type = TopGhost;
}
);
layerId = "D5343206-61BD-433B-AB67-A494CBABC038";
paths = (
{
closed = 1;
nodes = (
"244 582 LINE",
"341 573 LINE",
"349 665 LINE",
"313 672 OFFCURVE",
"280 675 OFFCURVE",
"250 675 CURVE SMOOTH",
"145 675 OFFCURVE",
"110 633 OFFCURVE",
"104 496 CURVE",
"104 0 LINE",
"244 0 LINE"
);
},
{
closed = 1;
nodes = (
"42 500 LINE",
"42 407 LINE",
"316 407 LINE",
"316 500 LINE"
);
}
);
width = 343;
}
);
leftKerningGroup = f;
rightKerningGroup = f;
unicode = 0066;
},
{
color = 10;
glyphname = g;
layers = (
{
anchors = (
{
name = bottom;
position = "{259, -169}";
},
{
name = top;
position = "{261, 500}";
}
);
hints = (
{
horizontal = 1;
origin = "{2, 19}";
target = "{2, 12}";
},
{
horizontal = 1;
place = "{88.8, 38.4}";
},
{
horizontal = 1;
origin = "{1, 3}";
target = "{0, 5}";
},
{
origin = "{0, 8}";
target = "{1, 9}";
},
{
origin = "{2, 9}";
target = "{2, 22}";
},
{
origin = "{1, 5}";
target = "{0, 2}";
},
{
horizontal = 1;
origin = "{0, 5}";
target = down;
type = TopGhost;
}
);
layerId = "D5343206-61BD-433B-AB67-A494CBABC038";
paths = (
{
closed = 1;
nodes = (
"407 145 OFFCURVE",
"464 194 OFFCURVE",
"464 330 CURVE SMOOTH",
"464 465 OFFCURVE",
"406 515 OFFCURVE",
"250 515 CURVE SMOOTH",
"95 515 OFFCURVE",
"37 464 OFFCURVE",
"37 330 CURVE SMOOTH",
"37 194 OFFCURVE",
"95 145 OFFCURVE",
"250 145 CURVE SMOOTH"
);
},
{
closed = 1;
nodes = (
"172 385 LINE SMOOTH",
"172 423 OFFCURVE",
"186 435 OFFCURVE",
"229 435 CURVE SMOOTH",
"329 435 LINE",
"329 275 LINE SMOOTH",
"329 238 OFFCURVE",
"314 225 OFFCURVE",
"271 225 CURVE SMOOTH",
"172 225 LINE"
);
},
{
closed = 1;
nodes = (
"471 50 OFFCURVE",
"436 73 OFFCURVE",
"280 92 CURVE",
"286 164 LINE",
"195 165 LINE",
"162 51 LINE",
"162 28 OFFCURVE",
"214 15 OFFCURVE",
"345 6 CURVE",
"345 -53 LINE",
"311 -59 OFFCURVE",
"278 -61 OFFCURVE",
"232 -61 CURVE SMOOTH",
"178 -61 OFFCURVE",
"128 -54 OFFCURVE",
"63 -37 CURVE",
"46 -137 LINE",
"107 -158 OFFCURVE",
"183 -169 OFFCURVE",
"259 -169 CURVE SMOOTH",
"411 -169 OFFCURVE",
"471 -130 OFFCURVE",
"471 -31 CURVE SMOOTH"
);
},
{
closed = 1;
nodes = (
"506 496 LINE",
"438 562 LINE",
"347 492 LINE",
"423 394 LINE"
);
}
);
width = 523;
}
);
leftKerningGroup = g;
rightKerningGroup = g;
unicode = 0067;
},
{
color = 10;
glyphname = h;
layers = (
{
anchors = (
{
name = bottom;
position = "{292, 0}";
},
{
name = center;
position = "{144, 572}";
},
{
name = top;
position = "{144, 633}";
}
);
hints = (
{
horizontal = 1;
origin = "{0, 17}";
target = up;
type = BottomGhost;
},
{
horizontal = 1;
origin = "{0, 11}";
target = "{0, 4}";
},
{
origin = "{0, 17}";
target = "{0, 0}";
},
{
origin = "{0, 6}";
target = "{0, 7}";
},
{
horizontal = 1;
origin = "{0, 17}";
target = up;
type = BottomGhost;
},
{
horizontal = 1;
origin = "{0, 11}";
target = down;
type = TopGhost;
}
);
layerId = "D5343206-61BD-433B-AB67-A494CBABC038";
paths = (
{
closed = 1;
nodes = (
"214 0 LINE",
"214 345 LINE SMOOTH",
"214 385 OFFCURVE",
"232 397 OFFCURVE",
"293 397 CURVE SMOOTH",
"375 397 LINE",
"375 0 LINE",
"515 0 LINE",
"515 415 LINE SMOOTH",
"515 477 OFFCURVE",
"463 512 OFFCURVE",
"369 512 CURVE SMOOTH",
"305 512 OFFCURVE",
"254 500 OFFCURVE",
"211 473 CURVE",
"211 665 LINE",
"74 654 LINE",
"74 0 LINE"
);
}
);
width = 584;
}
);
leftKerningGroup = h;
leftMetricsKey = n;
rightKerningGroup = n;
rightMetricsKey = n;
unicode = 0068;
},
{
color = 10;
glyphname = idotless;
layers = (
{
anchors = (
{
name = bottom;
position = "{144, 0}";
},
{
name = ogonek;
position = "{214, 0}";
},
{
name = top;
position = "{144, 500}";
}
);
hints = (
{
horizontal = 1;
origin = "{0, 2}";
target = down;
type = TopGhost;
},
{
origin = "{0, 0}";
target = "{0, 1}";
},
{
horizontal = 1;
origin = "{0, 0}";
target = up;
type = BottomGhost;
},
{
horizontal = 1;
origin = "{0, 0}";
target = up;
type = BottomGhost;
},
{
horizontal = 1;
origin = "{0, 2}";
target = down;
type = TopGhost;
}
);
layerId = "D5343206-61BD-433B-AB67-A494CBABC038";
paths = (
{
closed = 1;
nodes = (
"74 0 LINE",
"214 0 LINE",
"214 505 LINE",
"74 486 LINE"
);
}
);
width = 288;
}
);
leftKerningGroup = idotless;
rightKerningGroup = idotless;
unicode = 0131;
},
{
color = 10;
glyphname = jdotless;
layers = (
{
anchors = (
{
name = bottom;
position = "{144, 0}";
},
{
name = top;
position = "{144, 500}";
}
);
hints = (
{
horizontal = 1;
origin = "{0, 12}";
target = "{0, 8}";
},
{
origin = "{0, 5}";
target = "{0, 2}";
},
{
horizontal = 1;
origin = "{0, 12}";
target = up;
type = BottomGhost;
},
{
horizontal = 1;
origin = "{0, 3}";
target = down;
type = TopGhost;
}
);
layerId = "D5343206-61BD-433B-AB67-A494CBABC038";
paths = (
{
closed = 1;
nodes = (
"169 -177 OFFCURVE",
"214 -134 OFFCURVE",
"214 -40 CURVE SMOOTH",
"214 505 LINE",
"74 486 LINE",
"74 -17 LINE SMOOTH",
"74 -68 OFFCURVE",
"57 -79 OFFCURVE",
"-19 -79 CURVE",
"-26 -164 LINE",
"1 -172 OFFCURVE",
"39 -177 OFFCURVE",
"72 -177 CURVE SMOOTH"
);
}
);
width = 288;
}
);
leftKerningGroup = jdotless;
rightKerningGroup = jdotless;
unicode = 0237;
},
{
color = 10;
glyphname = k;
layers = (
{
anchors = (
{
name = bottom;
position = "{276, 0}";
},
{
name = top;
position = "{276, 500}";
}
);
hints = (
{
horizontal = 1;
origin = "{0, 9}";
target = up;
type = BottomGhost;
},
{
horizontal = 1;
origin = "{0, 11}";
target = "{0, 6}";
},
{
origin = "{0, 9}";
target = "{0, 10}";
},
{
horizontal = 1;
origin = "{0, 7}";
target = down;
type = TopGhost;
},
{
horizontal = 1;
origin = "{0, 4}";
target = down;
type = TopGhost;
}
);
layerId = "D5343206-61BD-433B-AB67-A494CBABC038";
paths = (
{
closed = 1;
nodes = (
"374 0 LINE",
"519 0 LINE",
"391 265 LINE",
"514 500 LINE",
"367 500 LINE",
"274 312 LINE",
"214 312 LINE",
"214 665 LINE",
"74 650 LINE",
"74 0 LINE",
"214 0 LINE",
"214 222 LINE",
"275 222 LINE"
);
}
);
width = 527;
}
);
leftKerningGroup = h;
leftMetricsKey = n;
rightKerningGroup = k;
unicode = 006B;
},
{
color = 10;
glyphname = kgreenlandic;
layers = (
{
anchors = (
{
name = bottom;
position = "{285, 0}";
},
{
name = top;
position = "{285, 500}";
}
);
hints = (
{
horizontal = 1;
origin = "{0, 11}";
target = "{0, 6}";
},
{
origin = "{0, 9}";
target = "{0, 10}";
},
{
horizontal = 1;
origin = "{0, 9}";
target = up;
type = BottomGhost;
},
{
horizontal = 1;
origin = "{0, 8}";
target = down;
type = TopGhost;
}
);
layerId = "D5343206-61BD-433B-AB67-A494CBABC038";
paths = (
{
closed = 1;
nodes = (
"385 0 LINE",
"530 0 LINE",
"402 250 LINE",
"525 500 LINE",
"378 500 LINE",
"285 297 LINE",
"214 297 LINE",
"214 500 LINE",
"74 500 LINE",
"74 0 LINE",
"214 0 LINE",
"214 207 LINE",
"286 207 LINE"
);
}
);
width = 538;
}
);
leftKerningGroup = h;
leftMetricsKey = n;
rightKerningGroup = k;
unicode = 0138;
},
{
color = 10;
glyphname = l;
layers = (
{
anchors = (
{
name = bottom;
position = "{141, 0}";
},
{
name = center;
position = "{141, 330}";
},
{
name = top;
position = "{141, 633}";
},
{
name = topright;
position = "{211, 500}";
}
);
hints = (
{
origin = "{0, 2}";
target = "{0, 12}";
},
{
horizontal = 1;
origin = "{0, 5}";
target = "{0, 9}";
},
{
horizontal = 1;
origin = "{0, 5}";
target = up;
type = BottomGhost;
},
{
horizontal = 1;
origin = "{0, 0}";
target = down;
type = TopGhost;
}
);
layerId = "D5343206-61BD-433B-AB67-A494CBABC038";
paths = (
{
closed = 1;
nodes = (
"211 665 LINE",
"71 650 LINE",
"71 77 LINE SMOOTH",
"71 16 OFFCURVE",
"102 -12 OFFCURVE",
"167 -12 CURVE SMOOTH",
"192 -12 OFFCURVE",
"219 -8 OFFCURVE",
"251 1 CURVE",
"258 96 LINE",
"243 97 OFFCURVE",
"226 99 OFFCURVE",
"211 102 CURVE"
);
}
);
width = 286;
}
);
leftKerningGroup = h;
rightKerningGroup = l;
unicode = 006C;
},
{
color = 10;
glyphname = m;
layers = (
{
hints = (
{
horizontal = 1;
origin = "{0, 17}";
target = up;
type = BottomGhost;
},
{
horizontal = 1;
origin = "{0, 11}";
target = "{0, 4}";
},
{
horizontal = 1;
origin = "{0, 16}";
target = down;
type = TopGhost;
},
{
origin = "{0, 17}";
target = "{0, 0}";
},
{
origin = "{0, 6}";
target = "{0, 7}";
},
{
origin = "{1, 6}";
target = "{1, 7}";
}
);
layerId = "D5343206-61BD-433B-AB67-A494CBABC038";
paths = (
{
closed = 1;
nodes = (
"214 0 LINE",
"214 351 LINE SMOOTH",
"214 386 OFFCURVE",
"230 397 OFFCURVE",
"281 397 CURVE SMOOTH",
"365 397 LINE",
"365 0 LINE",
"505 0 LINE",
"505 415 LINE SMOOTH",
"505 477 OFFCURVE",
"453 512 OFFCURVE",
"359 512 CURVE SMOOTH",
"289 512 OFFCURVE",
"230 491 OFFCURVE",
"178 450 CURVE",
"142 500 LINE",
"74 500 LINE",
"74 0 LINE"
);
},
{
closed = 1;
nodes = (
"504 0 LINE",
"504 351 LINE SMOOTH",
"504 386 OFFCURVE",
"520 397 OFFCURVE",
"571 397 CURVE SMOOTH",
"655 397 LINE",
"655 0 LINE",
"795 0 LINE",
"795 415 LINE SMOOTH",
"795 477 OFFCURVE",
"743 512 OFFCURVE",
"650 512 CURVE SMOOTH",
"580 512 OFFCURVE",
"520 491 OFFCURVE",
"468 450 CURVE",
"365 500 LINE",
"365 0 LINE"
);
}
);
width = 864;
}
);
leftKerningGroup = n;
leftMetricsKey = n;
rightKerningGroup = n;
rightMetricsKey = n;
unicode = 006D;
},
{
color = 10;
glyphname = n;
layers = (
{
anchors = (
{
name = bottom;
position = "{292, 0}";
},
{
name = top;
position = "{302, 500}";
}
);
hints = (
{
horizontal = 1;
origin = "{0, 11}";
target = "{0, 4}";
},
{
horizontal = 1;
origin = "{0, 16}";
target = down;
type = TopGhost;
},
{
origin = "{0, 17}";
target = "{0, 0}";
},
{
origin = "{0, 6}";
target = "{0, 7}";
},
{
horizontal = 1;
origin = "{0, 17}";
target = up;
type = BottomGhost;
}
);
layerId = "D5343206-61BD-433B-AB67-A494CBABC038";
paths = (
{
closed = 1;
nodes = (
"214 0 LINE",
"214 351 LINE SMOOTH",
"214 386 OFFCURVE",
"230 397 OFFCURVE",
"281 397 CURVE SMOOTH",
"375 397 LINE",
"375 0 LINE",
"515 0 LINE",
"515 415 LINE SMOOTH",
"515 477 OFFCURVE",
"463 512 OFFCURVE",
"369 512 CURVE SMOOTH",
"293 512 OFFCURVE",
"231 492 OFFCURVE",
"178 450 CURVE",
"142 500 LINE",
"74 500 LINE",
"74 0 LINE"
);
}
);
width = 584;
}
);
leftKerningGroup = n;
rightKerningGroup = n;
unicode = 006E;
},
{
color = 1;
glyphname = eng;
layers = (
{
components = (
{
name = n;
}
);
hints = (
{
horizontal = 1;
origin = "{0, 12}";
target = "{0, 8}";
},
{
origin = "{0, 5}";
target = "{0, 2}";
},
{
horizontal = 1;
origin = "{0, 12}";
target = up;
type = BottomGhost;
}
);
layerId = "D5343206-61BD-433B-AB67-A494CBABC038";
paths = (
{
closed = 1;
nodes = (
"470 -177 OFFCURVE",
"514 -134 OFFCURVE",
"514 -40 CURVE SMOOTH",
"514 38 LINE",
"374 38 LINE",
"374 -33 LINE SMOOTH",
"374 -84 OFFCURVE",
"358 -95 OFFCURVE",
"281 -95 CURVE",
"274 -164 LINE",
"304 -172 OFFCURVE",
"342 -177 OFFCURVE",
"372 -177 CURVE SMOOTH"
);
}
);
width = 584;
}
);
leftKerningGroup = n;
leftMetricsKey = n;
rightKerningGroup = n;
rightMetricsKey = n;
unicode = 014B;
},
{
color = 10;
glyphname = o;
layers = (
{
anchors = (
{
name = bottom;
position = "{284, 0}";
},
{
name = center;
position = "{284, 250}";
},
{
name = ogonek;
position = "{393, 0}";
},
{
name = top;
position = "{284, 500}";
},
{
name = topright;
position = "{555, 500}";
}
);
hints = (
{
horizontal = 1;
origin = "{0, 11}";
target = "{1, 9}";
},
{
horizontal = 1;
origin = "{0, 5}";
target = "{1, 3}";
},
{
origin = "{0, 8}";
target = "{1, 9}";
},
{
origin = "{1, 5}";
target = "{0, 2}";
},
{
horizontal = 1;
origin = "{0, 11}";
target = up;
type = BottomGhost;
},
{
horizontal = 1;
origin = "{0, 5}";
target = down;
type = TopGhost;
}
);
layerId = "D5343206-61BD-433B-AB67-A494CBABC038";
paths = (
{
closed = 1;
nodes = (
"462 -12 OFFCURVE",
"520 52 OFFCURVE",
"520 250 CURVE SMOOTH",
"520 449 OFFCURVE",
"463 512 OFFCURVE",
"284 512 CURVE SMOOTH",
"107 512 OFFCURVE",
"48 449 OFFCURVE",
"48 250 CURVE SMOOTH",
"48 52 OFFCURVE",
"107 -12 OFFCURVE",
"284 -12 CURVE SMOOTH"
);
},
{
closed = 1;
nodes = (
"196 377 LINE SMOOTH",
"196 397 OFFCURVE",
"206 403 OFFCURVE",
"240 403 CURVE SMOOTH",
"372 403 LINE",
"372 123 LINE SMOOTH",
"372 103 OFFCURVE",
"362 97 OFFCURVE",
"327 97 CURVE SMOOTH",
"196 97 LINE"
);
}
);
width = 568;
}
);
leftKerningGroup = o;
rightKerningGroup = o;
unicode = 006F;
},
{
color = 10;
glyphname = oe;
lastChange = "2016-02-27 16:03:26 +0000";
layers = (
{
anchors = (
{
name = bottom;
position = "{441, 0}";
},
{
name = top;
position = "{441, 500}";
}
);
hints = (
{
horizontal = 1;
origin = "{2, 20}";
target = "{2, 19}";
},
{
horizontal = 1;
origin = "{2, 27}";
target = "{2, 13}";
},
{
horizontal = 1;
origin = "{2, 33}";
target = "{2, 6}";
},
{
place = "{39, 63}";
},
{
origin = "{2, 15}";
target = "{2, 24}";
},
{
origin = "{2, 30}";
target = "{2, 9}";
},
{
horizontal = 1;
origin = "{0, 11}";
target = up;
type = BottomGhost;
},
{
horizontal = 1;
origin = "{0, 5}";
target = down;
type = TopGhost;
}
);
layerId = "D5343206-61BD-433B-AB67-A494CBABC038";
paths = (
{
closed = 1;
nodes = (
"451 -12 OFFCURVE",
"506 52 OFFCURVE",
"506 250 CURVE SMOOTH",
"506 450 OFFCURVE",
"453 512 OFFCURVE",
"284 512 CURVE SMOOTH",
"107 512 OFFCURVE",
"48 449 OFFCURVE",
"48 250 CURVE SMOOTH",
"48 52 OFFCURVE",
"107 -12 OFFCURVE",
"284 -12 CURVE SMOOTH"
);
},
{
closed = 1;
nodes = (
"196 377 LINE SMOOTH",
"196 397 OFFCURVE",
"206 403 OFFCURVE",
"240 403 CURVE SMOOTH",
"372 403 LINE",
"372 123 LINE SMOOTH",
"372 103 OFFCURVE",
"362 97 OFFCURVE",
"327 97 CURVE SMOOTH",
"196 97 LINE"
);
},
{
closed = 1;
nodes = (
"669 -12 OFFCURVE",
"745 -1 OFFCURVE",
"805 20 CURVE",
"787 119 LINE",
"719 101 OFFCURVE",
"668 94 OFFCURVE",
"612 94 CURVE SMOOTH",
"574 94 OFFCURVE",
"546 96 OFFCURVE",
"520 102 CURVE",
"520 355 LINE SMOOTH",
"520 393 OFFCURVE",
"538 405 OFFCURVE",
"597 405 CURVE SMOOTH",
"692 405 LINE",
"692 323 LINE SMOOTH",
"692 283 OFFCURVE",
"673 272 OFFCURVE",
"614 272 CURVE SMOOTH",
"490 272 LINE",
"490 193 LINE",
"520 193 LINE SMOOTH",
"764 193 OFFCURVE",
"818 222 OFFCURVE",
"818 354 CURVE SMOOTH",
"818 477 OFFCURVE",
"770 512 OFFCURVE",
"604 512 CURVE SMOOTH",
"444 512 OFFCURVE",
"385 443 OFFCURVE",
"385 250 CURVE SMOOTH",
"385 54 OFFCURVE",
"439 -12 OFFCURVE",
"593 -12 CURVE SMOOTH"
);
}
);
width = 876;
}
);
leftKerningGroup = o;
leftMetricsKey = o;
rightKerningGroup = e;
rightMetricsKey = e;
unicode = 0153;
},
{
color = 10;
glyphname = p;
layers = (
{
hints = (
{
horizontal = 1;
origin = "{0, 11}";
target = "{1, 9}";
},
{
horizontal = 1;
origin = "{0, 5}";
target = "{1, 3}";
},
{
horizontal = 1;
origin = "{0, 5}";
target = down;
type = TopGhost;
},
{
origin = "{2, 4}";
target = "{2, 0}";
},
{
origin = "{1, 5}";
target = "{0, 2}";
},
{
horizontal = 1;
origin = "{2, 4}";
target = up;
type = BottomGhost;
},
{
horizontal = 1;
origin = "{0, 11}";
target = up;
type = BottomGhost;
}
);
layerId = "D5343206-61BD-433B-AB67-A494CBABC038";
paths = (
{
closed = 1;
nodes = (
"483 -15 OFFCURVE",
"531 49 OFFCURVE",
"531 250 CURVE SMOOTH",
"531 450 OFFCURVE",
"485 512 OFFCURVE",
"337 512 CURVE SMOOTH",
"175 512 OFFCURVE",
"129 455 OFFCURVE",
"129 250 CURVE SMOOTH",
"129 43 OFFCURVE",
"175 -15 OFFCURVE",
"337 -15 CURVE SMOOTH"
);
},
{
closed = 1;
nodes = (
"214 380 LINE SMOOTH",
"214 397 OFFCURVE",
"224 403 OFFCURVE",
"257 403 CURVE SMOOTH",
"382 403 LINE",
"382 120 LINE SMOOTH",
"382 100 OFFCURVE",
"373 94 OFFCURVE",
"339 94 CURVE SMOOTH",
"214 94 LINE"
);
},
{
closed = 1;
nodes = (
"214 -159 LINE",
"214 386 LINE",
"142 500 LINE",
"74 500 LINE",
"74 -172 LINE"
);
}
);
width = 579;
}
);
leftKerningGroup = p;
leftMetricsKey = n;
rightKerningGroup = o;
rightMetricsKey = o;
unicode = 0070;
},
{
color = 10;
glyphname = thorn;
layers = (
{
hints = (
{
horizontal = 1;
origin = "{0, 11}";
target = "{1, 9}";
},
{
horizontal = 1;
origin = "{0, 5}";
target = "{1, 3}";
},
{
horizontal = 1;
place = "{390, -12}";
target = down;
type = TopGhost;
},
{
origin = "{2, 3}";
target = "{2, 0}";
},
{
origin = "{1, 5}";
target = "{0, 2}";
},
{
horizontal = 1;
origin = "{0, 11}";
target = up;
type = BottomGhost;
},
{
horizontal = 1;
origin = "{0, 5}";
target = down;
type = TopGhost;
}
);
layerId = "D5343206-61BD-433B-AB67-A494CBABC038";
paths = (
{
closed = 1;
nodes = (
"483 -15 OFFCURVE",
"531 49 OFFCURVE",
"531 250 CURVE SMOOTH",
"531 450 OFFCURVE",
"485 512 OFFCURVE",
"337 512 CURVE SMOOTH",
"175 512 OFFCURVE",
"129 455 OFFCURVE",
"129 250 CURVE SMOOTH",
"129 43 OFFCURVE",
"175 -15 OFFCURVE",
"337 -15 CURVE SMOOTH"
);
},
{
closed = 1;
nodes = (
"214 380 LINE SMOOTH",
"214 397 OFFCURVE",
"224 403 OFFCURVE",
"257 403 CURVE SMOOTH",
"382 403 LINE",
"382 120 LINE SMOOTH",
"382 100 OFFCURVE",
"373 94 OFFCURVE",
"339 94 CURVE SMOOTH",
"214 94 LINE"
);
},
{
closed = 1;
nodes = (
"214 -159 LINE",
"214 665 LINE",
"74 650 LINE",
"74 -172 LINE"
);
}
);
width = 579;
}
);
leftKerningGroup = p;
leftMetricsKey = n;
rightKerningGroup = o;
rightMetricsKey = o;
unicode = 00FE;
},
{
color = 10;
glyphname = q;
layers = (
{
hints = (
{
horizontal = 1;
origin = "{0, 11}";
target = "{1, 9}";
},
{
horizontal = 1;
origin = "{0, 5}";
target = "{1, 3}";
},
{
horizontal = 1;
origin = "{0, 5}";
target = "{1, 3}";
},
{
origin = "{0, 8}";
target = "{1, 9}";
},
{
origin = "{2, 3}";
target = "{2, 4}";
},
{
horizontal = 1;
origin = "{0, 11}";
target = up;
type = BottomGhost;
},
{
horizontal = 1;
origin = "{0, 5}";
target = down;
type = TopGhost;
}
);
layerId = "D5343206-61BD-433B-AB67-A494CBABC038";
paths = (
{
closed = 1;
nodes = (
"404 -15 OFFCURVE",
"450 43 OFFCURVE",
"450 250 CURVE SMOOTH",
"450 455 OFFCURVE",
"404 512 OFFCURVE",
"242 512 CURVE SMOOTH",
"95 512 OFFCURVE",
"48 450 OFFCURVE",
"48 250 CURVE SMOOTH",
"48 49 OFFCURVE",
"96 -15 OFFCURVE",
"242 -15 CURVE SMOOTH"
);
},
{
closed = 1;
nodes = (
"197 380 LINE SMOOTH",
"197 397 OFFCURVE",
"207 403 OFFCURVE",
"240 403 CURVE SMOOTH",
"365 403 LINE",
"365 120 LINE SMOOTH",
"365 100 OFFCURVE",
"356 94 OFFCURVE",
"322 94 CURVE SMOOTH",
"197 94 LINE"
);
},
{
closed = 1;
nodes = (
"505 500 LINE",
"437 500 LINE",
"365 386 LINE",
"365 -172 LINE",
"505 -159 LINE"
);
}
);
width = 579;
}
);
leftKerningGroup = o;
leftMetricsKey = o;
rightKerningGroup = q;
rightMetricsKey = "=|n";
unicode = 0071;
},
{
color = 10;
glyphname = r;
layers = (
{
anchors = (
{
name = bottom;
position = "{144, 0}";
},
{
name = top;
position = "{196, 500}";
}
);
hints = (
{
origin = "{0, 1}";
target = "{0, 2}";
},
{
horizontal = 1;
origin = "{0, 7}";
target = "{0, 6}";
},
{
horizontal = 1;
origin = "{0, 1}";
target = up;
type = BottomGhost;
},
{
horizontal = 1;
origin = "{0, 0}";
target = down;
type = TopGhost;
}
);
layerId = "D5343206-61BD-433B-AB67-A494CBABC038";
paths = (
{
closed = 1;
nodes = (
"74 500 LINE",
"74 0 LINE",
"214 0 LINE",
"214 324 LINE",
"242 345 OFFCURVE",
"299 370 OFFCURVE",
"337 379 CURVE",
"327 515 LINE",
"280 502 OFFCURVE",
"237 475 OFFCURVE",
"185 426 CURVE",
"142 500 LINE"
);
}
);
width = 348;
}
);
leftKerningGroup = n;
leftMetricsKey = n;
rightKerningGroup = r;
unicode = 0072;
},
{
color = 10;
glyphname = s;
layers = (
{
anchors = (
{
name = bottom;
position = "{249, 0}";
},
{
name = top;
position = "{250, 500}";
}
);
hints = (
{
horizontal = 1;
origin = "{0, 13}";
target = "{0, 6}";
},
{
horizontal = 1;
origin = "{0, 30}";
target = "{0, 23}";
},
{
horizontal = 1;
origin = "{0, 30}";
target = down;
type = TopGhost;
},
{
origin = "{0, 33}";
target = "{0, 19}";
},
{
origin = "{0, 3}";
target = "{0, 16}";
},
{
horizontal = 1;
origin = "{0, 13}";
target = up;
type = BottomGhost;
},
{
horizontal = 1;
origin = "{0, 30}";
target = down;
type = TopGhost;
}
);
layerId = "D5343206-61BD-433B-AB67-A494CBABC038";
paths = (
{
closed = 1;
nodes = (
"46 244 OFFCURVE",
"86 218 OFFCURVE",
"311 189 CURVE",
"311 103 LINE",
"275 94 OFFCURVE",
"250 91 OFFCURVE",
"219 91 CURVE SMOOTH",
"159 91 OFFCURVE",
"106 101 OFFCURVE",
"57 122 CURVE",
"37 16 LINE",
"98 -4 OFFCURVE",
"167 -15 OFFCURVE",
"233 -15 CURVE SMOOTH",
"395 -15 OFFCURVE",
"460 32 OFFCURVE",
"460 147 CURVE SMOOTH",
"460 254 OFFCURVE",
"407 287 OFFCURVE",
"195 314 CURVE",
"195 399 LINE",
"221 405 OFFCURVE",
"259 409 OFFCURVE",
"297 409 CURVE SMOOTH",
"340 409 OFFCURVE",
"384 403 OFFCURVE",
"417 394 CURVE",
"435 493 LINE",
"377 508 OFFCURVE",
"315 515 OFFCURVE",
"249 515 CURVE SMOOTH",
"110 515 OFFCURVE",
"46 466 OFFCURVE",
"46 358 CURVE SMOOTH"
);
}
);
width = 497;
}
);
leftKerningGroup = s;
rightKerningGroup = s;
unicode = 0073;
},
{
color = 10;
glyphname = germandbls;
layers = (
{
hints = (
{
horizontal = 1;
origin = "{0, 43}";
target = "{0, 36}";
},
{
horizontal = 1;
origin = "{0, 15}";
target = "{0, 16}";
},
{
horizontal = 1;
origin = "{0, 23}";
target = "{0, 11}";
},
{
origin = "{0, 18}";
target = "{0, 19}";
},
{
origin = "{0, 33}";
target = "{0, 2}";
},
{
origin = "{0, 26}";
target = "{0, 8}";
},
{
horizontal = 1;
origin = "{0, 18}";
target = up;
type = BottomGhost;
},
{
horizontal = 1;
origin = "{0, 43}";
target = up;
type = BottomGhost;
},
{
horizontal = 1;
origin = "{0, 11}";
target = down;
type = TopGhost;
}
);
layerId = "D5343206-61BD-433B-AB67-A494CBABC038";
paths = (
{
closed = 1;
nodes = (
"553 -15 OFFCURVE",
"615 35 OFFCURVE",
"615 142 CURVE SMOOTH",
"615 231 OFFCURVE",
"577 276 OFFCURVE",
"450 332 CURVE",
"521 414 OFFCURVE",
"546 462 OFFCURVE",
"546 521 CURVE SMOOTH",
"546 622 OFFCURVE",
"470 675 OFFCURVE",
"323 675 CURVE SMOOTH",
"174 675 OFFCURVE",
"117 630 OFFCURVE",
"104 500 CURVE",
"42 500 LINE",
"42 407 LINE",
"104 407 LINE",
"104 0 LINE",
"244 0 LINE",
"244 562 LINE",
"267 567 OFFCURVE",
"286 569 OFFCURVE",
"306 569 CURVE SMOOTH",
"374 569 OFFCURVE",
"406 545 OFFCURVE",
"406 496 CURVE SMOOTH",
"406 421 OFFCURVE",
"318 384 OFFCURVE",
"318 317 CURVE SMOOTH",
"318 268 OFFCURVE",
"339 252 OFFCURVE",
"475 196 CURVE",
"475 97 LINE",
"464 93 OFFCURVE",
"446 91 OFFCURVE",
"415 91 CURVE SMOOTH",
"380 91 OFFCURVE",
"339 98 OFFCURVE",
"299 110 CURVE",
"279 4 LINE",
"316 -8 OFFCURVE",
"371 -15 OFFCURVE",
"422 -15 CURVE SMOOTH"
);
}
);
width = 652;
}
);
leftKerningGroup = h;
leftMetricsKey = f;
rightKerningGroup = germandbls;
rightMetricsKey = s;
unicode = 00DF;
},
{
color = 10;
glyphname = t;
layers = (
{
anchors = (
{
name = bottom;
position = "{179, 0}";
},
{
name = center;
position = "{170, 258}";
},
{
name = top;
position = "{170, 625}";
},
{
name = topright;
position = "{281, 500}";
}
);
hints = (
{
horizontal = 1;
origin = "{0, 12}";
target = "{0, 3}";
},
{
horizontal = 1;
origin = "{1, 2}";
target = "{1, 3}";
},
{
horizontal = 1;
origin = "{0, 7}";
target = down;
type = TopGhost;
},
{
origin = "{0, 9}";
target = "{0, 6}";
},
{
horizontal = 1;
origin = "{0, 12}";
target = up;
type = BottomGhost;
},
{
horizontal = 1;
origin = "{0, 7}";
target = down;
type = TopGhost;
}
);
layerId = "D5343206-61BD-433B-AB67-A494CBABC038";
paths = (
{
closed = 1;
nodes = (
"223 -12 OFFCURVE",
"256 -8 OFFCURVE",
"299 1 CURVE",
"306 96 LINE",
"279 97 OFFCURVE",
"260 99 OFFCURVE",
"240 102 CURVE",
"240 631 LINE",
"100 596 LINE",
"100 77 LINE SMOOTH",
"100 16 OFFCURVE",
"131 -12 OFFCURVE",
"196 -12 CURVE SMOOTH"
);
},
{
closed = 1;
nodes = (
"321 407 LINE",
"321 500 LINE",
"38 500 LINE",
"38 407 LINE"
);
}
);
width = 358;
}
);
leftKerningGroup = t;
rightKerningGroup = t;
unicode = 0074;
},
{
color = 10;
glyphname = u;
layers = (
{
anchors = (
{
name = bottom;
position = "{292, 0}";
},
{
name = ogonek;
position = "{509, 0}";
},
{
name = top;
position = "{292, 500}";
},
{
name = topright;
position = "{510, 500}";
}
);
hints = (
{
horizontal = 1;
origin = "{0, 11}";
target = "{0, 5}";
},
{
horizontal = 1;
origin = "{0, 7}";
target = down;
type = TopGhost;
},
{
origin = "{0, 8}";
target = "{0, 5}";
},
{
origin = "{0, 1}";
target = "{0, 16}";
},
{
horizontal = 1;
origin = "{0, 7}";
target = down;
type = TopGhost;
},
{
horizontal = 1;
origin = "{0, 11}";
target = up;
type = BottomGhost;
}
);
layerId = "D5343206-61BD-433B-AB67-A494CBABC038";
paths = (
{
closed = 1;
nodes = (
"370 500 LINE",
"370 134 LINE SMOOTH",
"370 99 OFFCURVE",
"354 88 OFFCURVE",
"303 88 CURVE SMOOTH",
"209 88 LINE",
"209 500 LINE",
"69 500 LINE",
"69 109 LINE SMOOTH",
"69 25 OFFCURVE",
"112 -12 OFFCURVE",
"208 -12 CURVE SMOOTH",
"286 -12 OFFCURVE",
"351 8 OFFCURVE",
"406 50 CURVE",
"442 0 LINE",
"510 0 LINE",
"510 500 LINE"
);
}
);
width = 584;
}
);
leftKerningGroup = u;
leftMetricsKey = "=|n";
rightKerningGroup = u;
rightMetricsKey = "=|n";
unicode = 0075;
},
{
color = 10;
glyphname = v;
layers = (
{
hints = (
{
horizontal = 1;
origin = "{0, 0}";
target = "{0, 5}";
},
{
horizontal = 1;
origin = "{0, 0}";
target = up;
type = BottomGhost;
},
{
horizontal = 1;
origin = "{0, 7}";
target = down;
type = TopGhost;
}
);
layerId = "D5343206-61BD-433B-AB67-A494CBABC038";
paths = (
{
closed = 1;
nodes = (
"139 0 LINE",
"351 0 LINE",
"485 500 LINE",
"348 500 LINE",
"250 121 LINE",
"240 121 LINE",
"142 500 LINE",
"5 500 LINE"
);
}
);
width = 490;
}
);
leftKerningGroup = v;
rightKerningGroup = v;
unicode = 0076;
},
{
color = 10;
glyphname = w;
layers = (
{
anchors = (
{
name = bottom;
position = "{371, 0}";
},
{
name = top;
position = "{371, 500}";
}
);
hints = (
{
horizontal = 1;
origin = "{1, 7}";
target = "{1, 4}";
},
{
horizontal = 1;
origin = "{1, 7}";
target = up;
type = BottomGhost;
},
{
horizontal = 1;
origin = "{1, 6}";
target = down;
type = TopGhost;
}
);
layerId = "D5343206-61BD-433B-AB67-A494CBABC038";
paths = (
{
closed = 1;
nodes = (
"625 0 LINE",
"737 500 LINE",
"599 500 LINE",
"523 121 LINE",
"513 121 LINE",
"432 500 LINE",
"326 500 LINE",
"436 0 LINE"
);
},
{
closed = 1;
nodes = (
"305 0 LINE",
"416 500 LINE",
"310 500 LINE",
"229 121 LINE",
"219 121 LINE",
"142 500 LINE",
"5 500 LINE",
"116 0 LINE"
);
}
);
width = 741;
}
);
leftKerningGroup = w;
rightKerningGroup = w;
unicode = 0077;
},
{
color = 10;
glyphname = x;
layers = (
{
hints = (
{
horizontal = 1;
origin = "{1, 3}";
target = up;
type = BottomGhost;
},
{
horizontal = 1;
origin = "{0, 2}";
target = down;
type = TopGhost;
}
);
layerId = "D5343206-61BD-433B-AB67-A494CBABC038";
paths = (
{
closed = 1;
nodes = (
"512 0 LINE",
"173 500 LINE",
"20 500 LINE",
"359 0 LINE"
);
},
{
closed = 1;
nodes = (
"166 0 LINE",
"282 193 LINE",
"199 287 LINE",
"17 0 LINE"
);
},
{
closed = 1;
nodes = (
"509 500 LINE",
"360 500 LINE",
"244 307 LINE",
"324 209 LINE"
);
}
);
width = 528;
}
);
leftKerningGroup = x;
rightKerningGroup = x;
unicode = 0078;
},
{
color = 10;
glyphname = y;
layers = (
{
anchors = (
{
name = bottom;
position = "{240, -177}";
},
{
name = top;
position = "{240, 500}";
}
);
hints = (
{
horizontal = 1;
origin = "{0, 7}";
target = "{0, 4}";
},
{
horizontal = 1;
origin = "{1, 12}";
target = "{1, 8}";
},
{
horizontal = 1;
origin = "{1, 12}";
target = up;
type = BottomGhost;
},
{
horizontal = 1;
origin = "{0, 6}";
target = down;
type = TopGhost;
}
);
layerId = "D5343206-61BD-433B-AB67-A494CBABC038";
paths = (
{
closed = 1;
nodes = (
"346 38 LINE",
"475 500 LINE",
"338 500 LINE",
"245 159 LINE",
"235 159 LINE",
"142 500 LINE",
"5 500 LINE",
"134 38 LINE"
);
},
{
closed = 1;
nodes = (
"243 -177 OFFCURVE",
"301 -124 OFFCURVE",
"345 38 CURVE",
"215 38 LINE",
"208 16 LINE SMOOTH",
"190 -54 OFFCURVE",
"174 -70 OFFCURVE",
"107 -79 CURVE SMOOTH",
"18 -90 LINE",
"12 -164 LINE",
"40 -172 OFFCURVE",
"78 -177 OFFCURVE",
"112 -177 CURVE SMOOTH"
);
}
);
width = 480;
}
);
leftKerningGroup = y;
rightKerningGroup = y;
unicode = 0079;
},
{
color = 10;
glyphname = z;
layers = (
{
anchors = (
{
name = bottom;
position = "{248, 0}";
},
{
name = top;
position = "{264, 500}";
}
);
hints = (
{
horizontal = 1;
origin = "{0, 1}";
target = "{0, 4}";
},
{
horizontal = 1;
origin = "{0, 8}";
target = "{0, 9}";
},
{
horizontal = 1;
origin = "{0, 1}";
target = up;
type = BottomGhost;
},
{
horizontal = 1;
origin = "{0, 8}";
target = down;
type = TopGhost;
}
);
layerId = "D5343206-61BD-433B-AB67-A494CBABC038";
paths = (
{
closed = 1;
nodes = (
"38 77 LINE",
"38 0 LINE",
"455 0 LINE",
"455 101 LINE",
"216 101 LINE",
"213 107 LINE",
"455 423 LINE",
"455 500 LINE",
"56 500 LINE",
"66 399 LINE",
"276 399 LINE",
"280 393 LINE"
);
}
);
width = 496;
}
);
leftKerningGroup = z;
rightKerningGroup = z;
unicode = 007A;
},
{
color = 10;
glyphname = ordfeminine;
layers = (
{
components = (
{
name = strokeshortcomb;
transform = "{1.1, 0, 0, 1, 11, -37}";
}
);
hints = (
{
horizontal = 1;
origin = "{0, 12}";
target = "{0, 15}";
},
{
horizontal = 1;
origin = "{0, 8}";
},
{
horizontal = 1;
place = "{397.2, 37.2}";
},
{
origin = "{0, 12}";
target = "{0, 24}";
},
{
origin = "{0, 30}";
target = "{0, 3}";
}
);
layerId = "D5343206-61BD-433B-AB67-A494CBABC038";
paths = (
{
closed = 1;
nodes = (
"203 340 OFFCURVE",
"249 357 OFFCURVE",
"287 389 CURVE",
"318 350 LINE",
"375 350 LINE",
"376 626 LINE SMOOTH",
"376 713 OFFCURVE",
"329 749 OFFCURVE",
"213 749 CURVE SMOOTH",
"154 749 OFFCURVE",
"91 740 OFFCURVE",
"40 724 CURVE",
"55 641 LINE",
"105 653 OFFCURVE",
"154 660 OFFCURVE",
"199 660 CURVE SMOOTH",
"222 660 OFFCURVE",
"241 659 OFFCURVE",
"257 655 CURVE",
"257 461 LINE SMOOTH",
"257 433 OFFCURVE",
"243 424 OFFCURVE",
"198 424 CURVE SMOOTH",
"131 424 LINE",
"131 488 LINE SMOOTH",
"131 517 OFFCURVE",
"145 527 OFFCURVE",
"189 527 CURVE SMOOTH",
"281 527 LINE",
"281 585 LINE",
"239 585 LINE SMOOTH",
"65 585 OFFCURVE",
"22 561 OFFCURVE",
"22 465 CURVE SMOOTH",
"22 378 OFFCURVE",
"60 340 OFFCURVE",
"151 340 CURVE SMOOTH"
);
}
);
width = 411;
}
);
leftKerningGroup = ordfeminine;
leftMetricsKey = "=a/2";
rightKerningGroup = ordfeminine;
rightMetricsKey = "=a/2";
unicode = 00AA;
userData = {
RMXScaler = {
source = a;
};
};
},
{
color = 10;
glyphname = ordmasculine;
layers = (
{
components = (
{
name = strokeshortcomb;
transform = "{1.2, 0, 0, 1, 51, -35}";
}
);
hints = (
{
horizontal = 1;
place = "{417, 0}";
},
{
horizontal = 1;
place = "{423, 37.2}";
},
{
origin = "{0, 8}";
target = "{1, 0}";
},
{
origin = "{0, 5}";
target = "{0, 5}";
}
);
layerId = "D5343206-61BD-433B-AB67-A494CBABC038";
paths = (
{
closed = 1;
nodes = (
"405 350 OFFCURVE",
"454 403 OFFCURVE",
"454 560 CURVE SMOOTH",
"454 717 OFFCURVE",
"406 770 OFFCURVE",
"256 770 CURVE SMOOTH",
"108 770 OFFCURVE",
"59 717 OFFCURVE",
"59 560 CURVE SMOOTH",
"59 403 OFFCURVE",
"108 350 OFFCURVE",
"256 350 CURVE SMOOTH"
);
},
{
closed = 1;
nodes = (
"184 657 LINE SMOOTH",
"184 673 OFFCURVE",
"192 678 OFFCURVE",
"221 678 CURVE SMOOTH",
"329 678 LINE",
"329 463 LINE SMOOTH",
"329 447 OFFCURVE",
"321 442 OFFCURVE",
"292 442 CURVE SMOOTH",
"184 442 LINE"
);
}
);
width = 512;
}
);
leftKerningGroup = ordmasculine;
rightKerningGroup = ordmasculine;
unicode = 00BA;
userData = {
RMXScaler = {
source = o;
};
};
},
{
color = 10;
glyphname = Omega;
layers = (
{
layerId = "D5343206-61BD-433B-AB67-A494CBABC038";
paths = (
{
closed = 1;
nodes = (
"421 531 LINE SMOOTH",
"465 531 OFFCURVE",
"489 523 OFFCURVE",
"489 473 CURVE SMOOTH",
"489 204 LINE",
"413 204 LINE",
"428 0 LINE",
"650 0 LINE",
"650 87 LINE",
"515 95 LINE",
"512 146 LINE",
"608 167 OFFCURVE",
"639 224 OFFCURVE",
"639 375 CURVE SMOOTH",
"639 579 OFFCURVE",
"565 640 OFFCURVE",
"345 640 CURVE SMOOTH",
"126 640 OFFCURVE",
"51 579 OFFCURVE",
"51 375 CURVE SMOOTH",
"51 224 OFFCURVE",
"82 167 OFFCURVE",
"179 146 CURVE",
"175 95 LINE",
"40 87 LINE",
"40 0 LINE",
"262 0 LINE",
"277 204 LINE",
"228 204 OFFCURVE",
"201 213 OFFCURVE",
"201 276 CURVE SMOOTH",
"201 531 LINE"
);
}
);
width = 690;
}
);
leftKerningGroup = uni03A9;
rightKerningGroup = uni03A9;
unicode = 03A9;
},
{
color = 10;
glyphname = pi;
layers = (
{
layerId = "D5343206-61BD-433B-AB67-A494CBABC038";
paths = (
{
closed = 1;
nodes = (
"192 0 LINE",
"250 351 LINE SMOOTH",
"254 377 OFFCURVE",
"270 389 OFFCURVE",
"298 389 CURVE SMOOTH",
"500 389 LINE SMOOTH",
"569 390 OFFCURVE",
"585 417 OFFCURVE",
"585 529 CURVE",
"480 536 LINE",
"479 521 OFFCURVE",
"477 509 OFFCURVE",
"474 500 CURVE",
"66 500 LINE",
"66 411 LINE",
"116 399 LINE",
"88 0 LINE"
);
},
{
closed = 1;
nodes = (
"498 -10 OFFCURVE",
"524 -6 OFFCURVE",
"559 3 CURVE",
"566 98 LINE",
"551 99 OFFCURVE",
"537 101 OFFCURVE",
"519 103 CURVE",
"519 433 LINE",
"379 433 LINE",
"379 78 LINE SMOOTH",
"379 18 OFFCURVE",
"410 -10 OFFCURVE",
"475 -10 CURVE SMOOTH"
);
}
);
width = 633;
}
);
leftKerningGroup = pi;
rightKerningGroup = pi;
unicode = 03C0;
},
{
color = 4;
glyphname = "hamza-ar";
layers = (
{
anchors = (
{
name = bottom;
position = "{214, 0}";
},
{
name = top;
position = "{214, 500}";
}
);
hints = (
{
horizontal = 1;
origin = "{0, 6}";
target = "{0, 7}";
},
{
origin = "{0, 10}";
target = "{0, 2}";
}
);
layerId = "D5343206-61BD-433B-AB67-A494CBABC038";
paths = (
{
closed = 1;
nodes = (
"219 174 OFFCURVE",
"205 185 OFFCURVE",
"205 225 CURVE SMOOTH",
"205 337 LINE",
"243 358 OFFCURVE",
"310 373 OFFCURVE",
"368 373 CURVE",
"368 499 LINE",
"178 499 OFFCURVE",
"90 428 OFFCURVE",
"90 271 CURVE SMOOTH",
"90 216 OFFCURVE",
"100 172 OFFCURVE",
"118 146 CURVE",
"20 120 LINE",
"20 2 LINE",
"412 107 LINE",
"412 226 LINE",
"268 187 LINE SMOOTH"
);
}
);
width = 436;
}
);
unicode = 0621;
},
{
color = 4;
glyphname = "alef-ar";
layers = (
{
anchors = (
{
name = bottom;
position = "{144, -80}";
},
{
name = top;
position = "{144, 730}";
}
);
hints = (
{
horizontal = 1;
origin = "{0, 3}";
target = up;
type = BottomGhost;
},
{
horizontal = 1;
origin = "{0, 2}";
target = down;
type = TopGhost;
},
{
origin = "{0, 3}";
target = "{0, 0}";
},
{
horizontal = 1;
origin = "{0, 3}";
target = up;
type = BottomGhost;
},
{
horizontal = 1;
origin = "{0, 2}";
target = down;
type = TopGhost;
}
);
layerId = "D5343206-61BD-433B-AB67-A494CBABC038";
paths = (
{
closed = 1;
nodes = (
"200 0 LINE",
"200 630 LINE",
"88 630 LINE",
"88 0 LINE"
);
}
);
width = 288;
}
);
unicode = 0627;
},
{
color = 4;
glyphname = "alef-ar.fina";
layers = (
{
anchors = (
{
name = bottom;
position = "{144, -80}";
},
{
name = entry;
position = "{288, 63}";
},
{
name = top;
position = "{144, 730}";
}
);
hints = (
{
horizontal = 1;
origin = "{0, 5}";
target = "{0, 2}";
},
{
horizontal = 1;
origin = "{0, 4}";
target = down;
type = TopGhost;
},
{
origin = "{0, 5}";
target = "{0, 2}";
},
{
horizontal = 1;
origin = "{0, 4}";
target = down;
type = TopGhost;
},
{
horizontal = 1;
origin = "{0, 5}";
target = up;
type = BottomGhost;
}
);
layerId = "D5343206-61BD-433B-AB67-A494CBABC038";
paths = (
{
closed = 1;
nodes = (
"308 0 LINE",
"308 126 LINE",
"200 126 LINE",
"200 630 LINE",
"88 630 LINE",
"88 0 LINE"
);
}
);
width = 288;
}
);
unicode = FE8E;
},
{
color = 4;
glyphname = "alef-ar.short";
layers = (
{
anchors = (
{
name = bottom;
position = "{144, -80}";
},
{
name = top;
position = "{144, 550}";
}
);
hints = (
{
horizontal = 1;
origin = "{0, 3}";
target = up;
type = BottomGhost;
},
{
horizontal = 1;
origin = "{0, 2}";
target = down;
type = TopGhost;
},
{
origin = "{0, 3}";
target = "{0, 0}";
}
);
layerId = "D5343206-61BD-433B-AB67-A494CBABC038";
paths = (
{
closed = 1;
nodes = (
"200 0 LINE",
"200 470 LINE",
"88 470 LINE",
"88 0 LINE"
);
}
);
width = 288;
}
);
},
{
color = 4;
glyphname = "alef-ar.fina.short";
layers = (
{
anchors = (
{
name = bottom;
position = "{144, -80}";
},
{
name = entry;
position = "{288, 63}";
},
{
name = top;
position = "{144, 550}";
}
);
hints = (
{
horizontal = 1;
origin = "{0, 5}";
target = "{0, 2}";
},
{
horizontal = 1;
origin = "{0, 4}";
target = down;
type = TopGhost;
},
{
origin = "{0, 5}";
target = "{0, 2}";
},
{
horizontal = 1;
origin = "{0, 5}";
target = up;
type = BottomGhost;
}
);
layerId = "D5343206-61BD-433B-AB67-A494CBABC038";
paths = (
{
closed = 1;
nodes = (
"308 0 LINE",
"308 126 LINE",
"200 126 LINE",
"200 470 LINE",
"88 470 LINE",
"88 0 LINE"
);
}
);
width = 288;
}
);
},
{
color = 4;
glyphname = "dotlessbeh-ar";
layers = (
{
anchors = (
{
name = bottom;
position = "{447, -86}";
},
{
name = top;
position = "{447, 450}";
}
);
hints = (
{
horizontal = 1;
origin = "{0, 17}";
target = "{0, 4}";
},
{
horizontal = 1;
origin = "{0, 2}";
target = down;
type = TopGhost;
},
{
origin = "{0, 14}";
target = "{0, 7}";
},
{
origin = "{0, 3}";
target = "{0, 0}";
}
);
layerId = "D5343206-61BD-433B-AB67-A494CBABC038";
paths = (
{
closed = 1;
nodes = (
"812 0 LINE",
"812 470 LINE",
"700 470 LINE",
"700 126 LINE",
"189 126 LINE",
"178 158 OFFCURVE",
"174 193 OFFCURVE",
"174 242 CURVE SMOOTH",
"174 285 OFFCURVE",
"182 332 OFFCURVE",
"199 383 CURVE",
"92 400 LINE",
"73 346 OFFCURVE",
"62 276 OFFCURVE",
"62 213 CURVE SMOOTH",
"62 61 OFFCURVE",
"107 0 OFFCURVE",
"218 0 CURVE"
);
}
);
width = 900;
}
);
unicode = 066E;
},
{
color = 4;
glyphname = "dotlessbeh-ar.fina";
layers = (
{
anchors = (
{
name = bottom;
position = "{447, -86}";
},
{
name = entry;
position = "{900, 63}";
},
{
name = top;
position = "{447, 450}";
}
);
components = (
{
name = "dotlessbeh-ar";
}
);
hints = (
{
horizontal = 1;
origin = "{0, 0}";
target = "{0, 3}";
}
);
layerId = "D5343206-61BD-433B-AB67-A494CBABC038";
paths = (
{
closed = 1;
nodes = (
"798 0 LINE",
"920 0 LINE",
"920 126 LINE",
"798 126 LINE"
);
}
);
width = 900;
}
);
leftMetricsKey = "=dotlessbeh-ar";
},
{
color = 4;
glyphname = "dotlessbeh-ar.medi";
layers = (
{
anchors = (
{
name = bottom;
position = "{192, -80}";
},
{
name = entry;
position = "{336, 63}";
},
{
name = exit;
position = "{0, 63}";
},
{
name = top;
position = "{192, 550}";
}
);
hints = (
{
horizontal = 1;
origin = "{0, 4}";
target = "{0, 3}";
},
{
horizontal = 1;
origin = "{0, 1}";
target = down;
type = TopGhost;
},
{
origin = "{0, 2}";
target = "{0, 7}";
}
);
layerId = "D5343206-61BD-433B-AB67-A494CBABC038";
paths = (
{
closed = 1;
nodes = (
"248 470 LINE",
"136 470 LINE",
"136 126 LINE",
"-20 126 LINE",
"-20 0 LINE",
"356 0 LINE",
"356 126 LINE",
"248 126 LINE"
);
}
);
width = 336;
}
);
},
{
color = 4;
glyphname = "dotlessbeh-ar.init";
layers = (
{
anchors = (
{
name = bottom;
position = "{192, -80}";
},
{
name = exit;
position = "{0, 63}";
},
{
name = top;
position = "{192, 550}";
}
);
hints = (
{
horizontal = 1;
origin = "{0, 5}";
target = "{0, 4}";
},
{
horizontal = 1;
origin = "{0, 2}";
target = down;
type = TopGhost;
},
{
origin = "{0, 3}";
target = "{0, 0}";
}
);
layerId = "D5343206-61BD-433B-AB67-A494CBABC038";
paths = (
{
closed = 1;
nodes = (
"248 0 LINE",
"248 470 LINE",
"136 470 LINE",
"136 126 LINE",
"-20 126 LINE",
"-20 0 LINE"
);
}
);
width = 336;
}
);
},
{
color = 0;
glyphname = "tcheh-ar";
layers = (
{
anchors = (
{
name = bottom;
position = "{268, -420}";
},
{
name = top;
position = "{287, 573}";
}
);
components = (
{
alignment = -1;
name = "threedotsdownbelow-ar";
transform = "{0.92, 0, 0, 0.92, 229, 116}";
}
);
hints = (
{
horizontal = 1;
origin = "{0, 16}";
target = "{0, 2}";
},
{
horizontal = 1;
origin = "{0, 9}";
target = "{0, 10}";
},
{
horizontal = 1;
origin = "{1, 7}";
target = "{1, 14}";
},
{
origin = "{0, 13}";
target = "{0, 5}";
}
);
layerId = "D5343206-61BD-433B-AB67-A494CBABC038";
paths = (
{
closed = 1;
nodes = (
"277 -154 OFFCURVE",
"247 -157 OFFCURVE",
"220 -157 CURVE SMOOTH",
"198 -157 OFFCURVE",
"178 -155 OFFCURVE",
"162 -151 CURVE",
"162 7 LINE SMOOTH",
"162 105 OFFCURVE",
"281 145 OFFCURVE",
"569 145 CURVE",
"513 257 LINE",
"177 257 OFFCURVE",
"47 172 OFFCURVE",
"47 -46 CURVE SMOOTH",
"47 -219 OFFCURVE",
"83 -283 OFFCURVE",
"225 -283 CURVE SMOOTH",
"254 -283 OFFCURVE",
"286 -278 OFFCURVE",
"322 -268 CURVE",
"308 -149 LINE"
);
},
{
closed = 1;
nodes = (
"411 173 OFFCURVE",
"464 145 OFFCURVE",
"569 145 CURVE",
"569 257 LINE",
"513 257 LINE",
"457 416 OFFCURVE",
"359 482 OFFCURVE",
"178 482 CURVE SMOOTH",
"143 482 OFFCURVE",
"104 480 OFFCURVE",
"54 474 CURVE",
"71 350 LINE",
"104 355 OFFCURVE",
"132 356 OFFCURVE",
"162 356 CURVE SMOOTH",
"274 356 OFFCURVE",
"343 322 OFFCURVE",
"380 249 CURVE SMOOTH"
);
}
);
width = 569;
}
);
unicode = 0686;
},
{
color = 0;
glyphname = "tcheh-ar.fina";
layers = (
{
anchors = (
{
name = bottom;
position = "{388, -299}";
},
{
name = entry;
position = "{712, 63}";
},
{
name = top;
position = "{407, 573}";
}
);
components = (
{
alignment = -1;
name = "threedotsdownbelow-ar";
transform = "{0.92, 0, 0, 0.92, 229, 116}";
}
);
hints = (
{
horizontal = 1;
origin = "{1, 16}";
target = "{1, 2}";
},
{
horizontal = 1;
origin = "{0, 17}";
target = "{0, 20}";
},
{
horizontal = 1;
origin = "{1, 9}";
target = "{1, 10}";
},
{
horizontal = 1;
origin = "{0, 3}";
target = "{0, 10}";
},
{
origin = "{1, 13}";
target = "{1, 5}";
}
);
layerId = "D5343206-61BD-433B-AB67-A494CBABC038";
paths = (
{
closed = 1;
nodes = (
"608 270 LINE SMOOTH",
"554 421 OFFCURVE",
"467 482 OFFCURVE",
"298 482 CURVE SMOOTH",
"263 482 OFFCURVE",
"223 480 OFFCURVE",
"174 474 CURVE",
"191 350 LINE",
"228 354 OFFCURVE",
"262 356 OFFCURVE",
"294 356 CURVE SMOOTH",
"414 356 OFFCURVE",
"468 321 OFFCURVE",
"508 224 CURVE SMOOTH",
"572 56 LINE SMOOTH",
"587 17 OFFCURVE",
"609 0 OFFCURVE",
"651 0 CURVE SMOOTH",
"732 0 LINE",
"732 126 LINE",
"662 126 LINE"
);
},
{
closed = 1;
nodes = (
"277 -154 OFFCURVE",
"247 -157 OFFCURVE",
"220 -157 CURVE SMOOTH",
"198 -157 OFFCURVE",
"178 -155 OFFCURVE",
"162 -151 CURVE",
"162 7 LINE SMOOTH",
"162 102 OFFCURVE",
"281 141 OFFCURVE",
"569 141 CURVE",
"513 239 LINE",
"177 239 OFFCURVE",
"47 160 OFFCURVE",
"47 -46 CURVE SMOOTH",
"47 -219 OFFCURVE",
"83 -283 OFFCURVE",
"225 -283 CURVE SMOOTH",
"254 -283 OFFCURVE",
"286 -278 OFFCURVE",
"322 -268 CURVE",
"308 -149 LINE"
);
}
);
width = 712;
}
);
unicode = FB7B;
},
{
color = 4;
glyphname = "hah-ar";
layers = (
{
anchors = (
{
name = bottom;
position = "{268, -328}";
},
{
name = center;
position = "{330, -40}";
},
{
name = top;
position = "{287, 573}";
}
);
color = 1;
hints = (
{
horizontal = 1;
origin = "{0, 20}";
target = "{0, 6}";
},
{
horizontal = 1;
origin = "{0, 13}";
target = "{0, 14}";
},
{
horizontal = 1;
origin = "{1, 7}";
target = "{1, 14}";
},
{
origin = "{0, 17}";
target = "{0, 9}";
}
);
layerId = "D5343206-61BD-433B-AB67-A494CBABC038";
paths = (
{
closed = 1;
nodes = (
"343 -285 OFFCURVE",
"424 -275 OFFCURVE",
"482 -255 CURVE",
"468 -136 LINE",
"397 -153 OFFCURVE",
"346 -159 OFFCURVE",
"290 -159 CURVE SMOOTH",
"240 -159 OFFCURVE",
"192 -156 OFFCURVE",
"162 -151 CURVE",
"162 7 LINE SMOOTH",
"162 105 OFFCURVE",
"281 145 OFFCURVE",
"569 145 CURVE",
"513 257 LINE",
"177 257 OFFCURVE",
"47 172 OFFCURVE",
"47 -46 CURVE SMOOTH",
"47 -233 OFFCURVE",
"92 -285 OFFCURVE",
"257 -285 CURVE SMOOTH"
);
},
{
closed = 1;
nodes = (
"411 173 OFFCURVE",
"464 145 OFFCURVE",
"569 145 CURVE",
"569 257 LINE",
"513 257 LINE",
"457 416 OFFCURVE",
"359 482 OFFCURVE",
"178 482 CURVE SMOOTH",
"143 482 OFFCURVE",
"104 480 OFFCURVE",
"54 474 CURVE",
"71 350 LINE",
"104 355 OFFCURVE",
"132 356 OFFCURVE",
"162 356 CURVE SMOOTH",
"274 356 OFFCURVE",
"343 322 OFFCURVE",
"380 249 CURVE SMOOTH"
);
}
);
width = 569;
}
);
unicode = 062D;
},
{
color = 4;
glyphname = "hah-ar.fina";
layers = (
{
anchors = (
{
name = bottom;
position = "{268, -344}";
},
{
name = center;
position = "{312, -51}";
},
{
name = entry;
position = "{592, 63}";
},
{
name = top;
position = "{287, 573}";
}
);
hints = (
{
horizontal = 1;
origin = "{0, 20}";
target = "{0, 6}";
},
{
horizontal = 1;
origin = "{1, 17}";
target = "{1, 20}";
},
{
horizontal = 1;
place = "{104.4, 42}";
},
{
horizontal = 1;
origin = "{1, 3}";
target = "{1, 10}";
},
{
origin = "{0, 17}";
target = "{0, 9}";
}
);
layerId = "D5343206-61BD-433B-AB67-A494CBABC038";
paths = (
{
closed = 1;
nodes = (
"341 -285 OFFCURVE",
"423 -275 OFFCURVE",
"483 -255 CURVE",
"469 -136 LINE",
"398 -153 OFFCURVE",
"348 -159 OFFCURVE",
"290 -159 CURVE SMOOTH",
"239 -159 OFFCURVE",
"198 -157 OFFCURVE",
"165 -151 CURVE",
"165 7 LINE SMOOTH",
"165 107 OFFCURVE",
"270 146 OFFCURVE",
"480 153 CURVE",
"449 251 LINE",
"174 241 OFFCURVE",
"46 162 OFFCURVE",
"46 -46 CURVE SMOOTH",
"46 -224 OFFCURVE",
"91 -285 OFFCURVE",
"258 -285 CURVE SMOOTH"
);
},
{
closed = 1;
nodes = (
"488 270 LINE SMOOTH",
"434 421 OFFCURVE",
"347 482 OFFCURVE",
"178 482 CURVE SMOOTH",
"143 482 OFFCURVE",
"103 480 OFFCURVE",
"54 474 CURVE",
"71 350 LINE",
"108 354 OFFCURVE",
"142 356 OFFCURVE",
"174 356 CURVE SMOOTH",
"294 356 OFFCURVE",
"348 321 OFFCURVE",
"388 224 CURVE SMOOTH",
"452 56 LINE SMOOTH",
"467 17 OFFCURVE",
"489 0 OFFCURVE",
"531 0 CURVE SMOOTH",
"612 0 LINE",
"612 126 LINE",
"542 126 LINE"
);
}
);
width = 592;
}
);
unicode = FEA2;
},
{
color = 4;
glyphname = "hah-ar.medi";
layers = (
{
anchors = (
{
name = bottom;
position = "{287, -80}";
},
{
name = entry;
position = "{591, 63}";
},
{
name = exit;
position = "{0, 63}";
},
{
name = top;
position = "{259, 550}";
}
);
hints = (
{
horizontal = 1;
origin = "{1, 4}";
target = "{1, 3}";
},
{
horizontal = 1;
origin = "{0, 3}";
target = "{0, 10}";
}
);
layerId = "D5343206-61BD-433B-AB67-A494CBABC038";
paths = (
{
closed = 1;
nodes = (
"488 270 LINE SMOOTH",
"435 420 OFFCURVE",
"349 482 OFFCURVE",
"178 482 CURVE SMOOTH",
"141 482 OFFCURVE",
"100 479 OFFCURVE",
"54 474 CURVE",
"71 350 LINE",
"110 355 OFFCURVE",
"143 356 OFFCURVE",
"174 356 CURVE SMOOTH",
"296 356 OFFCURVE",
"349 319 OFFCURVE",
"388 224 CURVE SMOOTH",
"452 56 LINE SMOOTH",
"467 17 OFFCURVE",
"489 0 OFFCURVE",
"531 0 CURVE SMOOTH",
"612 0 LINE",
"612 126 LINE",
"542 126 LINE"
);
},
{
closed = 1;
nodes = (
"354 207 OFFCURVE",
"299 126 OFFCURVE",
"191 126 CURVE SMOOTH",
"-20 126 LINE",
"-20 0 LINE",
"167 0 LINE SMOOTH",
"322 0 OFFCURVE",
"433 85 OFFCURVE",
"484 248 CURVE",
"380 286 LINE"
);
}
);
width = 591;
}
);
unicode = FEA4;
},
{
color = 4;
glyphname = "hah-ar.init";
layers = (
{
anchors = (
{
name = bottom;
position = "{275, -80}";
},
{
name = exit;
position = "{0, 63}";
},
{
name = top;
position = "{259, 550}";
}
);
hints = (
{
horizontal = 1;
origin = "{1, 4}";
target = "{1, 3}";
},
{
horizontal = 1;
origin = "{0, 15}";
target = "{0, 18}";
},
{
horizontal = 1;
origin = "{0, 2}";
target = "{0, 9}";
}
);
layerId = "D5343206-61BD-433B-AB67-A494CBABC038";
paths = (
{
closed = 1;
nodes = (
"426 427 OFFCURVE",
"343 482 OFFCURVE",
"178 482 CURVE SMOOTH",
"141 482 OFFCURVE",
"100 479 OFFCURVE",
"54 474 CURVE",
"71 350 LINE",
"110 355 OFFCURVE",
"143 356 OFFCURVE",
"174 356 CURVE SMOOTH",
"297 356 OFFCURVE",
"352 321 OFFCURVE",
"388 224 CURVE SMOOTH",
"402 185 OFFCURVE",
"425 168 OFFCURVE",
"467 168 CURVE SMOOTH",
"569 168 LINE",
"569 294 LINE",
"478 294 LINE"
);
},
{
closed = 1;
nodes = (
"350 207 OFFCURVE",
"287 126 OFFCURVE",
"161 126 CURVE SMOOTH",
"-20 126 LINE",
"-20 0 LINE",
"143 0 LINE SMOOTH",
"310 0 OFFCURVE",
"429 85 OFFCURVE",
"484 248 CURVE",
"380 286 LINE"
);
}
);
width = 569;
}
);
note = "25-11 cambio de estructura";
unicode = FEA3;
},
{
color = 4;
glyphname = "dal-ar";
layers = (
{
anchors = (
{
name = bottom;
position = "{236, -80}";
},
{
name = top;
position = "{191, 550}";
}
);
hints = (
{
horizontal = 1;
origin = "{0, 16}";
target = "{0, 15}";
},
{
horizontal = 1;
origin = "{0, 11}";
target = "{0, 4}";
}
);
layerId = "D5343206-61BD-433B-AB67-A494CBABC038";
paths = (
{
closed = 1;
nodes = (
"474 0 LINE",
"474 98 LINE",
"383 441 OFFCURVE",
"343 491 OFFCURVE",
"162 491 CURVE SMOOTH",
"123 491 OFFCURVE",
"76 486 OFFCURVE",
"38 476 CURVE",
"69 354 LINE",
"97 361 OFFCURVE",
"132 365 OFFCURVE",
"162 365 CURVE SMOOTH",
"258 365 OFFCURVE",
"288 325 OFFCURVE",
"340 126 CURVE",
"20 126 LINE",
"20 0 LINE"
);
}
);
width = 524;
}
);
unicode = 062F;
},
{
color = 4;
glyphname = "dal-ar.fina";
layers = (
{
anchors = (
{
name = bottom;
position = "{244, -80}";
},
{
name = entry;
position = "{512, 63}";
},
{
name = top;
position = "{191, 550}";
}
);
components = (
{
name = "dal-ar";
}
);
hints = (
{
horizontal = 1;
origin = "{0, 0}";
target = "{0, 3}";
},
{
origin = "{0, 0}";
target = "{0, 1}";
}
);
layerId = "D5343206-61BD-433B-AB67-A494CBABC038";
paths = (
{
closed = 1;
nodes = (
"446 0 LINE",
"532 0 LINE",
"532 126 LINE",
"446 126 LINE"
);
}
);
width = 512;
}
);
unicode = FEAA;
},
{
color = 4;
glyphname = "reh-ar";
layers = (
{
anchors = (
{
name = bottom;
position = "{119, -330}";
},
{
name = top;
position = "{179, 550}";
}
);
color = 1;
hints = (
{
origin = "{0, 5}";
target = "{0, 2}";
},
{
horizontal = 1;
origin = "{0, 4}";
target = down;
type = TopGhost;
},
{
horizontal = 1;
origin = "{0, 9}";
target = up;
type = BottomGhost;
}
);
layerId = "D5343206-61BD-433B-AB67-A494CBABC038";
paths = (
{
closed = 1;
nodes = (
"188 -216 OFFCURVE",
"236 -136 OFFCURVE",
"236 11 CURVE SMOOTH",
"236 470 LINE",
"124 470 LINE",
"124 11 LINE SMOOTH",
"124 -94 OFFCURVE",
"102 -134 OFFCURVE",
"24 -170 CURVE",
"68 -269 LINE"
);
}
);
width = 323;
}
);
unicode = 0631;
},
{
color = 4;
glyphname = "reh-ar.fina";
layers = (
{
anchors = (
{
name = bottom;
position = "{119, -330}";
},
{
name = entry;
position = "{322, 63}";
},
{
name = top;
position = "{178, 550}";
}
);
components = (
{
name = "reh-ar";
}
);
hints = (
{
horizontal = 1;
origin = "{0, 0}";
target = "{0, 3}";
}
);
layerId = "D5343206-61BD-433B-AB67-A494CBABC038";
paths = (
{
closed = 1;
nodes = (
"234 0 LINE",
"342 0 LINE",
"342 126 LINE",
"234 126 LINE"
);
}
);
width = 322;
}
);
unicode = FEAE;
},
{
color = 4;
glyphname = "seen-ar";
layers = (
{
anchors = (
{
name = bottom;
position = "{926, -80}";
},
{
name = top;
position = "{856, 550}";
}
);
color = 1;
hints = (
{
horizontal = 1;
origin = "{0, 22}";
target = "{0, 9}";
},
{
horizontal = 1;
origin = "{2, 10}";
target = "{2, 9}";
},
{
origin = "{0, 19}";
target = "{0, 12}";
},
{
origin = "{0, 5}";
target = "{0, 2}";
},
{
origin = "{2, 5}";
target = "{1, 16}";
},
{
origin = "{1, 9}";
target = "{1, 2}";
},
{
horizontal = 1;
origin = "{0, 4}";
target = down;
type = TopGhost;
},
{
horizontal = 1;
origin = "{1, 5}";
target = down;
type = TopGhost;
}
);
layerId = "D5343206-61BD-433B-AB67-A494CBABC038";
paths = (
{
closed = 1;
nodes = (
"540 -240 OFFCURVE",
"582 -195 OFFCURVE",
"582 -18 CURVE SMOOTH",
"582 380 LINE",
"470 380 LINE",
"470 -61 LINE SMOOTH",
"470 -104 OFFCURVE",
"436 -114 OFFCURVE",
"351 -114 CURVE SMOOTH",
"189 -114 LINE",
"181 -76 OFFCURVE",
"178 -38 OFFCURVE",
"178 16 CURVE SMOOTH",
"178 71 OFFCURVE",
"190 130 OFFCURVE",
"206 193 CURVE",
"95 210 LINE",
"75 149 OFFCURVE",
"66 68 OFFCURVE",
"66 -6 CURVE SMOOTH",
"66 -193 OFFCURVE",
"104 -240 OFFCURVE",
"314 -240 CURVE SMOOTH"
);
},
{
closed = 1;
nodes = (
"1172 0 OFFCURVE",
"1229 58 OFFCURVE",
"1229 263 CURVE SMOOTH",
"1229 328 OFFCURVE",
"1219 411 OFFCURVE",
"1201 469 CURVE",
"1090 451 LINE",
"1107 382 OFFCURVE",
"1117 317 OFFCURVE",
"1117 257 CURVE SMOOTH",
"1117 202 OFFCURVE",
"1115 162 OFFCURVE",
"1107 126 CURVE",
"982 126 LINE SMOOTH",
"930 126 OFFCURVE",
"906 136 OFFCURVE",
"906 179 CURVE SMOOTH",
"906 380 LINE",
"794 380 LINE",
"794 217 LINE SMOOTH",
"794 43 OFFCURVE",
"831 0 OFFCURVE",
"1015 0 CURVE SMOOTH"
);
},
{
closed = 1;
nodes = (
"870 0 OFFCURVE",
"905 43 OFFCURVE",
"905 217 CURVE SMOOTH",
"905 380 LINE",
"793 380 LINE",
"793 179 LINE SMOOTH",
"793 136 OFFCURVE",
"769 126 OFFCURVE",
"717 126 CURVE SMOOTH",
"582 126 LINE",
"582 0 LINE",
"672 0 LINE SMOOTH"
);
}
);
width = 1309;
}
);
unicode = 0633;
},
{
color = 4;
glyphname = "seen-ar.fina";
layers = (
{
anchors = (
{
name = bottom;
position = "{926, -80}";
},
{
name = entry;
position = "{1317, 63}";
},
{
name = top;
position = "{856, 550}";
}
);
color = 1;
components = (
{
name = "seen-ar";
}
);
hints = (
{
horizontal = 1;
origin = "{0, 0}";
target = "{0, 3}";
}
);
layerId = "D5343206-61BD-433B-AB67-A494CBABC038";
paths = (
{
closed = 1;
nodes = (
"1015 0 LINE",
"1337 0 LINE",
"1337 126 LINE",
"1154 126 LINE"
);
}
);
width = 1317;
}
);
unicode = FEB2;
},
{
color = 4;
glyphname = "seen-ar.medi";
layers = (
{
anchors = (
{
name = bottom;
position = "{521, -80}";
},
{
name = entry;
position = "{983, 63}";
},
{
name = exit;
position = "{0, 63}";
},
{
name = top;
position = "{521, 550}";
}
);
hints = (
{
horizontal = 1;
origin = "{2, 4}";
target = "{2, 3}";
},
{
origin = "{2, 2}";
target = "{1, 10}";
},
{
origin = "{1, 5}";
target = "{0, 16}";
},
{
origin = "{0, 9}";
target = "{0, 2}";
},
{
horizontal = 1;
origin = "{2, 1}";
target = down;
type = TopGhost;
},
{
horizontal = 1;
origin = "{0, 5}";
target = down;
type = TopGhost;
}
);
layerId = "D5343206-61BD-433B-AB67-A494CBABC038";
paths = (
{
closed = 1;
nodes = (
"835 0 OFFCURVE",
"894 58 OFFCURVE",
"894 263 CURVE SMOOTH",
"894 328 OFFCURVE",
"884 411 OFFCURVE",
"866 469 CURVE",
"755 451 LINE",
"772 382 OFFCURVE",
"782 317 OFFCURVE",
"782 257 CURVE SMOOTH",
"782 202 OFFCURVE",
"780 162 OFFCURVE",
"772 126 CURVE",
"647 126 LINE SMOOTH",
"595 126 OFFCURVE",
"571 136 OFFCURVE",
"571 179 CURVE SMOOTH",
"571 380 LINE",
"459 380 LINE",
"459 217 LINE SMOOTH",
"459 43 OFFCURVE",
"495 0 OFFCURVE",
"676 0 CURVE SMOOTH"
);
},
{
closed = 1;
nodes = (
"536 0 OFFCURVE",
"571 43 OFFCURVE",
"571 217 CURVE SMOOTH",
"571 380 LINE",
"459 380 LINE",
"459 179 LINE SMOOTH",
"459 136 OFFCURVE",
"435 126 OFFCURVE",
"383 126 CURVE SMOOTH",
"248 126 LINE",
"248 0 LINE",
"338 0 LINE"
);
},
{
closed = 1;
nodes = (
"248 380 LINE",
"136 380 LINE",
"136 126 LINE",
"-20 126 LINE",
"-20 0 LINE",
"248 0 LINE"
);
},
{
closed = 1;
nodes = (
"676 0 LINE",
"1002 0 LINE",
"1002 126 LINE",
"819 126 LINE"
);
}
);
width = 983;
}
);
unicode = FEB4;
},
{
color = 4;
glyphname = "seen-ar.init";
layers = (
{
anchors = (
{
name = bottom;
position = "{521, -80}";
},
{
name = exit;
position = "{0, 63}";
},
{
name = top;
position = "{521, 550}";
}
);
hints = (
{
horizontal = 1;
origin = "{2, 4}";
target = "{2, 3}";
},
{
origin = "{2, 2}";
target = "{1, 10}";
},
{
origin = "{1, 5}";
target = "{0, 16}";
},
{
origin = "{0, 9}";
target = "{0, 2}";
}
);
layerId = "D5343206-61BD-433B-AB67-A494CBABC038";
paths = (
{
closed = 1;
nodes = (
"837 0 OFFCURVE",
"894 58 OFFCURVE",
"894 263 CURVE SMOOTH",
"894 328 OFFCURVE",
"884 411 OFFCURVE",
"866 469 CURVE",
"755 451 LINE",
"772 382 OFFCURVE",
"782 317 OFFCURVE",
"782 257 CURVE SMOOTH",
"782 202 OFFCURVE",
"780 162 OFFCURVE",
"772 126 CURVE",
"647 126 LINE SMOOTH",
"595 126 OFFCURVE",
"571 136 OFFCURVE",
"571 179 CURVE SMOOTH",
"571 380 LINE",
"459 380 LINE",
"459 217 LINE SMOOTH",
"459 43 OFFCURVE",
"496 0 OFFCURVE",
"680 0 CURVE SMOOTH"
);
},
{
closed = 1;
nodes = (
"536 0 OFFCURVE",
"571 43 OFFCURVE",
"571 217 CURVE SMOOTH",
"571 380 LINE",
"459 380 LINE",
"459 179 LINE SMOOTH",
"459 136 OFFCURVE",
"435 126 OFFCURVE",
"383 126 CURVE SMOOTH",
"248 126 LINE",
"248 0 LINE",
"338 0 LINE SMOOTH"
);
},
{
closed = 1;
nodes = (
"248 380 LINE",
"136 380 LINE",
"136 126 LINE",
"-20 126 LINE",
"-20 0 LINE",
"248 0 LINE"
);
}
);
width = 975;
}
);
unicode = FEB3;
},
{
color = 4;
glyphname = "sad-ar";
layers = (
{
anchors = (
{
name = bottom;
position = "{847, -80}";
},
{
name = top;
position = "{847, 550}";
}
);
color = 1;
hints = (
{
horizontal = 1;
origin = "{0, 22}";
target = "{0, 9}";
},
{
horizontal = 1;
origin = "{1, 1}";
target = "{1, 0}";
},
{
horizontal = 1;
origin = "{2, 4}";
target = "{2, 14}";
},
{
horizontal = 1;
origin = "{2, 9}";
target = down;
type = TopGhost;
},
{
origin = "{0, 19}";
target = "{0, 12}";
},
{
origin = "{0, 5}";
target = "{0, 2}";
},
{
origin = "{2, 18}";
target = "{1, 2}";
},
{
horizontal = 1;
origin = "{2, 9}";
target = down;
type = TopGhost;
},
{
horizontal = 1;
origin = "{0, 16}";
target = down;
type = TopGhost;
}
);
layerId = "D5343206-61BD-433B-AB67-A494CBABC038";
paths = (
{
closed = 1;
nodes = (
"540 -240 OFFCURVE",
"582 -195 OFFCURVE",
"582 -18 CURVE SMOOTH",
"582 82 LINE",
"470 82 LINE",
"470 -61 LINE SMOOTH",
"470 -104 OFFCURVE",
"436 -114 OFFCURVE",
"351 -114 CURVE SMOOTH",
"189 -114 LINE",
"181 -76 OFFCURVE",
"178 -38 OFFCURVE",
"178 16 CURVE SMOOTH",
"178 71 OFFCURVE",
"190 130 OFFCURVE",
"206 193 CURVE",
"95 210 LINE",
"75 149 OFFCURVE",
"66 68 OFFCURVE",
"66 -6 CURVE SMOOTH",
"66 -193 OFFCURVE",
"104 -240 OFFCURVE",
"314 -240 CURVE SMOOTH"
);
},
{
closed = 1;
nodes = (
"535 126 LINE",
"535 0 LINE",
"1074 0 LINE",
"1021 126 LINE"
);
},
{
closed = 1;
nodes = (
"1074 0 LINE",
"1074 332 LINE SMOOTH",
"1074 445 OFFCURVE",
"1032 480 OFFCURVE",
"896 480 CURVE SMOOTH",
"744 480 OFFCURVE",
"625 416 OFFCURVE",
"582 309 CURVE",
"582 470 LINE",
"470 470 LINE",
"470 82 LINE",
"582 82 LINE",
"582 265 OFFCURVE",
"669 354 OFFCURVE",
"847 354 CURVE SMOOTH",
"900 354 OFFCURVE",
"940 350 OFFCURVE",
"962 343 CURVE",
"962 0 LINE"
);
}
);
width = 1160;
}
);
unicode = 0635;
},
{
color = 4;
glyphname = "sad-ar.fina";
layers = (
{
anchors = (
{
name = bottom;
position = "{847, -80}";
},
{
name = entry;
position = "{1163, 63}";
},
{
name = top;
position = "{847, 550}";
}
);
color = 1;
components = (
{
name = "sad-ar";
}
);
hints = (
{
horizontal = 1;
origin = "{0, 0}";
target = "{0, 3}";
}
);
layerId = "D5343206-61BD-433B-AB67-A494CBABC038";
paths = (
{
closed = 1;
nodes = (
"1074 0 LINE",
"1183 0 LINE",
"1183 126 LINE",
"1074 126 LINE"
);
}
);
width = 1163;
}
);
unicode = FEBA;
},
{
color = 4;
glyphname = "sad-ar.medi";
layers = (
{
anchors = (
{
name = bottom;
position = "{482, -80}";
},
{
name = entry;
position = "{828, 63}";
},
{
name = exit;
position = "{0, 63}";
},
{
name = top;
position = "{482, 550}";
}
);
color = 1;
hints = (
{
horizontal = 1;
origin = "{0, 1}";
target = "{0, 0}";
},
{
horizontal = 1;
origin = "{1, 4}";
target = "{1, 14}";
},
{
horizontal = 1;
origin = "{1, 9}";
target = down;
type = TopGhost;
},
{
origin = "{1, 10}";
target = "{1, 11}";
},
{
origin = "{1, 18}";
target = "{1, 0}";
}
);
layerId = "D5343206-61BD-433B-AB67-A494CBABC038";
paths = (
{
closed = 1;
nodes = (
"-20 126 LINE",
"-20 0 LINE",
"848 0 LINE",
"848 126 LINE"
);
},
{
closed = 1;
nodes = (
"740 82 LINE",
"740 332 LINE SMOOTH",
"740 445 OFFCURVE",
"698 480 OFFCURVE",
"562 480 CURVE SMOOTH",
"410 480 OFFCURVE",
"291 416 OFFCURVE",
"248 309 CURVE",
"248 470 LINE",
"136 470 LINE",
"136 82 LINE",
"248 82 LINE",
"248 265 OFFCURVE",
"335 354 OFFCURVE",
"513 354 CURVE SMOOTH",
"566 354 OFFCURVE",
"606 350 OFFCURVE",
"628 343 CURVE",
"628 82 LINE"
);
}
);
width = 828;
}
);
unicode = FEBC;
},
{
color = 4;
glyphname = "sad-ar.init";
layers = (
{
anchors = (
{
name = bottom;
position = "{482, -80}";
},
{
name = exit;
position = "{0, 63}";
},
{
name = top;
position = "{482, 550}";
}
);
color = 1;
hints = (
{
horizontal = 1;
origin = "{0, 1}";
target = "{0, 0}";
},
{
horizontal = 1;
origin = "{1, 4}";
target = "{1, 14}";
},
{
horizontal = 1;
origin = "{1, 9}";
target = down;
type = TopGhost;
},
{
origin = "{1, 10}";
target = "{1, 11}";
},
{
origin = "{1, 18}";
target = "{0, 2}";
}
);
layerId = "D5343206-61BD-433B-AB67-A494CBABC038";
paths = (
{
closed = 1;
nodes = (
"-20 126 LINE",
"-20 0 LINE",
"740 0 LINE",
"740 126 LINE"
);
},
{
closed = 1;
nodes = (
"740 0 LINE",
"740 332 LINE SMOOTH",
"740 445 OFFCURVE",
"698 480 OFFCURVE",
"562 480 CURVE SMOOTH",
"410 480 OFFCURVE",
"291 416 OFFCURVE",
"248 309 CURVE",
"248 470 LINE",
"136 470 LINE",
"136 82 LINE",
"248 82 LINE",
"248 265 OFFCURVE",
"335 354 OFFCURVE",
"513 354 CURVE SMOOTH",
"566 354 OFFCURVE",
"606 350 OFFCURVE",
"628 343 CURVE",
"628 0 LINE"
);
}
);
width = 825;
}
);
unicode = FEBB;
},
{
color = 4;
glyphname = "tah-ar";
layers = (
{
anchors = (
{
name = bottom;
position = "{482, -80}";
},
{
name = top;
position = "{500, 550}";
}
);
color = 1;
hints = (
{
horizontal = 1;
origin = "{0, 1}";
target = "{0, 0}";
},
{
horizontal = 1;
origin = "{1, 4}";
target = "{1, 14}";
},
{
horizontal = 1;
origin = "{1, 9}";
target = down;
type = TopGhost;
},
{
origin = "{1, 10}";
target = "{1, 11}";
},
{
origin = "{1, 18}";
target = "{0, 2}";
}
);
layerId = "D5343206-61BD-433B-AB67-A494CBABC038";
paths = (
{
closed = 1;
nodes = (
"20 126 LINE",
"20 0 LINE",
"740 0 LINE",
"740 126 LINE"
);
},
{
closed = 1;
nodes = (
"740 0 LINE",
"740 332 LINE SMOOTH",
"740 445 OFFCURVE",
"698 480 OFFCURVE",
"562 480 CURVE SMOOTH",
"410 480 OFFCURVE",
"291 416 OFFCURVE",
"248 309 CURVE",
"248 630 LINE",
"136 630 LINE",
"136 82 LINE",
"248 82 LINE",
"248 265 OFFCURVE",
"335 354 OFFCURVE",
"513 354 CURVE SMOOTH",
"566 354 OFFCURVE",
"606 350 OFFCURVE",
"628 343 CURVE",
"628 0 LINE"
);
}
);
width = 823;
}
);
unicode = 0637;
},
{
color = 4;
glyphname = "tah-ar.fina";
layers = (
{
anchors = (
{
name = bottom;
position = "{433, -80}";
},
{
name = entry;
position = "{828, 63}";
},
{
name = top;
position = "{528, 550}";
}
);
color = 1;
components = (
{
name = "tah-ar";
}
);
hints = (
{
horizontal = 1;
origin = "{0, 0}";
target = "{0, 3}";
}
);
layerId = "D5343206-61BD-433B-AB67-A494CBABC038";
paths = (
{
closed = 1;
nodes = (
"740 0 LINE",
"848 0 LINE",
"848 126 LINE",
"740 126 LINE"
);
}
);
width = 828;
}
);
leftMetricsKey = "tah-ar";
unicode = FEC2;
},
{
color = 4;
glyphname = "tah-ar.medi";
layers = (
{
anchors = (
{
name = bottom;
position = "{433, -80}";
},
{
name = entry;
position = "{828, 63}";
},
{
name = exit;
position = "{0, 63}";
},
{
name = top;
position = "{528, 550}";
}
);
color = 1;
hints = (
{
horizontal = 1;
origin = "{0, 1}";
target = "{0, 0}";
},
{
horizontal = 1;
origin = "{1, 4}";
target = "{1, 14}";
},
{
horizontal = 1;
origin = "{1, 9}";
target = down;
type = TopGhost;
},
{
origin = "{1, 10}";
target = "{1, 11}";
},
{
origin = "{1, 18}";
target = "{1, 0}";
}
);
layerId = "D5343206-61BD-433B-AB67-A494CBABC038";
paths = (
{
closed = 1;
nodes = (
"-20 126 LINE",
"-20 0 LINE",
"848 0 LINE",
"848 126 LINE"
);
},
{
closed = 1;
nodes = (
"740 0 LINE",
"740 332 LINE SMOOTH",
"740 445 OFFCURVE",
"698 480 OFFCURVE",
"562 480 CURVE SMOOTH",
"410 480 OFFCURVE",
"291 416 OFFCURVE",
"248 309 CURVE",
"248 630 LINE",
"136 630 LINE",
"136 82 LINE",
"248 82 LINE",
"248 265 OFFCURVE",
"335 354 OFFCURVE",
"513 354 CURVE SMOOTH",
"566 354 OFFCURVE",
"606 350 OFFCURVE",
"628 343 CURVE",
"628 0 LINE"
);
}
);
width = 828;
}
);
unicode = FEC4;
},
{
color = 4;
glyphname = "tah-ar.init";
layers = (
{
anchors = (
{
name = bottom;
position = "{433, -80}";
},
{
name = exit;
position = "{0, 63}";
},
{
name = top;
position = "{528, 550}";
}
);
color = 1;
hints = (
{
horizontal = 1;
origin = "{0, 1}";
target = "{0, 0}";
},
{
horizontal = 1;
origin = "{1, 4}";
target = "{1, 14}";
},
{
horizontal = 1;
origin = "{1, 9}";
target = down;
type = TopGhost;
},
{
origin = "{1, 10}";
target = "{1, 11}";
},
{
origin = "{0, 2}";
target = "{1, 0}";
}
);
layerId = "D5343206-61BD-433B-AB67-A494CBABC038";
paths = (
{
closed = 1;
nodes = (
"-20 126 LINE",
"-20 0 LINE",
"628 0 LINE",
"628 126 LINE"
);
},
{
closed = 1;
nodes = (
"740 0 LINE",
"740 332 LINE SMOOTH",
"740 445 OFFCURVE",
"698 480 OFFCURVE",
"562 480 CURVE SMOOTH",
"410 480 OFFCURVE",
"291 416 OFFCURVE",
"248 309 CURVE",
"248 630 LINE",
"136 630 LINE",
"136 82 LINE",
"248 82 LINE",
"248 265 OFFCURVE",
"335 354 OFFCURVE",
"513 354 CURVE SMOOTH",
"566 354 OFFCURVE",
"606 350 OFFCURVE",
"628 343 CURVE",
"628 0 LINE"
);
}
);
width = 825;
}
);
unicode = FEC3;
},
{
color = 4;
glyphname = "ain-ar";
layers = (
{
anchors = (
{
name = bottom;
position = "{268, -420}";
},
{
name = top;
position = "{325, 550}";
}
);
hints = (
{
horizontal = 1;
origin = "{1, 20}";
target = "{1, 6}";
},
{
horizontal = 1;
origin = "{1, 13}";
target = "{1, 14}";
},
{
horizontal = 1;
origin = "{0, 9}";
target = "{0, 2}";
},
{
origin = "{0, 12}";
target = "{0, 16}";
},
{
origin = "{1, 17}";
target = "{1, 9}";
}
);
layerId = "D5343206-61BD-433B-AB67-A494CBABC038";
paths = (
{
closed = 1;
nodes = (
"263 352 OFFCURVE",
"295 355 OFFCURVE",
"337 355 CURVE SMOOTH",
"386 355 OFFCURVE",
"434 348 OFFCURVE",
"493 334 CURVE",
"511 453 LINE",
"457 471 OFFCURVE",
"391 481 OFFCURVE",
"327 481 CURVE SMOOTH",
"166 481 OFFCURVE",
"122 425 OFFCURVE",
"122 243 CURVE SMOOTH",
"122 145 OFFCURVE",
"137 83 OFFCURVE",
"176 49 CURVE",
"237 103 LINE",
"237 346 LINE"
);
},
{
closed = 1;
nodes = (
"343 -331 OFFCURVE",
"424 -321 OFFCURVE",
"482 -301 CURVE",
"468 -182 LINE",
"397 -199 OFFCURVE",
"346 -205 OFFCURVE",
"290 -205 CURVE SMOOTH",
"240 -205 OFFCURVE",
"192 -202 OFFCURVE",
"162 -197 CURVE",
"162 -67 LINE SMOOTH",
"162 22 OFFCURVE",
"258 58 OFFCURVE",
"471 58 CURVE",
"471 163 LINE",
"165 163 OFFCURVE",
"47 92 OFFCURVE",
"47 -92 CURVE SMOOTH",
"47 -279 OFFCURVE",
"92 -331 OFFCURVE",
"257 -331 CURVE SMOOTH"
);
}
);
width = 579;
}
);
unicode = 0639;
},
{
color = 4;
glyphname = "ain-ar.fina";
layers = (
{
anchors = (
{
name = bottom;
position = "{268, -420}";
},
{
name = entry;
position = "{666, 63}";
},
{
name = top;
position = "{333, 550}";
}
);
hints = (
{
horizontal = 1;
origin = "{0, 2}";
target = "{0, 9}";
},
{
horizontal = 1;
origin = "{0, 19}";
target = "{0, 22}";
},
{
horizontal = 1;
origin = "{0, 31}";
target = "{1, 6}";
},
{
origin = "{0, 40}";
target = "{0, 12}";
},
{
origin = "{1, 0}";
target = "{0, 28}";
},
{
origin = "{0, 34}";
target = "{1, 6}";
}
);
layerId = "D5343206-61BD-433B-AB67-A494CBABC038";
paths = (
{
closed = 1;
nodes = (
"47 -263 OFFCURVE",
"99 -317 OFFCURVE",
"257 -317 CURVE SMOOTH",
"351 -317 OFFCURVE",
"428 -310 OFFCURVE",
"483 -292 CURVE",
"468 -168 LINE",
"395 -185 OFFCURVE",
"345 -191 OFFCURVE",
"290 -191 CURVE SMOOTH",
"241 -191 OFFCURVE",
"194 -188 OFFCURVE",
"162 -183 CURVE",
"162 -63 LINE SMOOTH",
"162 -33 OFFCURVE",
"241 0 OFFCURVE",
"332 33 CURVE",
"391 12 OFFCURVE",
"456 0 OFFCURVE",
"526 0 CURVE SMOOTH",
"686 0 LINE",
"686 126 LINE",
"577 126 LINE SMOOTH",
"544 126 OFFCURVE",
"512 128 OFFCURVE",
"483 132 CURVE",
"547 186 OFFCURVE",
"598 262 OFFCURVE",
"598 374 CURVE SMOOTH",
"598 454 OFFCURVE",
"530 482 OFFCURVE",
"333 482 CURVE SMOOTH",
"136 482 OFFCURVE",
"68 454 OFFCURVE",
"68 374 CURVE SMOOTH",
"68 264 OFFCURVE",
"123 167 OFFCURVE",
"212 100 CURVE",
"96 51 OFFCURVE",
"47 4 OFFCURVE",
"47 -122 CURVE SMOOTH"
);
},
{
closed = 1;
nodes = (
"486 356 LINE",
"486 253 OFFCURVE",
"435 182 OFFCURVE",
"332 146 CURVE",
"242 176 OFFCURVE",
"180 238 OFFCURVE",
"180 356 CURVE"
);
}
);
width = 666;
}
);
unicode = FECA;
},
{
color = 4;
glyphname = "ain-ar.medi";
layers = (
{
anchors = (
{
name = bottom;
position = "{333, -80}";
},
{
name = entry;
position = "{666, 63}";
},
{
name = exit;
position = "{0, 63}";
},
{
name = top;
position = "{333, 550}";
}
);
hints = (
{
horizontal = 1;
origin = "{2, 0}";
target = "{2, 3}";
},
{
horizontal = 1;
origin = "{1, 10}";
target = "{1, 20}";
},
{
origin = "{1, 13}";
target = "{1, 20}";
},
{
origin = "{1, 0}";
target = "{1, 7}";
}
);
layerId = "D5343206-61BD-433B-AB67-A494CBABC038";
paths = (
{
closed = 1;
nodes = (
"526 0 LINE",
"686 0 LINE",
"686 126 LINE",
"526 126 LINE"
);
},
{
closed = 1;
nodes = (
"486 356 LINE",
"486 204 OFFCURVE",
"375 126 OFFCURVE",
"140 126 CURVE",
"140 0 LINE",
"397 0 OFFCURVE",
"598 164 OFFCURVE",
"598 374 CURVE SMOOTH",
"598 454 OFFCURVE",
"530 482 OFFCURVE",
"333 482 CURVE SMOOTH",
"137 482 OFFCURVE",
"68 454 OFFCURVE",
"68 374 CURVE SMOOTH",
"68 165 OFFCURVE",
"270 0 OFFCURVE",
"526 0 CURVE",
"526 126 LINE",
"291 126 OFFCURVE",
"180 204 OFFCURVE",
"180 356 CURVE"
);
},
{
closed = 1;
nodes = (
"-20 0 LINE",
"140 0 LINE",
"140 126 LINE",
"-20 126 LINE"
);
}
);
width = 666;
}
);
unicode = FECC;
},
{
color = 4;
glyphname = "ain-ar.init";
layers = (
{
anchors = (
{
name = bottom;
position = "{325, -86}";
},
{
name = exit;
position = "{0, 63}";
},
{
name = top;
position = "{325, 550}";
}
);
color = 1;
hints = (
{
horizontal = 1;
origin = "{0, 3}";
target = "{0, 2}";
},
{
horizontal = 1;
origin = "{1, 9}";
target = "{1, 2}";
},
{
origin = "{1, 12}";
target = "{1, 21}";
}
);
layerId = "D5343206-61BD-433B-AB67-A494CBABC038";
paths = (
{
closed = 1;
nodes = (
"324 0 LINE",
"237 126 LINE",
"-20 126 LINE",
"-20 0 LINE"
);
},
{
closed = 1;
nodes = (
"253 352 OFFCURVE",
"285 355 OFFCURVE",
"327 355 CURVE SMOOTH",
"376 355 OFFCURVE",
"424 348 OFFCURVE",
"483 334 CURVE",
"501 453 LINE",
"447 471 OFFCURVE",
"381 481 OFFCURVE",
"317 481 CURVE SMOOTH",
"156 481 OFFCURVE",
"112 425 OFFCURVE",
"112 243 CURVE SMOOTH",
"112 59 OFFCURVE",
"159 0 OFFCURVE",
"321 0 CURVE",
"544 0 LINE",
"544 126 LINE",
"304 126 LINE SMOOTH",
"251 126 OFFCURVE",
"226 143 OFFCURVE",
"227 188 CURVE SMOOTH",
"227 346 LINE"
);
}
);
width = 589;
}
);
unicode = FECB;
},
{
color = 4;
glyphname = "dotlessfeh-ar";
layers = (
{
anchors = (
{
name = bottom;
position = "{506, -80}";
},
{
name = top;
position = "{716, 550}";
}
);
color = 1;
hints = (
{
horizontal = 1;
origin = "{0, 24}";
target = "{0, 11}";
},
{
horizontal = 1;
origin = "{0, 4}";
target = "{1, 4}";
},
{
origin = "{0, 21}";
target = "{0, 14}";
},
{
origin = "{0, 7}";
target = "{1, 0}";
},
{
origin = "{1, 6}";
target = "{0, 0}";
},
{
horizontal = 1;
origin = "{0, 18}";
target = down;
type = TopGhost;
}
);
layerId = "D5343206-61BD-433B-AB67-A494CBABC038";
paths = (
{
closed = 1;
nodes = (
"912 0 LINE",
"912 447 LINE",
"834 473 OFFCURVE",
"774 482 OFFCURVE",
"691 482 CURVE SMOOTH",
"516 482 OFFCURVE",
"461 428 OFFCURVE",
"461 276 CURVE SMOOTH",
"461 206 OFFCURVE",
"464 167 OFFCURVE",
"475 126 CURVE",
"189 126 LINE",
"178 158 OFFCURVE",
"174 193 OFFCURVE",
"174 242 CURVE SMOOTH",
"174 285 OFFCURVE",
"182 332 OFFCURVE",
"199 383 CURVE",
"92 400 LINE",
"73 346 OFFCURVE",
"62 276 OFFCURVE",
"62 213 CURVE SMOOTH",
"62 61 OFFCURVE",
"107 0 OFFCURVE",
"218 0 CURVE SMOOTH"
);
},
{
closed = 1;
nodes = (
"580 126 LINE",
"580 305 LINE SMOOTH",
"580 343 OFFCURVE",
"590 353 OFFCURVE",
"623 353 CURVE SMOOTH",
"800 353 LINE",
"800 171 LINE SMOOTH",
"800 137 OFFCURVE",
"790 126 OFFCURVE",
"757 126 CURVE SMOOTH"
);
}
);
width = 1000;
}
);
unicode = 06A1;
},
{
color = 4;
glyphname = "dotlessfeh-ar.fina";
layers = (
{
anchors = (
{
name = bottom;
position = "{506, -96}";
},
{
name = entry;
position = "{1000, 63}";
},
{
name = top;
position = "{716, 550}";
}
);
color = 1;
components = (
{
name = "dotlessfeh-ar";
}
);
hints = (
{
horizontal = 1;
origin = "{0, 0}";
target = "{0, 3}";
}
);
layerId = "D5343206-61BD-433B-AB67-A494CBABC038";
paths = (
{
closed = 1;
nodes = (
"912 0 LINE",
"1020 0 LINE",
"1020 126 LINE",
"912 126 LINE"
);
}
);
width = 1000;
}
);
},
{
color = 4;
glyphname = "dotlessfeh-ar.medi";
layers = (
{
anchors = (
{
name = bottom;
position = "{349, -80}";
},
{
name = entry;
position = "{659, 63}";
},
{
name = exit;
position = "{0, 63}";
},
{
name = top;
position = "{349, 550}";
}
);
components = (
{
name = "dotlessfeh-ar.init";
}
);
hints = (
{
horizontal = 1;
origin = "{0, 0}";
target = "{0, 3}";
}
);
layerId = "D5343206-61BD-433B-AB67-A494CBABC038";
paths = (
{
closed = 1;
nodes = (
"571 0 LINE",
"679 0 LINE",
"679 126 LINE",
"571 126 LINE"
);
}
);
width = 659;
}
);
},
{
color = 4;
glyphname = "dotlessfeh-ar.init";
layers = (
{
anchors = (
{
name = bottom;
position = "{349, -80}";
},
{
name = exit;
position = "{0, 63}";
},
{
name = top;
position = "{349, 550}";
}
);
color = 2;
hints = (
{
horizontal = 1;
origin = "{0, 0}";
target = "{0, 12}";
},
{
horizontal = 1;
origin = "{0, 5}";
target = "{1, 4}";
},
{
origin = "{0, 8}";
target = "{1, 0}";
},
{
origin = "{1, 6}";
target = "{0, 1}";
}
);
layerId = "D5343206-61BD-433B-AB67-A494CBABC038";
paths = (
{
closed = 1;
nodes = (
"-20 0 LINE SMOOTH",
"571 0 LINE",
"571 447 LINE",
"493 473 OFFCURVE",
"432 482 OFFCURVE",
"349 482 CURVE SMOOTH",
"175 482 OFFCURVE",
"119 428 OFFCURVE",
"119 276 CURVE SMOOTH",
"119 206 OFFCURVE",
"123 167 OFFCURVE",
"133 126 CURVE",
"-20 126 LINE"
);
},
{
closed = 1;
nodes = (
"238 126 LINE",
"238 307 LINE SMOOTH",
"238 345 OFFCURVE",
"248 355 OFFCURVE",
"281 355 CURVE SMOOTH",
"458 355 LINE",
"458 171 LINE SMOOTH",
"458 137 OFFCURVE",
"448 126 OFFCURVE",
"415 126 CURVE SMOOTH"
);
}
);
width = 659;
}
);
},
{
color = 4;
glyphname = "dotlessqaf-ar";
layers = (
{
anchors = (
{
name = bottom;
position = "{446, -330}";
},
{
name = top;
position = "{595, 550}";
}
);
color = 1;
hints = (
{
horizontal = 1;
origin = "{0, 20}";
target = "{0, 7}";
},
{
horizontal = 1;
origin = "{1, 10}";
target = "{2, 0}";
},
{
horizontal = 1;
origin = "{1, 4}";
target = "{2, 4}";
},
{
origin = "{0, 17}";
target = "{0, 10}";
},
{
origin = "{1, 7}";
target = "{2, 0}";
},
{
origin = "{0, 6}";
target = "{0, 3}";
}
);
layerId = "D5343206-61BD-433B-AB67-A494CBABC038";
paths = (
{
closed = 1;
nodes = (
"630 -268 LINE SMOOTH",
"765 -268 OFFCURVE",
"819 -216 OFFCURVE",
"819 -86 CURVE SMOOTH",
"819 0 LINE",
"707 0 LINE",
"707 -142 LINE",
"182 -142 LINE",
"171 -100 OFFCURVE",
"168 -54 OFFCURVE",
"168 11 CURVE SMOOTH",
"168 65 OFFCURVE",
"176 124 OFFCURVE",
"193 188 CURVE",
"86 206 LINE",
"67 141 OFFCURVE",
"56 58 OFFCURVE",
"56 -19 CURVE SMOOTH",
"56 -198 OFFCURVE",
"101 -268 OFFCURVE",
"212 -268 CURVE SMOOTH"
);
},
{
closed = 1;
nodes = (
"818 0 LINE",
"818 447 LINE",
"750 473 OFFCURVE",
"689 482 OFFCURVE",
"597 482 CURVE SMOOTH",
"424 482 OFFCURVE",
"367 426 OFFCURVE",
"367 244 CURVE SMOOTH",
"367 60 OFFCURVE",
"412 0 OFFCURVE",
"542 0 CURVE SMOOTH"
);
},
{
closed = 1;
nodes = (
"486 126 LINE",
"486 308 LINE SMOOTH",
"486 346 OFFCURVE",
"498 356 OFFCURVE",
"537 356 CURVE SMOOTH",
"706 356 LINE",
"706 171 LINE SMOOTH",
"706 137 OFFCURVE",
"696 126 OFFCURVE",
"663 126 CURVE SMOOTH"
);
}
);
width = 907;
}
);
unicode = 066F;
},
{
color = 4;
glyphname = "dotlessqaf-ar.fina";
layers = (
{
anchors = (
{
name = bottom;
position = "{446, -330}";
},
{
name = entry;
position = "{907, 63}";
},
{
name = top;
position = "{595, 550}";
}
);
components = (
{
name = "dotlessqaf-ar";
}
);
hints = (
{
horizontal = 1;
origin = "{0, 0}";
target = "{0, 3}";
}
);
layerId = "D5343206-61BD-433B-AB67-A494CBABC038";
paths = (
{
closed = 1;
nodes = (
"819 0 LINE",
"927 0 LINE",
"927 126 LINE",
"819 126 LINE"
);
}
);
width = 907;
}
);
},
{
color = 4;
glyphname = "kaf-ar";
layers = (
{
anchors = (
{
name = bottom;
position = "{477, -80}";
},
{
name = top;
position = "{463, 690}";
}
);
color = 1;
components = (
{
name = "hamzaabove-ar";
transform = "{1, 0, 0, 1, 305, -200}";
}
);
hints = (
{
horizontal = 1;
origin = "{0, 12}";
target = "{0, 17}";
},
{
horizontal = 1;
origin = "{0, 15}";
target = down;
type = TopGhost;
},
{
origin = "{0, 9}";
target = "{0, 2}";
},
{
origin = "{0, 16}";
target = "{0, 13}";
},
{
horizontal = 1;
origin = "{0, 6}";
target = down;
type = TopGhost;
}
);
layerId = "D5343206-61BD-433B-AB67-A494CBABC038";
paths = (
{
closed = 1;
nodes = (
"178 158 OFFCURVE",
"174 193 OFFCURVE",
"174 242 CURVE SMOOTH",
"174 285 OFFCURVE",
"182 332 OFFCURVE",
"199 383 CURVE",
"92 400 LINE",
"73 346 OFFCURVE",
"62 276 OFFCURVE",
"62 213 CURVE SMOOTH",
"62 61 OFFCURVE",
"107 0 OFFCURVE",
"218 0 CURVE",
"812 0 LINE",
"812 630 LINE",
"700 630 LINE",
"700 126 LINE",
"189 126 LINE"
);
}
);
width = 892;
}
);
unicode = 0643;
},
{
color = 4;
glyphname = "kaf-ar.fina";
layers = (
{
anchors = (
{
name = bottom;
position = "{477, -80}";
},
{
name = entry;
position = "{900, 63}";
},
{
name = top;
position = "{463, 690}";
}
);
color = 1;
components = (
{
name = "kaf-ar";
}
);
hints = (
{
horizontal = 1;
origin = "{0, 0}";
target = "{0, 3}";
}
);
layerId = "D5343206-61BD-433B-AB67-A494CBABC038";
paths = (
{
closed = 1;
nodes = (
"812 0 LINE",
"920 0 LINE",
"920 126 LINE",
"812 126 LINE"
);
}
);
width = 900;
}
);
unicode = FEDA;
},
{
color = 4;
glyphname = "kaf-ar.medi";
layers = (
{
anchors = (
{
name = bottom;
position = "{359, -80}";
},
{
name = entry;
position = "{712, 63}";
},
{
name = exit;
position = "{1, 63}";
},
{
name = top;
position = "{359, 820}";
}
);
components = (
{
name = "kaf-ar.init";
}
);
hints = (
{
horizontal = 1;
origin = "{0, 0}";
target = "{0, 3}";
},
{
horizontal = 1;
place = "{187.8, 54}";
},
{
place = "{54.876, 52.524}";
},
{
place = "{307.2, 54}";
}
);
layerId = "D5343206-61BD-433B-AB67-A494CBABC038";
paths = (
{
closed = 1;
nodes = (
"624 0 LINE",
"732 0 LINE",
"732 126 LINE",
"624 126 LINE"
);
}
);
width = 712;
}
);
unicode = FEDC;
},
{
color = 4;
glyphname = "kaf-ar.init";
layers = (
{
anchors = (
{
name = bottom;
position = "{359, -80}";
},
{
name = exit;
position = "{1, 63}";
},
{
name = top;
position = "{359, 820}";
}
);
color = 1;
hints = (
{
horizontal = 1;
origin = "{0, 19}";
target = "{0, 18}";
},
{
horizontal = 1;
origin = "{0, 15}";
target = "{0, 5}";
},
{
origin = "{0, 12}";
target = "{0, 5}";
},
{
origin = "{0, 17}";
target = "{0, 0}";
},
{
horizontal = 1;
origin = "{0, 9}";
target = down;
type = TopGhost;
}
);
layerId = "D5343206-61BD-433B-AB67-A494CBABC038";
paths = (
{
closed = 1;
nodes = (
"624 0 LINE",
"624 280 LINE SMOOTH",
"624 392 OFFCURVE",
"591 426 OFFCURVE",
"478 426 CURVE SMOOTH",
"188 426 LINE",
"203 502 OFFCURVE",
"264 608 OFFCURVE",
"328 673 CURVE",
"237 723 LINE",
"153 641 OFFCURVE",
"84 496 OFFCURVE",
"84 402 CURVE SMOOTH",
"84 336 OFFCURVE",
"121 300 OFFCURVE",
"189 300 CURVE SMOOTH",
"512 300 LINE",
"512 126 LINE",
"-20 126 LINE",
"-20 0 LINE"
);
}
);
width = 712;
}
);
unicode = FEDB;
},
{
color = 4;
glyphname = "keheh-ar";
layers = (
{
anchors = (
{
name = bottom;
position = "{433, -80}";
},
{
name = top;
position = "{209, 665}";
}
);
hints = (
{
horizontal = 1;
origin = "{0, 31}";
target = "{0, 18}";
},
{
horizontal = 1;
origin = "{0, 15}";
target = "{0, 5}";
},
{
origin = "{0, 28}";
target = "{0, 21}";
},
{
origin = "{0, 17}";
target = "{0, 0}";
},
{
horizontal = 1;
origin = "{0, 9}";
target = down;
type = TopGhost;
},
{
horizontal = 1;
origin = "{0, 25}";
target = down;
type = TopGhost;
}
);
layerId = "D5343206-61BD-433B-AB67-A494CBABC038";
paths = (
{
closed = 1;
nodes = (
"776 0 LINE",
"776 280 LINE SMOOTH",
"776 392 OFFCURVE",
"743 426 OFFCURVE",
"630 426 CURVE SMOOTH",
"428 426 LINE",
"443 502 OFFCURVE",
"504 608 OFFCURVE",
"568 673 CURVE",
"477 723 LINE",
"393 641 OFFCURVE",
"324 496 OFFCURVE",
"324 402 CURVE SMOOTH",
"324 336 OFFCURVE",
"361 300 OFFCURVE",
"429 300 CURVE SMOOTH",
"664 300 LINE",
"664 126 LINE",
"189 126 LINE",
"178 158 OFFCURVE",
"174 193 OFFCURVE",
"174 242 CURVE SMOOTH",
"174 285 OFFCURVE",
"182 332 OFFCURVE",
"199 383 CURVE",
"92 400 LINE",
"73 346 OFFCURVE",
"62 276 OFFCURVE",
"62 213 CURVE SMOOTH",
"62 61 OFFCURVE",
"107 0 OFFCURVE",
"218 0 CURVE SMOOTH"
);
}
);
width = 864;
}
);
unicode = 06A9;
},
{
color = 4;
glyphname = "keheh-ar.fina";
layers = (
{
anchors = (
{
name = bottom;
position = "{437, -80}";
},
{
name = entry;
position = "{864, 64}";
},
{
name = top;
position = "{299, 697}";
}
);
components = (
{
name = "keheh-ar";
}
);
hints = (
{
horizontal = 1;
origin = "{0, 0}";
target = "{0, 3}";
}
);
layerId = "D5343206-61BD-433B-AB67-A494CBABC038";
paths = (
{
closed = 1;
nodes = (
"776 0 LINE",
"884 0 LINE",
"884 126 LINE",
"776 126 LINE"
);
}
);
width = 864;
}
);
unicode = FB8F;
},
{
color = 4;
glyphname = "lam-ar";
layers = (
{
anchors = (
{
name = bottom;
position = "{326, -330}";
},
{
name = top;
position = "{326, 700}";
}
);
hints = (
{
horizontal = 1;
origin = "{0, 12}";
target = "{0, 22}";
},
{
horizontal = 1;
origin = "{0, 17}";
target = down;
type = TopGhost;
},
{
origin = "{0, 9}";
target = "{0, 2}";
},
{
origin = "{0, 18}";
target = "{0, 15}";
},
{
horizontal = 1;
origin = "{0, 6}";
target = down;
type = TopGhost;
}
);
layerId = "D5343206-61BD-433B-AB67-A494CBABC038";
paths = (
{
closed = 1;
nodes = (
"181 -77 OFFCURVE",
"178 -38 OFFCURVE",
"178 16 CURVE SMOOTH",
"178 80 OFFCURVE",
"186 149 OFFCURVE",
"203 223 CURVE",
"98 240 LINE",
"78 171 OFFCURVE",
"66 78 OFFCURVE",
"66 -6 CURVE SMOOTH",
"66 -193 OFFCURVE",
"110 -240 OFFCURVE",
"314 -240 CURVE SMOOTH",
"540 -240 OFFCURVE",
"582 -195 OFFCURVE",
"582 -18 CURVE SMOOTH",
"582 633 LINE",
"470 633 LINE",
"470 -61 LINE SMOOTH",
"470 -104 OFFCURVE",
"436 -114 OFFCURVE",
"351 -114 CURVE SMOOTH",
"189 -114 LINE"
);
}
);
width = 671;
}
);
unicode = 0644;
},
{
color = 4;
glyphname = "lam-ar.fina";
layers = (
{
anchors = (
{
name = bottom;
position = "{326, -330}";
},
{
name = entry;
position = "{670, 63}";
},
{
name = top;
position = "{326, 700}";
}
);
components = (
{
name = "lam-ar";
}
);
hints = (
{
horizontal = 1;
origin = "{0, 0}";
target = "{0, 3}";
}
);
layerId = "D5343206-61BD-433B-AB67-A494CBABC038";
paths = (
{
closed = 1;
nodes = (
"582 0 LINE",
"690 0 LINE",
"690 126 LINE",
"582 126 LINE"
);
}
);
width = 670;
}
);
unicode = FEDE;
},
{
color = 4;
glyphname = "lam-ar.medi";
layers = (
{
anchors = (
{
name = bottom;
position = "{192, -80}";
},
{
name = entry;
position = "{336, 63}";
},
{
name = exit;
position = "{0, 63}";
},
{
name = top;
position = "{192, 730}";
}
);
color = 1;
hints = (
{
horizontal = 1;
origin = "{0, 4}";
target = "{0, 3}";
},
{
horizontal = 1;
origin = "{0, 1}";
target = down;
type = TopGhost;
},
{
origin = "{0, 2}";
target = "{0, 7}";
}
);
layerId = "D5343206-61BD-433B-AB67-A494CBABC038";
paths = (
{
closed = 1;
nodes = (
"248 630 LINE",
"136 630 LINE",
"136 126 LINE",
"-20 126 LINE",
"-20 0 LINE",
"356 0 LINE",
"356 126 LINE",
"248 126 LINE"
);
}
);
width = 336;
}
);
unicode = FEE0;
},
{
color = 4;
glyphname = "lam-ar.init";
layers = (
{
anchors = (
{
name = bottom;
position = "{192, -37}";
},
{
name = entry;
position = "{0, 63}";
},
{
name = top;
position = "{192, 730}";
}
);
color = 1;
hints = (
{
horizontal = 1;
origin = "{0, 4}";
target = "{0, 3}";
},
{
horizontal = 1;
origin = "{0, 1}";
target = down;
type = TopGhost;
},
{
origin = "{0, 2}";
target = "{0, 5}";
}
);
layerId = "D5343206-61BD-433B-AB67-A494CBABC038";
paths = (
{
closed = 1;
nodes = (
"248 630 LINE",
"136 630 LINE",
"136 126 LINE",
"-20 126 LINE",
"-20 0 LINE",
"248 0 LINE"
);
}
);
width = 336;
}
);
unicode = FEDF;
},
{
color = 4;
glyphname = "meem-ar";
layers = (
{
anchors = (
{
name = bottom;
position = "{374, -80}";
},
{
name = top;
position = "{374, 550}";
}
);
color = 1;
hints = (
{
horizontal = 1;
origin = "{0, 6}";
target = "{0, 23}";
},
{
horizontal = 1;
origin = "{0, 11}";
target = "{0, 18}";
},
{
origin = "{0, 26}";
target = "{0, 3}";
},
{
origin = "{0, 22}";
target = "{0, 7}";
},
{
origin = "{1, 10}";
target = "{1, 3}";
},
{
horizontal = 1;
origin = "{0, 29}";
target = up;
type = BottomGhost;
}
);
layerId = "D5343206-61BD-433B-AB67-A494CBABC038";
paths = (
{
closed = 1;
nodes = (
"154 -315 LINE",
"132 -233 OFFCURVE",
"124 -184 OFFCURVE",
"124 -138 CURVE SMOOTH",
"124 -77 OFFCURVE",
"129 -36 OFFCURVE",
"139 0 CURVE",
"585 0 LINE",
"585 334 LINE SMOOTH",
"585 440 OFFCURVE",
"530 482 OFFCURVE",
"390 482 CURVE SMOOTH",
"302 482 OFFCURVE",
"214 466 OFFCURVE",
"148 439 CURVE",
"191 331 LINE",
"252 347 OFFCURVE",
"319 356 OFFCURVE",
"378 356 CURVE SMOOTH",
"420 356 OFFCURVE",
"448 354 OFFCURVE",
"473 348 CURVE",
"473 126 LINE",
"154 126 LINE SMOOTH",
"53 126 OFFCURVE",
"12 58 OFFCURVE",
"12 -112 CURVE SMOOTH",
"12 -189 OFFCURVE",
"24 -272 OFFCURVE",
"44 -334 CURVE"
);
},
{
closed = 1;
nodes = (
"259 68 LINE",
"230 112 OFFCURVE",
"222 163 OFFCURVE",
"222 238 CURVE SMOOTH",
"222 295 OFFCURVE",
"237 346 OFFCURVE",
"260 412 CURVE",
"148 439 LINE",
"125 372 OFFCURVE",
"110 310 OFFCURVE",
"110 238 CURVE SMOOTH",
"110 156 OFFCURVE",
"120 84 OFFCURVE",
"159 41 CURVE"
);
}
);
width = 671;
}
);
unicode = 0645;
},
{
color = 4;
glyphname = "meem-ar.fina";
layers = (
{
anchors = (
{
name = bottom;
position = "{374, -80}";
},
{
name = entry;
position = "{673, 63}";
},
{
name = top;
position = "{374, 550}";
}
);
color = 1;
components = (
{
name = "meem-ar";
}
);
hints = (
{
horizontal = 1;
origin = "{0, 0}";
target = "{0, 3}";
}
);
layerId = "D5343206-61BD-433B-AB67-A494CBABC038";
paths = (
{
closed = 1;
nodes = (
"585 0 LINE",
"693 0 LINE",
"693 126 LINE",
"585 126 LINE"
);
}
);
width = 673;
}
);
unicode = FEE2;
},
{
color = 4;
glyphname = "meem-ar.medi";
layers = (
{
anchors = (
{
name = bottom;
position = "{374, -80}";
},
{
name = entry;
position = "{673, 63}";
},
{
name = exit;
position = "{0, 63}";
},
{
name = top;
position = "{374, 550}";
}
);
components = (
{
name = "meem-ar.init";
}
);
hints = (
{
horizontal = 1;
origin = "{0, 0}";
target = "{0, 3}";
}
);
layerId = "D5343206-61BD-433B-AB67-A494CBABC038";
paths = (
{
closed = 1;
nodes = (
"585 0 LINE",
"693 0 LINE",
"693 126 LINE",
"585 126 LINE"
);
}
);
width = 673;
}
);
unicode = FEE4;
},
{
color = 4;
glyphname = "meem-ar.init";
layers = (
{
anchors = (
{
name = bottom;
position = "{374, -80}";
},
{
name = exit;
position = "{0, 63}";
},
{
name = top;
position = "{374, 550}";
}
);
color = 1;
hints = (
{
horizontal = 1;
origin = "{0, 12}";
target = "{0, 11}";
},
{
horizontal = 1;
origin = "{0, 17}";
target = "{0, 6}";
},
{
origin = "{1, 10}";
target = "{1, 3}";
},
{
origin = "{0, 10}";
target = "{0, 14}";
}
);
layerId = "D5343206-61BD-433B-AB67-A494CBABC038";
paths = (
{
closed = 1;
nodes = (
"308 482 OFFCURVE",
"217 468 OFFCURVE",
"148 439 CURVE",
"191 331 LINE",
"253 348 OFFCURVE",
"321 356 OFFCURVE",
"378 356 CURVE SMOOTH",
"417 356 OFFCURVE",
"446 354 OFFCURVE",
"473 348 CURVE",
"473 126 LINE",
"-20 126 LINE",
"-20 0 LINE",
"585 0 LINE",
"585 334 LINE SMOOTH",
"585 440 OFFCURVE",
"530 482 OFFCURVE",
"390 482 CURVE SMOOTH"
);
},
{
closed = 1;
nodes = (
"259 68 LINE",
"230 112 OFFCURVE",
"222 163 OFFCURVE",
"222 238 CURVE SMOOTH",
"222 295 OFFCURVE",
"237 346 OFFCURVE",
"260 412 CURVE",
"148 439 LINE",
"125 372 OFFCURVE",
"110 310 OFFCURVE",
"110 238 CURVE SMOOTH",
"110 156 OFFCURVE",
"120 84 OFFCURVE",
"159 41 CURVE"
);
}
);
width = 668;
}
);
unicode = FEE3;
},
{
color = 4;
glyphname = "noonghunna-ar";
layers = (
{
anchors = (
{
name = bottom;
position = "{326, -330}";
},
{
name = top;
position = "{326, 550}";
}
);
hints = (
{
horizontal = 1;
origin = "{0, 12}";
target = "{0, 22}";
},
{
horizontal = 1;
origin = "{0, 17}";
target = down;
type = TopGhost;
},
{
origin = "{0, 9}";
target = "{0, 2}";
},
{
origin = "{0, 18}";
target = "{0, 15}";
},
{
horizontal = 1;
origin = "{0, 6}";
target = down;
type = TopGhost;
}
);
layerId = "D5343206-61BD-433B-AB67-A494CBABC038";
paths = (
{
closed = 1;
nodes = (
"181 -77 OFFCURVE",
"178 -38 OFFCURVE",
"178 16 CURVE SMOOTH",
"178 80 OFFCURVE",
"186 149 OFFCURVE",
"203 223 CURVE",
"98 240 LINE",
"78 171 OFFCURVE",
"66 78 OFFCURVE",
"66 -6 CURVE SMOOTH",
"66 -193 OFFCURVE",
"110 -240 OFFCURVE",
"314 -240 CURVE SMOOTH",
"540 -240 OFFCURVE",
"582 -195 OFFCURVE",
"582 -18 CURVE SMOOTH",
"582 470 LINE",
"470 470 LINE",
"470 -61 LINE SMOOTH",
"470 -104 OFFCURVE",
"436 -114 OFFCURVE",
"351 -114 CURVE SMOOTH",
"189 -114 LINE"
);
}
);
width = 671;
}
);
unicode = 06BA;
},
{
color = 4;
glyphname = "noonghunna-ar.fina";
layers = (
{
anchors = (
{
name = bottom;
position = "{326, -330}";
},
{
name = entry;
position = "{670, 63}";
},
{
name = top;
position = "{326, 550}";
}
);
color = 1;
components = (
{
name = "noonghunna-ar";
}
);
hints = (
{
horizontal = 1;
origin = "{0, 0}";
target = "{0, 3}";
}
);
layerId = "D5343206-61BD-433B-AB67-A494CBABC038";
paths = (
{
closed = 1;
nodes = (
"582 0 LINE",
"690 0 LINE",
"690 126 LINE",
"582 126 LINE"
);
}
);
width = 670;
}
);
unicode = FB9F;
},
{
color = 4;
glyphname = "heh-ar";
layers = (
{
anchors = (
{
name = bottom;
position = "{330, -80}";
},
{
name = top;
position = "{330, 550}";
}
);
color = 1;
hints = (
{
horizontal = 1;
origin = "{0, 6}";
target = "{1, 1}";
},
{
horizontal = 1;
origin = "{0, 0}";
target = "{1, 8}";
},
{
origin = "{0, 3}";
target = "{1, 4}";
},
{
origin = "{1, 0}";
target = "{0, 7}";
}
);
layerId = "D5343206-61BD-433B-AB67-A494CBABC038";
paths = (
{
closed = 1;
nodes = (
"294 470 LINE SMOOTH",
"112 470 OFFCURVE",
"75 430 OFFCURVE",
"75 235 CURVE SMOOTH",
"75 40 OFFCURVE",
"112 0 OFFCURVE",
"294 0 CURVE SMOOTH",
"548 0 LINE",
"548 470 LINE"
);
},
{
closed = 1;
nodes = (
"436 126 LINE",
"249 126 LINE SMOOTH",
"211 126 OFFCURVE",
"194 140 OFFCURVE",
"194 172 CURVE SMOOTH",
"194 298 LINE SMOOTH",
"194 330 OFFCURVE",
"211 344 OFFCURVE",
"249 344 CURVE SMOOTH",
"436 344 LINE"
);
}
);
width = 636;
}
);
unicode = 0647;
},
{
color = 4;
glyphname = "heh-ar.fina";
layers = (
{
anchors = (
{
name = bottom;
position = "{323, -80}";
},
{
name = entry;
position = "{629, 63}";
},
{
name = top;
position = "{323, 550}";
}
);
color = 1;
components = (
{
name = "heh-ar";
}
);
hints = (
{
horizontal = 1;
origin = "{0, 0}";
target = "{0, 3}";
}
);
layerId = "D5343206-61BD-433B-AB67-A494CBABC038";
paths = (
{
closed = 1;
nodes = (
"546 0 LINE",
"650 0 LINE",
"650 126 LINE",
"546 126 LINE"
);
}
);
width = 629;
}
);
unicode = FEEA;
},
{
color = 4;
glyphname = "heh-ar.medi";
layers = (
{
anchors = (
{
name = bottom;
position = "{332, -84}";
},
{
name = entry;
position = "{750, 63}";
},
{
name = exit;
position = "{0, 63}";
},
{
name = top;
position = "{332, 645}";
}
);
color = 2;
components = (
{
name = "heh-ar.init";
}
);
hints = (
{
horizontal = 1;
origin = "{0, 0}";
target = "{0, 3}";
},
{
origin = "{0, 0}";
target = "{0, 1}";
},
{
horizontal = 1;
origin = "{0, 1}";
target = "{0, 2}";
}
);
layerId = "D5343206-61BD-433B-AB67-A494CBABC038";
paths = (
{
closed = 1;
nodes = (
"640 -1 LINE",
"770 -1 LINE",
"770 125 LINE",
"640 125 LINE"
);
}
);
width = 750;
}
);
unicode = FEEC;
},
{
color = 4;
glyphname = "heh-ar.init";
layers = (
{
anchors = (
{
name = bottom;
position = "{332, -84}";
},
{
name = exit;
position = "{0, 63}";
},
{
name = top;
position = "{332, 645}";
}
);
color = 1;
hints = (
{
horizontal = 1;
origin = "{0, 12}";
target = "{0, 11}";
},
{
horizontal = 1;
origin = "{2, 5}";
target = "{1, 3}";
},
{
horizontal = 1;
origin = "{0, 6}";
target = "{0, 5}";
},
{
origin = "{1, 6}";
target = "{2, 1}";
},
{
origin = "{2, 0}";
target = "{1, 0}";
}
);
layerId = "D5343206-61BD-433B-AB67-A494CBABC038";
paths = (
{
closed = 1;
nodes = (
"700 0 LINE",
"700 97 LINE",
"640 335 LINE SMOOTH",
"594 518 OFFCURVE",
"488 573 OFFCURVE",
"251 573 CURVE",
"244 451 LINE",
"430 451 OFFCURVE",
"505 408 OFFCURVE",
"535 291 CURVE SMOOTH",
"577 126 LINE",
"-20 126 LINE",
"-20 0 LINE"
);
},
{
closed = 1;
nodes = (
"456 102 LINE",
"456 306 OFFCURVE",
"428 332 OFFCURVE",
"268 332 CURVE SMOOTH",
"115 332 OFFCURVE",
"86 306 OFFCURVE",
"86 102 CURVE"
);
},
{
closed = 1;
nodes = (
"358 102 LINE",
"184 102 LINE",
"184 206 LINE SMOOTH",
"184 231 OFFCURVE",
"197 241 OFFCURVE",
"227 241 CURVE SMOOTH",
"358 241 LINE"
);
}
);
width = 750;
}
);
unicode = FEEB;
},
{
color = 4;
glyphname = "hehgoal-ar.fina";
layers = (
{
anchors = (
{
name = bottom;
position = "{333, -80}";
},
{
name = entry;
position = "{661, 63}";
},
{
name = top;
position = "{333, 550}";
}
);
color = 1;
hints = (
{
horizontal = 1;
origin = "{0, 3}";
target = "{1, 4}";
},
{
horizontal = 1;
origin = "{0, 15}";
target = "{0, 8}";
},
{
origin = "{0, 3}";
target = "{0, 4}";
},
{
origin = "{1, 1}";
target = "{1, 4}";
}
);
layerId = "D5343206-61BD-433B-AB67-A494CBABC038";
paths = (
{
closed = 1;
nodes = (
"139 482 OFFCURVE",
"84 438 OFFCURVE",
"84 328 CURVE SMOOTH",
"84 0 LINE",
"196 0 LINE",
"196 348 LINE",
"230 354 OFFCURVE",
"282 356 OFFCURVE",
"334 356 CURVE SMOOTH",
"415 356 OFFCURVE",
"492 348 OFFCURVE",
"559 331 CURVE",
"573 450 LINE",
"503 470 OFFCURVE",
"408 482 OFFCURVE",
"315 482 CURVE SMOOTH"
);
},
{
closed = 1;
nodes = (
"461 450 LINE",
"461 0 LINE",
"681 0 LINE",
"681 126 LINE",
"572 126 LINE",
"572 450 LINE"
);
}
);
width = 661;
}
);
unicode = FBA7;
},
{
color = 4;
glyphname = "hehgoal-ar.medi";
layers = (
{
anchors = (
{
name = bottom;
position = "{364, -415}";
},
{
name = entry;
position = "{671, 63}";
},
{
name = exit;
position = "{0, 63}";
},
{
name = top;
position = "{364, 550}";
}
);
hints = (
{
horizontal = 1;
origin = "{0, 19}";
target = "{0, 4}";
},
{
horizontal = 1;
origin = "{2, 3}";
target = "{2, 2}";
},
{
origin = "{0, 13}";
target = "{0, 10}";
},
{
origin = "{0, 1}";
target = "{0, 22}";
}
);
layerId = "D5343206-61BD-433B-AB67-A494CBABC038";
paths = (
{
closed = 1;
nodes = (
"473 16 LINE",
"473 -254 LINE",
"450 -260 OFFCURVE",
"412 -263 OFFCURVE",
"378 -263 CURVE SMOOTH",
"342 -263 OFFCURVE",
"301 -259 OFFCURVE",
"259 -252 CURVE",
"245 -205 OFFCURVE",
"236 -155 OFFCURVE",
"236 -108 CURVE SMOOTH",
"236 0 LINE",
"128 0 LINE",
"128 -112 LINE SMOOTH",
"128 -189 OFFCURVE",
"144 -268 OFFCURVE",
"170 -332 CURVE",
"238 -361 OFFCURVE",
"320 -375 OFFCURVE",
"397 -375 CURVE SMOOTH",
"542 -375 OFFCURVE",
"585 -331 OFFCURVE",
"585 -221 CURVE SMOOTH",
"585 16 LINE"
);
},
{
closed = 1;
nodes = (
"693 0 LINE",
"693 126 LINE",
"473 126 LINE",
"473 0 LINE"
);
},
{
closed = 1;
nodes = (
"236 0 LINE",
"236 126 LINE",
"-20 126 LINE",
"-20 0 LINE"
);
}
);
width = 671;
}
);
unicode = FBA9;
},
{
color = 4;
glyphname = "hehDoachashmee-ar";
layers = (
{
anchors = (
{
name = bottom;
position = "{332, -84}";
},
{
name = top;
position = "{332, 645}";
}
);
hints = (
{
horizontal = 1;
origin = "{0, 12}";
target = "{0, 11}";
},
{
horizontal = 1;
origin = "{2, 5}";
target = "{1, 3}";
},
{
horizontal = 1;
origin = "{0, 6}";
target = "{0, 5}";
},
{
origin = "{1, 6}";
target = "{2, 1}";
},
{
origin = "{2, 0}";
target = "{1, 0}";
}
);
layerId = "D5343206-61BD-433B-AB67-A494CBABC038";
paths = (
{
closed = 1;
nodes = (
"700 0 LINE",
"700 97 LINE",
"640 335 LINE SMOOTH",
"594 518 OFFCURVE",
"488 573 OFFCURVE",
"251 573 CURVE",
"244 451 LINE",
"430 451 OFFCURVE",
"505 408 OFFCURVE",
"535 291 CURVE SMOOTH",
"577 126 LINE",
"20 126 LINE",
"20 0 LINE"
);
},
{
closed = 1;
nodes = (
"456 102 LINE",
"456 306 OFFCURVE",
"428 332 OFFCURVE",
"268 332 CURVE SMOOTH",
"115 332 OFFCURVE",
"86 306 OFFCURVE",
"86 102 CURVE"
);
},
{
closed = 1;
nodes = (
"358 102 LINE",
"184 102 LINE",
"184 206 LINE SMOOTH",
"184 231 OFFCURVE",
"197 241 OFFCURVE",
"227 241 CURVE SMOOTH",
"358 241 LINE"
);
}
);
width = 750;
}
);
unicode = 06BE;
},
{
color = 4;
glyphname = "hehDoachashmee-ar.fina";
layers = (
{
anchors = (
{
name = bottom;
position = "{332, -84}";
},
{
name = entry;
position = "{750, 62}";
},
{
name = top;
position = "{332, 645}";
}
);
components = (
{
name = "hehDoachashmee-ar";
}
);
hints = (
{
horizontal = 1;
origin = "{0, 0}";
target = "{0, 3}";
},
{
origin = "{0, 0}";
target = "{0, 1}";
}
);
layerId = "D5343206-61BD-433B-AB67-A494CBABC038";
paths = (
{
closed = 1;
nodes = (
"644 -1 LINE",
"770 -1 LINE",
"770 125 LINE",
"644 125 LINE"
);
}
);
width = 750;
}
);
unicode = FBAB;
},
{
color = 1;
glyphname = "waw-ar";
layers = (
{
anchors = (
{
name = bottom;
position = "{301, -330}";
},
{
name = top;
position = "{301, 550}";
}
);
hints = (
{
horizontal = 1;
origin = "{0, 11}";
target = "{1, 0}";
},
{
horizontal = 1;
origin = "{0, 5}";
target = "{1, 4}";
},
{
origin = "{0, 8}";
target = "{1, 0}";
},
{
origin = "{2, 3}";
target = "{0, 1}";
},
{
horizontal = 1;
origin = "{2, 7}";
target = up;
type = BottomGhost;
}
);
layerId = "D5343206-61BD-433B-AB67-A494CBABC038";
paths = (
{
closed = 1;
nodes = (
"464 0 LINE",
"522 126 LINE",
"522 447 LINE",
"454 473 OFFCURVE",
"393 482 OFFCURVE",
"301 482 CURVE SMOOTH",
"128 482 OFFCURVE",
"71 426 OFFCURVE",
"71 244 CURVE SMOOTH",
"71 60 OFFCURVE",
"116 0 OFFCURVE",
"246 0 CURVE SMOOTH"
);
},
{
closed = 1;
nodes = (
"190 126 LINE",
"190 308 LINE SMOOTH",
"190 346 OFFCURVE",
"202 356 OFFCURVE",
"241 356 CURVE SMOOTH",
"410 356 LINE",
"410 171 LINE SMOOTH",
"410 137 OFFCURVE",
"400 126 OFFCURVE",
"367 126 CURVE SMOOTH"
);
},
{
closed = 1;
nodes = (
"430 -173 OFFCURVE",
"523 -7 OFFCURVE",
"523 126 CURVE",
"411 126 LINE",
"411 25 OFFCURVE",
"333 -107 OFFCURVE",
"233 -189 CURVE",
"306 -273 LINE"
);
}
);
width = 610;
}
);
unicode = 0648;
},
{
color = 4;
glyphname = "waw-ar.fina";
layers = (
{
anchors = (
{
name = bottom;
position = "{301, -330}";
},
{
name = entry;
position = "{620, 63}";
},
{
name = top;
position = "{301, 550}";
}
);
components = (
{
name = "waw-ar";
}
);
hints = (
{
horizontal = 1;
origin = "{0, 0}";
target = "{0, 3}";
}
);
layerId = "D5343206-61BD-433B-AB67-A494CBABC038";
paths = (
{
closed = 1;
nodes = (
"476 0 LINE",
"640 0 LINE",
"640 126 LINE",
"476 126 LINE"
);
}
);
width = 620;
}
);
unicode = FEEE;
},
{
color = 4;
glyphname = "alefMaksura-ar";
layers = (
{
anchors = (
{
name = bottom;
position = "{436, -330}";
},
{
name = top;
position = "{176, 240}";
}
);
color = 1;
hints = (
{
horizontal = 1;
origin = "{0, 2}";
target = "{0, 33}";
},
{
horizontal = 1;
origin = "{0, 21}";
target = "{0, 14}";
},
{
horizontal = 1;
origin = "{0, 21}";
target = down;
type = TopGhost;
},
{
origin = "{0, 43}";
target = "{0, 36}";
},
{
origin = "{0, 24}";
target = "{0, 10}";
},
{
origin = "{0, 29}";
target = "{0, 5}";
},
{
horizontal = 1;
origin = "{0, 40}";
target = down;
type = TopGhost;
}
);
layerId = "D5343206-61BD-433B-AB67-A494CBABC038";
paths = (
{
closed = 1;
nodes = (
"66 -246 OFFCURVE",
"138 -281 OFFCURVE",
"413 -281 CURVE SMOOTH",
"711 -281 OFFCURVE",
"782 -231 OFFCURVE",
"782 -65 CURVE SMOOTH",
"782 10 LINE SMOOTH",
"782 127 OFFCURVE",
"752 178 OFFCURVE",
"634 191 CURVE SMOOTH",
"487 206 LINE",
"487 349 LINE",
"515 353 OFFCURVE",
"550 354 OFFCURVE",
"590 354 CURVE SMOOTH",
"641 354 OFFCURVE",
"688 350 OFFCURVE",
"755 339 CURVE",
"774 459 LINE",
"710 473 OFFCURVE",
"644 480 OFFCURVE",
"570 480 CURVE SMOOTH",
"408 480 OFFCURVE",
"368 428 OFFCURVE",
"368 273 CURVE SMOOTH",
"368 142 OFFCURVE",
"398 93 OFFCURVE",
"534 78 CURVE SMOOTH",
"670 63 LINE",
"670 -102 LINE SMOOTH",
"670 -145 OFFCURVE",
"623 -155 OFFCURVE",
"471 -155 CURVE SMOOTH",
"189 -155 LINE",
"181 -122 OFFCURVE",
"178 -90 OFFCURVE",
"178 -43 CURVE SMOOTH",
"178 11 OFFCURVE",
"190 69 OFFCURVE",
"207 132 CURVE",
"98 150 LINE",
"78 89 OFFCURVE",
"66 5 OFFCURVE",
"66 -68 CURVE SMOOTH"
);
}
);
width = 864;
}
);
unicode = 0649;
},
{
color = 4;
glyphname = "alefMaksura-ar.fina";
layers = (
{
anchors = (
{
name = bottom;
position = "{436, -330}";
},
{
name = entry;
position = "{870, 63}";
},
{
name = top;
position = "{176, 240}";
}
);
color = 1;
hints = (
{
horizontal = 1;
origin = "{0, 22}";
target = "{0, 9}";
},
{
horizontal = 1;
origin = "{1, 9}";
target = "{1, 2}";
},
{
origin = "{0, 19}";
target = "{0, 12}";
},
{
origin = "{0, 5}";
target = "{0, 2}";
}
);
layerId = "D5343206-61BD-433B-AB67-A494CBABC038";
paths = (
{
closed = 1;
nodes = (
"711 -281 OFFCURVE",
"782 -231 OFFCURVE",
"782 -65 CURVE SMOOTH",
"782 0 LINE",
"670 0 LINE",
"670 -102 LINE SMOOTH",
"670 -145 OFFCURVE",
"623 -155 OFFCURVE",
"471 -155 CURVE SMOOTH",
"189 -155 LINE",
"181 -122 OFFCURVE",
"178 -90 OFFCURVE",
"178 -43 CURVE SMOOTH",
"178 11 OFFCURVE",
"190 69 OFFCURVE",
"207 132 CURVE",
"98 150 LINE",
"78 89 OFFCURVE",
"66 5 OFFCURVE",
"66 -68 CURVE SMOOTH",
"66 -246 OFFCURVE",
"138 -281 OFFCURVE",
"413 -281 CURVE SMOOTH"
);
},
{
closed = 1;
nodes = (
"890 0 LINE",
"890 126 LINE",
"614 126 LINE SMOOTH",
"561 126 OFFCURVE",
"506 134 OFFCURVE",
"441 151 CURVE",
"424 32 LINE",
"486 12 OFFCURVE",
"570 0 OFFCURVE",
"640 0 CURVE"
);
}
);
width = 870;
}
);
unicode = FEF0;
},
{
color = 4;
glyphname = "yehbarree-ar";
layers = (
{
anchors = (
{
name = bottom;
position = "{357, -370}";
},
{
name = top;
position = "{305, 175}";
}
);
hints = (
{
horizontal = 1;
origin = "{1, 15}";
target = "{1, 6}";
},
{
horizontal = 1;
origin = "{0, 15}";
target = "{0, 14}";
},
{
origin = "{1, 12}";
target = "{1, 9}";
},
{
origin = "{0, 10}";
target = "{0, 3}";
},
{
horizontal = 1;
origin = "{0, 7}";
target = down;
type = TopGhost;
}
);
layerId = "D5343206-61BD-433B-AB67-A494CBABC038";
paths = (
{
closed = 1;
nodes = (
"516 0 LINE SMOOTH",
"666 0 OFFCURVE",
"711 55 OFFCURVE",
"711 247 CURVE SMOOTH",
"711 275 OFFCURVE",
"710 303 OFFCURVE",
"708 329 CURVE",
"596 329 LINE",
"598 302 OFFCURVE",
"599 276 OFFCURVE",
"599 251 CURVE SMOOTH",
"599 186 OFFCURVE",
"596 146 OFFCURVE",
"588 110 CURVE",
"46 110 LINE",
"46 0 LINE"
);
},
{
closed = 1;
nodes = (
"468 -281 OFFCURVE",
"582 -269 OFFCURVE",
"671 -249 CURVE",
"654 -130 LINE",
"537 -149 OFFCURVE",
"474 -155 OFFCURVE",
"361 -155 CURVE SMOOTH",
"207 -155 OFFCURVE",
"158 -145 OFFCURVE",
"158 -102 CURVE SMOOTH",
"158 0 LINE",
"46 0 LINE",
"46 -58 LINE SMOOTH",
"46 -236 OFFCURVE",
"97 -281 OFFCURVE",
"357 -281 CURVE SMOOTH"
);
}
);
width = 779;
}
);
unicode = 06D2;
},
{
color = 4;
glyphname = "yehbarree-ar.fina";
layers = (
{
anchors = (
{
name = bottom;
position = "{357, -370}";
},
{
name = entry;
position = "{716, 63}";
},
{
name = top;
position = "{305, 203}";
}
);
hints = (
{
horizontal = 1;
origin = "{1, 15}";
target = "{1, 6}";
},
{
horizontal = 1;
origin = "{0, 3}";
target = "{0, 2}";
},
{
origin = "{1, 12}";
target = "{1, 9}";
}
);
layerId = "D5343206-61BD-433B-AB67-A494CBABC038";
paths = (
{
closed = 1;
nodes = (
"736 0 LINE",
"736 126 LINE",
"46 126 LINE",
"46 0 LINE"
);
},
{
closed = 1;
nodes = (
"468 -281 OFFCURVE",
"582 -269 OFFCURVE",
"671 -249 CURVE",
"654 -130 LINE",
"537 -149 OFFCURVE",
"474 -155 OFFCURVE",
"361 -155 CURVE SMOOTH",
"207 -155 OFFCURVE",
"158 -145 OFFCURVE",
"158 -102 CURVE SMOOTH",
"158 0 LINE",
"46 0 LINE",
"46 -58 LINE SMOOTH",
"46 -236 OFFCURVE",
"97 -281 OFFCURVE",
"357 -281 CURVE SMOOTH"
);
}
);
width = 716;
}
);
unicode = FBAF;
},
{
color = 4;
glyphname = "kashida-ar";
layers = (
{
anchors = (
{
name = bottom;
position = "{122, -224}";
},
{
name = entry;
position = "{244, 63}";
},
{
name = exit;
position = "{0, 63}";
},
{
name = top;
position = "{122, 573}";
}
);
hints = (
{
horizontal = 1;
origin = "{0, 3}";
target = "{0, 2}";
}
);
layerId = "D5343206-61BD-433B-AB67-A494CBABC038";
paths = (
{
closed = 1;
nodes = (
"264 0 LINE",
"264 126 LINE",
"-20 126 LINE",
"-20 0 LINE"
);
}
);
width = 244;
}
);
unicode = 0640;
},
{
color = 4;
glyphname = "lam_alef-ar";
layers = (
{
anchors = (
{
name = bottom_1;
position = "{499, -80}";
},
{
name = bottom_2;
position = "{139, -80}";
},
{
name = caret_1;
position = "{332, 0}";
},
{
name = top_1;
position = "{499, 730}";
},
{
name = top_2;
position = "{179, 625}";
}
);
hints = (
{
horizontal = 1;
origin = "{0, 6}";
target = "{1, 9}";
},
{
horizontal = 1;
origin = "{0, 18}";
target = down;
type = TopGhost;
},
{
origin = "{0, 3}";
target = "{1, 9}";
},
{
origin = "{0, 19}";
target = "{0, 16}";
},
{
origin = "{1, 5}";
target = "{0, 9}";
}
);
layerId = "D5343206-61BD-433B-AB67-A494CBABC038";
paths = (
{
closed = 1;
nodes = (
"207 339 LINE SMOOTH",
"93 298 OFFCURVE",
"68 249 OFFCURVE",
"68 152 CURVE SMOOTH",
"68 31 OFFCURVE",
"123 -15 OFFCURVE",
"312 -15 CURVE SMOOTH",
"498 -15 OFFCURVE",
"575 37 OFFCURVE",
"575 161 CURVE SMOOTH",
"575 220 OFFCURVE",
"557 263 OFFCURVE",
"504 315 CURVE",
"504 322 LINE",
"546 337 OFFCURVE",
"555 368 OFFCURVE",
"555 445 CURVE SMOOTH",
"555 630 LINE",
"443 630 LINE",
"443 423 LINE"
);
},
{
closed = 1;
nodes = (
"187 205 LINE",
"367 269 LINE",
"420 227 LINE SMOOTH",
"443 209 OFFCURVE",
"456 186 OFFCURVE",
"456 165 CURVE SMOOTH",
"456 136 OFFCURVE",
"433 111 OFFCURVE",
"374 111 CURVE SMOOTH",
"187 111 LINE"
);
},
{
closed = 1;
nodes = (
"421 381 LINE",
"164 590 LINE",
"87 497 LINE",
"286 335 LINE"
);
}
);
width = 651;
}
);
unicode = FEFB;
},
{
color = 4;
glyphname = "lam_alef-ar.fina";
layers = (
{
anchors = (
{
name = bottom_1;
position = "{528, -80}";
},
{
name = bottom_2;
position = "{242, -80}";
},
{
name = caret_1;
position = "{360, 0}";
},
{
name = entry;
position = "{672, 63}";
},
{
name = top_1;
position = "{528, 730}";
},
{
name = top_2;
position = "{192, 625}";
}
);
color = 1;
hints = (
{
horizontal = 1;
origin = "{2, 1}";
target = "{2, 0}";
},
{
horizontal = 1;
origin = "{0, 2}";
target = down;
type = TopGhost;
},
{
horizontal = 1;
origin = "{1, 2}";
target = down;
type = TopGhost;
},
{
origin = "{1, 3}";
target = "{1, 0}";
}
);
layerId = "D5343206-61BD-433B-AB67-A494CBABC038";
paths = (
{
closed = 1;
nodes = (
"289 82 LINE",
"248 545 LINE",
"136 545 LINE",
"176 82 LINE"
);
},
{
closed = 1;
nodes = (
"584 82 LINE",
"584 630 LINE",
"472 630 LINE",
"472 82 LINE"
);
},
{
closed = 1;
nodes = (
"20 126 LINE",
"20 0 LINE",
"692 0 LINE",
"692 126 LINE"
);
}
);
width = 672;
}
);
note = "Inclinacion barra inicial 5 - bottom_2 - 50 derecha en regular";
unicode = FEFC;
},
{
color = 4;
glyphname = "seen_reh-ar";
lastChange = "2016-02-27 16:03:49 +0000";
layers = (
{
anchors = (
{
name = bottom;
position = "{119, -330}";
},
{
name = bottom_1;
position = "{831, -80}";
},
{
name = caret_1;
position = "{577, 0}";
},
{
name = top;
position = "{179, 550}";
},
{
name = top_1;
position = "{831, 550}";
}
);
hints = (
{
horizontal = 1;
origin = "{2, 5}";
target = "{4, 9}";
},
{
horizontal = 1;
origin = "{2, 4}";
target = "{1, 0}";
},
{
origin = "{2, 5}";
target = "{2, 2}";
},
{
origin = "{0, 3}";
target = "{0, 0}";
},
{
origin = "{4, 5}";
target = "{3, 16}";
},
{
origin = "{3, 9}";
target = "{3, 2}";
},
{
horizontal = 1;
origin = "{3, 18}";
target = down;
type = TopGhost;
}
);
layerId = "D5343206-61BD-433B-AB67-A494CBABC038";
paths = (
{
closed = 1;
nodes = (
"563 0 LINE",
"563 470 LINE",
"451 470 LINE",
"451 0 LINE"
);
},
{
closed = 1;
nodes = (
"235 344 LINE",
"451 344 LINE",
"451 470 LINE",
"235 470 LINE"
);
},
{
closed = 1;
nodes = (
"188 -216 OFFCURVE",
"236 -136 OFFCURVE",
"236 11 CURVE SMOOTH",
"236 470 LINE",
"124 470 LINE",
"124 11 LINE SMOOTH",
"124 -94 OFFCURVE",
"102 -134 OFFCURVE",
"24 -170 CURVE",
"68 -269 LINE"
);
},
{
closed = 1;
nodes = (
"1153 0 OFFCURVE",
"1210 58 OFFCURVE",
"1210 263 CURVE SMOOTH",
"1210 328 OFFCURVE",
"1200 411 OFFCURVE",
"1182 469 CURVE",
"1071 451 LINE",
"1088 382 OFFCURVE",
"1098 317 OFFCURVE",
"1098 257 CURVE SMOOTH",
"1098 202 OFFCURVE",
"1096 162 OFFCURVE",
"1088 126 CURVE",
"963 126 LINE SMOOTH",
"911 126 OFFCURVE",
"887 136 OFFCURVE",
"887 179 CURVE SMOOTH",
"887 380 LINE",
"775 380 LINE",
"775 217 LINE SMOOTH",
"775 43 OFFCURVE",
"812 0 OFFCURVE",
"996 0 CURVE SMOOTH"
);
},
{
closed = 1;
nodes = (
"851 0 OFFCURVE",
"886 43 OFFCURVE",
"886 217 CURVE SMOOTH",
"886 380 LINE",
"774 380 LINE",
"774 179 LINE SMOOTH",
"774 136 OFFCURVE",
"750 126 OFFCURVE",
"698 126 CURVE SMOOTH",
"563 126 LINE",
"563 0 LINE",
"653 0 LINE SMOOTH"
);
}
);
width = 1291;
}
);
leftMetricsKey = "=reh-ar";
rightMetricsKey = "=seen-ar.init";
unicode = FD0E;
},
{
color = 4;
glyphname = "seen_reh-ar.fina";
layers = (
{
anchors = (
{
name = bottom;
position = "{119, -330}";
},
{
name = bottom_1;
position = "{831, -80}";
},
{
name = caret_1;
position = "{577, 0}";
},
{
name = entry;
position = "{1298, 63}";
},
{
name = top;
position = "{179, 550}";
},
{
name = top_1;
position = "{831, 550}";
}
);
color = 1;
components = (
{
name = "seen_reh-ar";
}
);
hints = (
{
horizontal = 1;
origin = "{0, 3}";
target = "{0, 2}";
}
);
layerId = "D5343206-61BD-433B-AB67-A494CBABC038";
paths = (
{
closed = 1;
nodes = (
"1318 0 LINE",
"1318 126 LINE",
"1135 126 LINE",
"996 0 LINE"
);
}
);
width = 1298;
}
);
leftMetricsKey = "=reh-ar";
unicode = FD2A;
},
{
color = 4;
glyphname = "seen_alefMaksura-ar";
lastChange = "2016-02-27 16:03:49 +0000";
layers = (
{
anchors = (
{
name = bottom;
position = "{1332, -80}";
},
{
name = bottom_2;
position = "{436, -330}";
},
{
name = caret_1;
position = "{771, 0}";
},
{
name = top;
position = "{1332, 550}";
},
{
name = top_2;
position = "{176, 240}";
}
);
hints = (
{
horizontal = 1;
origin = "{1, 2}";
target = "{1, 26}";
},
{
horizontal = 1;
origin = "{0, 3}";
target = "{3, 9}";
},
{
horizontal = 1;
origin = "{1, 14}";
target = "{1, 11}";
},
{
origin = "{1, 36}";
target = "{1, 29}";
},
{
origin = "{1, 17}";
target = "{1, 10}";
},
{
origin = "{1, 22}";
target = "{1, 5}";
},
{
origin = "{0, 3}";
target = "{0, 0}";
},
{
origin = "{3, 5}";
target = "{2, 16}";
},
{
origin = "{2, 9}";
target = "{2, 2}";
},
{
horizontal = 1;
origin = "{2, 18}";
target = down;
type = TopGhost;
}
);
layerId = "D5343206-61BD-433B-AB67-A494CBABC038";
paths = (
{
closed = 1;
nodes = (
"1064 0 LINE",
"1064 470 LINE",
"952 470 LINE",
"952 0 LINE"
);
},
{
closed = 1;
nodes = (
"66 -246 OFFCURVE",
"138 -281 OFFCURVE",
"413 -281 CURVE SMOOTH",
"711 -281 OFFCURVE",
"782 -231 OFFCURVE",
"782 -65 CURVE SMOOTH",
"782 10 LINE SMOOTH",
"782 127 OFFCURVE",
"752 178 OFFCURVE",
"634 191 CURVE SMOOTH",
"487 206 LINE",
"487 344 LINE",
"952 344 LINE",
"952 470 LINE",
"570 470 LINE",
"408 470 OFFCURVE",
"368 420 OFFCURVE",
"368 273 CURVE SMOOTH",
"368 144 OFFCURVE",
"398 93 OFFCURVE",
"534 78 CURVE SMOOTH",
"670 63 LINE",
"670 -102 LINE SMOOTH",
"670 -145 OFFCURVE",
"623 -155 OFFCURVE",
"471 -155 CURVE SMOOTH",
"189 -155 LINE",
"181 -122 OFFCURVE",
"178 -90 OFFCURVE",
"178 -43 CURVE SMOOTH",
"178 11 OFFCURVE",
"190 69 OFFCURVE",
"207 132 CURVE",
"98 150 LINE",
"78 89 OFFCURVE",
"66 5 OFFCURVE",
"66 -68 CURVE SMOOTH"
);
},
{
closed = 1;
nodes = (
"1654 0 OFFCURVE",
"1711 58 OFFCURVE",
"1711 263 CURVE SMOOTH",
"1711 328 OFFCURVE",
"1701 411 OFFCURVE",
"1683 469 CURVE",
"1572 451 LINE",
"1589 382 OFFCURVE",
"1599 317 OFFCURVE",
"1599 257 CURVE SMOOTH",
"1599 202 OFFCURVE",
"1597 162 OFFCURVE",
"1589 126 CURVE",
"1464 126 LINE SMOOTH",
"1412 126 OFFCURVE",
"1388 136 OFFCURVE",
"1388 179 CURVE SMOOTH",
"1388 380 LINE",
"1276 380 LINE",
"1276 217 LINE SMOOTH",
"1276 43 OFFCURVE",
"1313 0 OFFCURVE",
"1497 0 CURVE SMOOTH"
);
},
{
closed = 1;
nodes = (
"1352 0 OFFCURVE",
"1387 43 OFFCURVE",
"1387 217 CURVE SMOOTH",
"1387 380 LINE",
"1275 380 LINE",
"1275 179 LINE SMOOTH",
"1275 136 OFFCURVE",
"1251 126 OFFCURVE",
"1199 126 CURVE SMOOTH",
"1064 126 LINE",
"1064 0 LINE",
"1154 0 LINE SMOOTH"
);
}
);
width = 1792;
}
);
leftMetricsKey = "alefMaksura-ar";
rightMetricsKey = "seen-ar.init";
unicode = FCFB;
},
{
color = 4;
glyphname = "seen_alefMaksura-ar.fina";
layers = (
{
anchors = (
{
name = bottom;
position = "{1332, -80}";
},
{
name = bottom_2;
position = "{436, -330}";
},
{
name = caret_1;
position = "{771, 0}";
},
{
name = entry;
position = "{1799, 63}";
},
{
name = top;
position = "{1332, 550}";
},
{
name = top_2;
position = "{176, 240}";
}
);
color = 1;
components = (
{
name = "seen_alefMaksura-ar";
}
);
hints = (
{
horizontal = 1;
origin = "{0, 0}";
target = "{0, 3}";
}
);
layerId = "D5343206-61BD-433B-AB67-A494CBABC038";
paths = (
{
closed = 1;
nodes = (
"1497 0 LINE",
"1819 0 LINE",
"1819 126 LINE",
"1636 126 LINE"
);
}
);
width = 1799;
}
);
leftMetricsKey = "alefMaksura-ar";
unicode = FD17;
},
{
color = 4;
glyphname = "sad_reh-ar";
layers = (
{
anchors = (
{
name = bottom;
position = "{119, -330}";
},
{
name = bottom_1;
position = "{797, -80}";
},
{
name = caret_1;
position = "{577, 0}";
},
{
name = top;
position = "{179, 550}";
},
{
name = top_1;
position = "{797, 550}";
}
);
hints = (
{
horizontal = 1;
origin = "{1, 5}";
target = "{2, 0}";
},
{
horizontal = 1;
origin = "{3, 4}";
target = "{3, 14}";
},
{
horizontal = 1;
origin = "{1, 4}";
target = "{0, 0}";
},
{
origin = "{1, 5}";
target = "{1, 2}";
},
{
origin = "{2, 1}";
target = "{3, 11}";
},
{
origin = "{3, 18}";
target = "{2, 2}";
}
);
layerId = "D5343206-61BD-433B-AB67-A494CBABC038";
paths = (
{
closed = 1;
nodes = (
"235 344 LINE",
"451 344 LINE",
"451 470 LINE",
"235 470 LINE"
);
},
{
closed = 1;
nodes = (
"188 -216 OFFCURVE",
"236 -136 OFFCURVE",
"236 11 CURVE SMOOTH",
"236 470 LINE",
"124 470 LINE",
"124 11 LINE SMOOTH",
"124 -95 OFFCURVE",
"102 -135 OFFCURVE",
"24 -170 CURVE",
"68 -270 LINE"
);
},
{
closed = 1;
nodes = (
"451 126 LINE",
"451 0 LINE",
"1055 0 LINE",
"1055 126 LINE"
);
},
{
closed = 1;
nodes = (
"1055 0 LINE",
"1055 332 LINE SMOOTH",
"1055 445 OFFCURVE",
"1013 480 OFFCURVE",
"877 480 CURVE SMOOTH",
"725 480 OFFCURVE",
"606 415 OFFCURVE",
"563 309 CURVE",
"563 470 LINE",
"451 470 LINE",
"451 82 LINE",
"563 82 LINE",
"563 265 OFFCURVE",
"650 354 OFFCURVE",
"828 354 CURVE SMOOTH",
"881 354 OFFCURVE",
"921 350 OFFCURVE",
"943 343 CURVE",
"943 0 LINE"
);
}
);
width = 1140;
}
);
leftMetricsKey = "=reh-ar";
rightMetricsKey = "=sad-ar.init";
unicode = FD0F;
},
{
color = 4;
glyphname = "sad_reh-ar.fina";
layers = (
{
anchors = (
{
name = bottom;
position = "{127, -330}";
},
{
name = bottom_1;
position = "{805, -80}";
},
{
name = caret_1;
position = "{585, 0}";
},
{
name = entry;
position = "{1143, 63}";
},
{
name = top;
position = "{179, 550}";
},
{
name = top_1;
position = "{805, 550}";
}
);
components = (
{
name = "sad_reh-ar";
}
);
hints = (
{
horizontal = 1;
origin = "{0, 0}";
target = "{0, 3}";
}
);
layerId = "D5343206-61BD-433B-AB67-A494CBABC038";
paths = (
{
closed = 1;
nodes = (
"1055 0 LINE",
"1163 0 LINE",
"1163 126 LINE",
"1055 126 LINE"
);
}
);
width = 1143;
}
);
leftMetricsKey = "=reh-ar";
rightMetricsKey = "reh-ar.fina";
unicode = FD2B;
},
{
color = 4;
glyphname = "meem_reh-ar.fina";
lastChange = "2016-02-27 16:03:49 +0000";
layers = (
{
anchors = (
{
name = bottom;
position = "{119, -330}";
},
{
name = bottom_1;
position = "{694, -80}";
},
{
name = caret_1;
position = "{438, 0}";
},
{
name = top;
position = "{178, 550}";
},
{
name = top_1;
position = "{694, 550}";
}
);
components = (
{
name = "reh-ar";
}
);
hints = (
{
horizontal = 1;
place = "{-6, 47.4}";
},
{
horizontal = 1;
place = "{282, -42}";
},
{
place = "{257.4, 57.6}";
},
{
place = "{464.4, 60.6}";
}
);
layerId = "D5343206-61BD-433B-AB67-A494CBABC038";
paths = (
{
closed = 1;
nodes = (
"468 344 LINE",
"458 303 OFFCURVE",
"454 264 OFFCURVE",
"454 194 CURVE SMOOTH",
"454 42 OFFCURVE",
"510 -12 OFFCURVE",
"684 -12 CURVE SMOOTH",
"767 -12 OFFCURVE",
"828 -3 OFFCURVE",
"906 23 CURVE",
"906 470 LINE",
"235 470 LINE SMOOTH",
"235 344 LINE"
);
},
{
closed = 1;
nodes = (
"794 344 LINE",
"794 163 LINE SMOOTH",
"794 125 OFFCURVE",
"785 115 OFFCURVE",
"751 115 CURVE SMOOTH",
"574 115 LINE",
"574 299 LINE SMOOTH",
"574 333 OFFCURVE",
"585 344 OFFCURVE",
"617 344 CURVE SMOOTH"
);
}
);
width = 989;
}
);
leftMetricsKey = "=reh-ar";
rightMetricsKey = "meem-ar.init";
},
{
color = 4;
glyphname = "alefMaksura_reh-ar.fina";
layers = (
{
anchors = (
{
name = bottom;
position = "{119, -330}";
},
{
name = bottom_1;
position = "{507, -80}";
},
{
name = caret_1;
position = "{343, 0}";
},
{
name = entry;
position = "{651, 63}";
},
{
name = top;
position = "{179, 550}";
},
{
name = top_1;
position = "{507, 550}";
}
);
hints = (
{
horizontal = 1;
place = "{-138, 49.2}";
},
{
horizontal = 1;
origin = "{0, 5}";
target = "{0, 2}";
},
{
horizontal = 1;
origin = "{1, 3}";
target = "{1, 0}";
},
{
place = "{72.6, 60}";
},
{
origin = "{0, 5}";
target = "{0, 2}";
}
);
layerId = "D5343206-61BD-433B-AB67-A494CBABC038";
paths = (
{
closed = 1;
nodes = (
"671 0 LINE",
"671 126 LINE",
"563 126 LINE",
"563 470 LINE",
"451 470 LINE",
"451 0 LINE"
);
},
{
closed = 1;
nodes = (
"235 344 LINE",
"451 344 LINE",
"451 470 LINE",
"235 470 LINE"
);
},
{
closed = 1;
nodes = (
"188 -216 OFFCURVE",
"236 -136 OFFCURVE",
"236 11 CURVE SMOOTH",
"236 470 LINE",
"124 470 LINE",
"124 11 LINE SMOOTH",
"124 -94 OFFCURVE",
"102 -134 OFFCURVE",
"24 -170 CURVE",
"68 -269 LINE"
);
}
);
width = 651;
}
);
leftMetricsKey = "=reh-ar";
rightMetricsKey = "reh-ar.fina";
},
{
color = 4;
glyphname = "alefMaksura_meem-ar.init";
layers = (
{
anchors = (
{
name = bottom;
position = "{320, -330}";
},
{
name = bottom_1;
position = "{855, -80}";
},
{
name = caret_1;
position = "{597, 0}";
},
{
name = entry;
position = "{999, 63}";
},
{
name = top;
position = "{326, 748}";
},
{
name = top_1;
position = "{855, 550}";
}
);
color = 1;
components = (
{
name = "noonghunna-ar";
},
{
name = "dotabove-ar";
transform = "{1, 0, 0, 1, 218, 0}";
}
);
hints = (
{
horizontal = 1;
origin = "{0, 5}";
target = "{0, 2}";
},
{
horizontal = 1;
origin = "{1, 3}";
target = "{1, 0}";
},
{
origin = "{0, 5}";
target = "{0, 2}";
}
);
layerId = "D5343206-61BD-433B-AB67-A494CBABC038";
paths = (
{
closed = 1;
nodes = (
"1019 0 LINE",
"1019 126 LINE",
"911 126 LINE",
"911 470 LINE",
"799 470 LINE",
"799 0 LINE"
);
},
{
closed = 1;
nodes = (
"582 344 LINE",
"798 344 LINE",
"798 470 LINE",
"582 470 LINE"
);
}
);
width = 999;
}
);
leftMetricsKey = "noonghunna-ar";
rightMetricsKey = "meem-ar.fina";
},
{
color = 10;
glyphname = zero;
layers = (
{
hints = (
{
horizontal = 1;
origin = "{0, 2}";
target = "{1, 5}";
},
{
horizontal = 1;
origin = "{0, 8}";
target = "{1, 9}";
},
{
origin = "{0, 11}";
target = "{1, 8}";
},
{
origin = "{1, 4}";
target = "{0, 5}";
},
{
horizontal = 1;
origin = "{0, 2}";
target = up;
type = BottomGhost;
},
{
horizontal = 1;
origin = "{0, 8}";
target = down;
type = TopGhost;
}
);
layerId = "D5343206-61BD-433B-AB67-A494CBABC038";
paths = (
{
closed = 1;
nodes = (
"52 43 OFFCURVE",
"101 -15 OFFCURVE",
"322 -15 CURVE SMOOTH",
"544 -15 OFFCURVE",
"592 42 OFFCURVE",
"592 312 CURVE SMOOTH",
"592 580 OFFCURVE",
"541 640 OFFCURVE",
"322 640 CURVE SMOOTH",
"103 640 OFFCURVE",
"52 579 OFFCURVE",
"52 312 CURVE SMOOTH"
);
},
{
closed = 1;
nodes = (
"354 521 LINE SMOOTH",
"424 521 OFFCURVE",
"441 510 OFFCURVE",
"441 468 CURVE SMOOTH",
"441 104 LINE",
"283 104 LINE SMOOTH",
"217 104 OFFCURVE",
"202 114 OFFCURVE",
"202 157 CURVE SMOOTH",
"202 521 LINE"
);
}
);
width = 644;
}
);
leftKerningGroup = zero;
rightKerningGroup = zero;
unicode = 0030;
},
{
color = 10;
glyphname = one;
layers = (
{
hints = (
{
horizontal = 1;
origin = "{0, 9}";
target = "{0, 8}";
},
{
origin = "{0, 7}";
target = "{0, 2}";
},
{
horizontal = 1;
origin = "{0, 9}";
target = up;
type = BottomGhost;
},
{
horizontal = 1;
origin = "{0, 3}";
target = down;
type = TopGhost;
}
);
layerId = "D5343206-61BD-433B-AB67-A494CBABC038";
paths = (
{
closed = 1;
nodes = (
"449 0 LINE",
"449 116 LINE",
"327 116 LINE",
"327 640 LINE",
"21 610 LINE",
"21 485 LINE",
"187 502 LINE",
"187 116 LINE",
"31 116 LINE",
"31 0 LINE"
);
}
);
width = 475;
}
);
leftKerningGroup = one;
rightKerningGroup = one;
unicode = 0031;
},
{
color = 10;
glyphname = two;
layers = (
{
hints = (
{
horizontal = 1;
origin = "{0, 24}";
target = "{0, 2}";
},
{
horizontal = 1;
origin = "{0, 9}";
target = "{0, 16}";
},
{
origin = "{0, 24}";
target = "{0, 2}";
},
{
origin = "{0, 20}";
target = "{0, 6}";
},
{
horizontal = 1;
origin = "{0, 24}";
target = up;
type = BottomGhost;
},
{
horizontal = 1;
origin = "{0, 9}";
target = down;
type = TopGhost;
}
);
layerId = "D5343206-61BD-433B-AB67-A494CBABC038";
paths = (
{
closed = 1;
nodes = (
"505 0 LINE",
"505 116 LINE",
"180 116 LINE",
"180 191 LINE",
"476 312 OFFCURVE",
"516 345 OFFCURVE",
"516 473 CURVE SMOOTH",
"516 588 OFFCURVE",
"444 640 OFFCURVE",
"284 640 CURVE SMOOTH",
"209 640 OFFCURVE",
"128 630 OFFCURVE",
"60 612 CURVE",
"79 502 LINE",
"141 514 OFFCURVE",
"214 521 OFFCURVE",
"272 521 CURVE SMOOTH",
"317 521 OFFCURVE",
"345 519 OFFCURVE",
"366 514 CURVE",
"366 397 LINE",
"89 284 OFFCURVE",
"47 248 OFFCURVE",
"47 111 CURVE SMOOTH",
"47 0 LINE"
);
}
);
width = 568;
}
);
leftKerningGroup = two;
rightKerningGroup = two;
unicode = 0032;
},
{
color = 10;
glyphname = three;
layers = (
{
hints = (
{
horizontal = 1;
origin = "{0, 37}";
target = "{0, 30}";
},
{
horizontal = 1;
origin = "{0, 12}";
target = "{0, 19}";
},
{
origin = "{0, 27}";
target = "{0, 2}";
},
{
horizontal = 1;
origin = "{0, 37}";
target = up;
type = BottomGhost;
},
{
horizontal = 1;
origin = "{0, 12}";
target = down;
type = TopGhost;
}
);
layerId = "D5343206-61BD-433B-AB67-A494CBABC038";
paths = (
{
closed = 1;
nodes = (
"412 -15 OFFCURVE",
"481 35 OFFCURVE",
"481 163 CURVE SMOOTH",
"481 237 OFFCURVE",
"453 285 OFFCURVE",
"395 312 CURVE",
"395 317 LINE",
"451 347 OFFCURVE",
"481 402 OFFCURVE",
"481 475 CURVE SMOOTH",
"481 586 OFFCURVE",
"409 640 OFFCURVE",
"259 640 CURVE SMOOTH",
"185 640 OFFCURVE",
"105 630 OFFCURVE",
"38 612 CURVE",
"56 502 LINE",
"110 514 OFFCURVE",
"181 521 OFFCURVE",
"241 521 CURVE SMOOTH",
"285 521 OFFCURVE",
"311 519 OFFCURVE",
"331 514 CURVE",
"331 381 LINE",
"158 352 LINE",
"158 278 LINE",
"331 254 LINE",
"331 112 LINE",
"310 107 OFFCURVE",
"279 105 OFFCURVE",
"227 105 CURVE SMOOTH",
"166 105 OFFCURVE",
"95 112 OFFCURVE",
"40 124 CURVE",
"22 14 LINE",
"88 -4 OFFCURVE",
"167 -15 OFFCURVE",
"239 -15 CURVE SMOOTH"
);
}
);
width = 523;
}
);
leftKerningGroup = three;
rightKerningGroup = three;
unicode = 0033;
},
{
color = 10;
glyphname = four;
layers = (
{
hints = (
{
horizontal = 1;
origin = "{0, 9}";
target = "{1, 3}";
},
{
horizontal = 1;
origin = "{0, 7}";
target = "{1, 0}";
},
{
origin = "{0, 0}";
target = "{0, 1}";
},
{
horizontal = 1;
origin = "{0, 0}";
target = up;
type = BottomGhost;
},
{
horizontal = 1;
origin = "{0, 7}";
target = down;
type = TopGhost;
}
);
layerId = "D5343206-61BD-433B-AB67-A494CBABC038";
paths = (
{
closed = 1;
nodes = (
"347 0 LINE",
"487 0 LINE",
"487 126 LINE",
"553 126 LINE",
"553 242 LINE",
"487 242 LINE",
"487 625 LINE",
"224 625 LINE",
"22 204 LINE",
"22 126 LINE",
"347 126 LINE"
);
},
{
closed = 1;
nodes = (
"312 520 LINE",
"347 520 LINE",
"347 242 LINE",
"176 242 LINE"
);
}
);
width = 595;
}
);
leftKerningGroup = four;
rightKerningGroup = four;
unicode = 0034;
},
{
color = 10;
glyphname = five;
layers = (
{
hints = (
{
horizontal = 1;
origin = "{0, 26}";
target = "{0, 19}";
},
{
horizontal = 1;
origin = "{0, 7}";
target = "{0, 10}";
},
{
origin = "{0, 11}";
target = "{0, 6}";
},
{
origin = "{0, 16}";
target = "{0, 2}";
},
{
horizontal = 1;
origin = "{0, 26}";
target = up;
type = BottomGhost;
},
{
horizontal = 1;
origin = "{0, 10}";
target = down;
type = TopGhost;
}
);
layerId = "D5343206-61BD-433B-AB67-A494CBABC038";
paths = (
{
closed = 1;
nodes = (
"439 -15 OFFCURVE",
"512 43 OFFCURVE",
"512 172 CURVE SMOOTH",
"512 295 OFFCURVE",
"454 343 OFFCURVE",
"281 361 CURVE SMOOTH",
"222 368 LINE",
"222 509 LINE",
"469 509 LINE",
"480 625 LINE",
"82 625 LINE",
"72 373 LINE",
"72 284 OFFCURVE",
"110 259 OFFCURVE",
"282 241 CURVE SMOOTH",
"361 233 LINE",
"361 111 LINE",
"337 106 OFFCURVE",
"306 104 OFFCURVE",
"254 104 CURVE SMOOTH",
"201 104 OFFCURVE",
"135 111 OFFCURVE",
"71 123 CURVE",
"52 13 LINE",
"117 -5 OFFCURVE",
"197 -15 OFFCURVE",
"280 -15 CURVE SMOOTH"
);
}
);
width = 554;
}
);
leftKerningGroup = five;
rightKerningGroup = five;
unicode = 0035;
},
{
color = 10;
glyphname = six;
layers = (
{
hints = (
{
horizontal = 1;
origin = "{1, 20}";
target = "{0, 4}";
},
{
horizontal = 1;
origin = "{0, 8}";
target = "{1, 3}";
},
{
horizontal = 1;
origin = "{1, 14}";
target = "{1, 7}";
},
{
origin = "{1, 17}";
target = "{0, 4}";
},
{
origin = "{0, 0}";
target = "{1, 23}";
},
{
horizontal = 1;
origin = "{1, 20}";
target = up;
type = BottomGhost;
},
{
horizontal = 1;
origin = "{1, 14}";
target = down;
type = TopGhost;
}
);
layerId = "D5343206-61BD-433B-AB67-A494CBABC038";
paths = (
{
closed = 1;
nodes = (
"387 137 LINE SMOOTH",
"387 103 OFFCURVE",
"377 95 OFFCURVE",
"333 95 CURVE SMOOTH",
"197 95 LINE",
"197 232 LINE SMOOTH",
"197 266 OFFCURVE",
"207 274 OFFCURVE",
"251 274 CURVE SMOOTH",
"387 274 LINE"
);
},
{
closed = 1;
nodes = (
"537 323 OFFCURVE",
"468 379 OFFCURVE",
"306 379 CURVE SMOOTH",
"197 379 LINE",
"197 513 LINE",
"216 518 OFFCURVE",
"265 521 OFFCURVE",
"322 521 CURVE SMOOTH",
"373 521 OFFCURVE",
"445 513 OFFCURVE",
"494 502 CURVE",
"512 612 LINE",
"474 625 OFFCURVE",
"377 640 OFFCURVE",
"326 640 CURVE SMOOTH",
"111 640 OFFCURVE",
"47 566 OFFCURVE",
"47 312 CURVE SMOOTH",
"47 53 OFFCURVE",
"99 -15 OFFCURVE",
"292 -15 CURVE SMOOTH",
"470 -15 OFFCURVE",
"537 42 OFFCURVE",
"537 191 CURVE SMOOTH"
);
}
);
width = 584;
}
);
leftKerningGroup = six;
rightKerningGroup = six;
unicode = 0036;
},
{
color = 10;
glyphname = seven;
layers = (
{
hints = (
{
horizontal = 1;
origin = "{0, 3}";
target = "{0, 2}";
},
{
horizontal = 1;
origin = "{0, 5}";
target = up;
type = BottomGhost;
},
{
horizontal = 1;
origin = "{0, 2}";
target = down;
type = TopGhost;
}
);
layerId = "D5343206-61BD-433B-AB67-A494CBABC038";
paths = (
{
closed = 1;
nodes = (
"448 538 LINE",
"448 625 LINE",
"17 625 LINE",
"28 509 LINE",
"295 509 LINE",
"102 0 LINE",
"245 0 LINE"
);
}
);
width = 480;
}
);
leftKerningGroup = seven;
rightKerningGroup = seven;
unicode = 0037;
},
{
color = 10;
glyphname = eight;
layers = (
{
hints = (
{
horizontal = 1;
origin = "{0, 12}";
target = "{1, 5}";
},
{
horizontal = 1;
origin = "{0, 25}";
target = "{2, 4}";
},
{
origin = "{0, 9}";
target = "{1, 5}";
},
{
origin = "{1, 0}";
target = "{0, 22}";
},
{
origin = "{1, 1}";
target = "{0, 15}";
},
{
horizontal = 1;
origin = "{0, 12}";
target = up;
type = BottomGhost;
},
{
horizontal = 1;
origin = "{0, 25}";
target = down;
type = TopGhost;
}
);
layerId = "D5343206-61BD-433B-AB67-A494CBABC038";
paths = (
{
closed = 1;
nodes = (
"132 640 OFFCURVE",
"62 588 OFFCURVE",
"62 465 CURVE SMOOTH",
"62 407 OFFCURVE",
"80 356 OFFCURVE",
"110 328 CURVE",
"110 321 LINE",
"72 293 OFFCURVE",
"47 233 OFFCURVE",
"47 171 CURVE SMOOTH",
"47 29 OFFCURVE",
"108 -15 OFFCURVE",
"298 -15 CURVE SMOOTH",
"487 -15 OFFCURVE",
"547 29 OFFCURVE",
"547 171 CURVE SMOOTH",
"547 225 OFFCURVE",
"523 277 OFFCURVE",
"487 300 CURVE",
"487 307 LINE",
"515 341 OFFCURVE",
"533 400 OFFCURVE",
"533 465 CURVE SMOOTH",
"533 589 OFFCURVE",
"463 640 OFFCURVE",
"298 640 CURVE SMOOTH"
);
},
{
closed = 1;
nodes = (
"397 216 LINE",
"396 133 LINE SMOOTH",
"396 102 OFFCURVE",
"384 95 OFFCURVE",
"337 95 CURVE SMOOTH",
"197 95 LINE",
"197 263 LINE SMOOTH",
"197 275 OFFCURVE",
"201 280 OFFCURVE",
"209 280 CURVE SMOOTH",
"215 280 OFFCURVE",
"221 278 OFFCURVE",
"231 274 CURVE SMOOTH"
);
},
{
closed = 1;
nodes = (
"197 414 LINE",
"197 492 LINE SMOOTH",
"198 523 OFFCURVE",
"209 530 OFFCURVE",
"257 530 CURVE SMOOTH",
"397 530 LINE",
"397 370 LINE SMOOTH",
"397 360 OFFCURVE",
"387 352 OFFCURVE",
"375 352 CURVE SMOOTH",
"370 352 OFFCURVE",
"366 354 OFFCURVE",
"358 356 CURVE SMOOTH"
);
}
);
width = 594;
}
);
leftKerningGroup = eight;
rightKerningGroup = eight;
unicode = 0038;
},
{
color = 10;
glyphname = nine;
layers = (
{
hints = (
{
horizontal = 1;
origin = "{1, 14}";
target = "{1, 7}";
},
{
horizontal = 1;
origin = "{1, 2}";
target = "{0, 5}";
},
{
horizontal = 1;
origin = "{0, 9}";
target = "{1, 20}";
},
{
origin = "{1, 23}";
target = "{0, 8}";
},
{
origin = "{1, 4}";
target = "{1, 17}";
},
{
horizontal = 1;
origin = "{1, 14}";
target = up;
type = BottomGhost;
},
{
horizontal = 1;
origin = "{1, 20}";
target = down;
type = TopGhost;
}
);
layerId = "D5343206-61BD-433B-AB67-A494CBABC038";
paths = (
{
closed = 1;
nodes = (
"339 530 LINE SMOOTH",
"377 530 OFFCURVE",
"387 522 OFFCURVE",
"387 488 CURVE SMOOTH",
"387 352 LINE",
"245 352 LINE SMOOTH",
"206 352 OFFCURVE",
"197 360 OFFCURVE",
"197 394 CURVE SMOOTH",
"197 530 LINE"
);
},
{
closed = 1;
nodes = (
"47 304 OFFCURVE",
"116 247 OFFCURVE",
"278 247 CURVE SMOOTH",
"387 247 LINE",
"387 113 LINE",
"369 108 OFFCURVE",
"318 105 OFFCURVE",
"261 105 CURVE SMOOTH",
"208 105 OFFCURVE",
"132 113 OFFCURVE",
"80 124 CURVE",
"62 14 LINE",
"103 0 OFFCURVE",
"204 -15 OFFCURVE",
"258 -15 CURVE SMOOTH",
"473 -15 OFFCURVE",
"537 59 OFFCURVE",
"537 314 CURVE SMOOTH",
"537 572 OFFCURVE",
"485 640 OFFCURVE",
"292 640 CURVE SMOOTH",
"115 640 OFFCURVE",
"47 583 OFFCURVE",
"47 435 CURVE SMOOTH"
);
}
);
width = 584;
}
);
leftKerningGroup = nine;
rightKerningGroup = nine;
unicode = 0039;
},
{
color = 10;
glyphname = fraction;
layers = (
{
layerId = "D5343206-61BD-433B-AB67-A494CBABC038";
paths = (
{
closed = 1;
nodes = (
"273 665 LINE",
"240 665 LINE",
"212 665 OFFCURVE",
"204 657 OFFCURVE",
"197 640 CURVE SMOOTH",
"-54 -40 LINE",
"-21 -40 LINE SMOOTH",
"7 -40 OFFCURVE",
"13 -31 OFFCURVE",
"22 -15 CURVE"
);
}
);
width = 219;
}
);
leftKerningGroup = fraction;
rightKerningGroup = fraction;
unicode = 2044;
},
{
color = 10;
glyphname = zero.dnom;
layers = (
{
layerId = "D5343206-61BD-433B-AB67-A494CBABC038";
paths = (
{
closed = 1;
nodes = (
"63 27 OFFCURVE",
"93 -10 OFFCURVE",
"247 -10 CURVE SMOOTH",
"401 -10 OFFCURVE",
"430 27 OFFCURVE",
"430 203 CURVE SMOOTH",
"430 378 OFFCURVE",
"399 416 OFFCURVE",
"247 416 CURVE SMOOTH",
"95 416 OFFCURVE",
"63 377 OFFCURVE",
"63 203 CURVE SMOOTH"
);
},
{
closed = 1;
nodes = (
"273 341 LINE SMOOTH",
"324 341 OFFCURVE",
"337 334 OFFCURVE",
"337 307 CURVE SMOOTH",
"337 65 LINE",
"216 65 LINE SMOOTH",
"166 65 OFFCURVE",
"155 71 OFFCURVE",
"155 99 CURVE SMOOTH",
"155 341 LINE"
);
}
);
width = 493;
}
);
leftKerningGroup = zero.dnom;
rightKerningGroup = zero.dnom;
userData = {
RMXScaler = {
source = zero;
};
};
},
{
color = 10;
glyphname = one.dnom;
layers = (
{
hints = (
{
horizontal = 1;
origin = "{0, 9}";
target = "{0, 8}";
},
{
origin = "{0, 7}";
target = "{0, 2}";
}
);
layerId = "D5343206-61BD-433B-AB67-A494CBABC038";
paths = (
{
closed = 1;
nodes = (
"330 0 LINE",
"330 72 LINE",
"244 72 LINE",
"244 416 LINE",
"44 397 LINE",
"44 319 LINE",
"158 329 LINE",
"158 72 LINE",
"51 72 LINE",
"51 0 LINE"
);
}
);
width = 378;
}
);
leftKerningGroup = one.dnom;
rightKerningGroup = one.dnom;
userData = {
RMXScaler = {
source = one;
};
};
},
{
color = 10;
glyphname = two.dnom;
layers = (
{
hints = (
{
horizontal = 1;
origin = "{0, 24}";
target = "{0, 2}";
},
{
horizontal = 1;
origin = "{0, 16}";
target = "{0, 9}";
},
{
origin = "{0, 24}";
target = "{0, 2}";
},
{
origin = "{0, 20}";
target = "{0, 6}";
}
);
layerId = "D5343206-61BD-433B-AB67-A494CBABC038";
paths = (
{
closed = 1;
nodes = (
"371 0 LINE",
"371 72 LINE",
"142 72 LINE",
"142 125 LINE",
"357 206 OFFCURVE",
"378 227 OFFCURVE",
"378 308 CURVE SMOOTH",
"378 382 OFFCURVE",
"330 416 OFFCURVE",
"221 416 CURVE SMOOTH",
"170 416 OFFCURVE",
"115 409 OFFCURVE",
"70 398 CURVE",
"81 329 LINE",
"127 337 OFFCURVE",
"179 341 OFFCURVE",
"220 341 CURVE SMOOTH",
"251 341 OFFCURVE",
"271 340 OFFCURVE",
"286 337 CURVE",
"286 258 LINE",
"85 184 OFFCURVE",
"60 161 OFFCURVE",
"60 70 CURVE SMOOTH",
"60 0 LINE"
);
}
);
width = 441;
}
);
leftKerningGroup = two.dnom;
rightKerningGroup = two.dnom;
userData = {
RMXScaler = {
source = two;
};
};
},
{
color = 10;
glyphname = three.dnom;
layers = (
{
hints = (
{
horizontal = 1;
origin = "{0, 37}";
target = "{0, 30}";
},
{
horizontal = 1;
origin = "{0, 19}";
target = "{0, 12}";
},
{
origin = "{0, 27}";
target = "{0, 2}";
}
);
layerId = "D5343206-61BD-433B-AB67-A494CBABC038";
paths = (
{
closed = 1;
nodes = (
"319 -10 OFFCURVE",
"356 28 OFFCURVE",
"356 106 CURVE SMOOTH",
"356 154 OFFCURVE",
"338 185 OFFCURVE",
"298 203 CURVE",
"298 206 LINE",
"335 225 OFFCURVE",
"356 261 OFFCURVE",
"356 308 CURVE SMOOTH",
"356 381 OFFCURVE",
"307 416 OFFCURVE",
"207 416 CURVE SMOOTH",
"155 416 OFFCURVE",
"102 409 OFFCURVE",
"59 398 CURVE",
"69 329 LINE",
"110 337 OFFCURVE",
"161 341 OFFCURVE",
"201 341 CURVE SMOOTH",
"231 341 OFFCURVE",
"250 340 OFFCURVE",
"263 337 CURVE",
"263 247 LINE",
"142 228 LINE",
"142 182 LINE",
"263 166 LINE",
"263 70 LINE",
"248 67 OFFCURVE",
"225 65 OFFCURVE",
"189 65 CURVE SMOOTH",
"149 65 OFFCURVE",
"98 70 OFFCURVE",
"57 78 CURVE",
"46 9 LINE",
"89 -3 OFFCURVE",
"141 -10 OFFCURVE",
"190 -10 CURVE SMOOTH"
);
}
);
width = 414;
}
);
leftKerningGroup = three.dnom;
rightKerningGroup = three.dnom;
userData = {
RMXScaler = {
source = three;
};
};
},
{
color = 10;
glyphname = four.dnom;
layers = (
{
hints = (
{
horizontal = 1;
origin = "{0, 9}";
target = "{1, 3}";
},
{
horizontal = 1;
origin = "{1, 0}";
target = "{0, 7}";
},
{
origin = "{0, 0}";
target = "{0, 1}";
},
{
horizontal = 1;
origin = "{0, 0}";
target = up;
type = BottomGhost;
}
);
layerId = "D5343206-61BD-433B-AB67-A494CBABC038";
paths = (
{
closed = 1;
nodes = (
"275 0 LINE",
"360 0 LINE",
"360 83 LINE",
"407 83 LINE",
"407 155 LINE",
"360 155 LINE",
"360 406 LINE",
"195 406 LINE",
"46 131 LINE",
"46 83 LINE",
"275 83 LINE"
);
},
{
closed = 1;
nodes = (
"249 341 LINE",
"275 341 LINE",
"275 155 LINE",
"143 155 LINE"
);
}
);
width = 465;
}
);
leftKerningGroup = four.dnom;
rightKerningGroup = four.dnom;
userData = {
RMXScaler = {
source = four;
};
};
},
{
color = 10;
glyphname = five.dnom;
layers = (
{
hints = (
{
horizontal = 1;
origin = "{0, 26}";
target = "{0, 19}";
},
{
horizontal = 1;
place = "{96.6, 39}";
},
{
horizontal = 1;
origin = "{0, 7}";
target = "{0, 10}";
},
{
origin = "{0, 11}";
target = "{0, 6}";
},
{
origin = "{0, 16}";
target = "{0, 2}";
}
);
layerId = "D5343206-61BD-433B-AB67-A494CBABC038";
paths = (
{
closed = 1;
nodes = (
"324 -10 OFFCURVE",
"373 28 OFFCURVE",
"373 111 CURVE SMOOTH",
"373 191 OFFCURVE",
"334 222 OFFCURVE",
"211 234 CURVE SMOOTH",
"170 238 LINE",
"170 334 LINE",
"345 334 LINE",
"352 406 LINE",
"84 406 LINE",
"77 242 LINE",
"77 185 OFFCURVE",
"103 170 OFFCURVE",
"224 158 CURVE SMOOTH",
"281 152 LINE",
"281 69 LINE",
"264 66 OFFCURVE",
"243 65 OFFCURVE",
"207 65 CURVE SMOOTH",
"167 65 OFFCURVE",
"118 69 OFFCURVE",
"75 77 CURVE",
"63 9 LINE",
"107 -4 OFFCURVE",
"161 -10 OFFCURVE",
"216 -10 CURVE SMOOTH"
);
}
);
width = 431;
}
);
leftKerningGroup = five.dnom;
rightKerningGroup = five.dnom;
userData = {
RMXScaler = {
source = five;
};
};
},
{
color = 10;
glyphname = six.dnom;
layers = (
{
hints = (
{
horizontal = 1;
origin = "{1, 20}";
target = "{0, 4}";
},
{
horizontal = 1;
origin = "{0, 8}";
target = "{1, 3}";
},
{
horizontal = 1;
origin = "{1, 7}";
target = "{1, 14}";
},
{
origin = "{1, 17}";
target = "{0, 4}";
},
{
origin = "{0, 0}";
target = "{1, 23}";
}
);
layerId = "D5343206-61BD-433B-AB67-A494CBABC038";
paths = (
{
closed = 1;
nodes = (
"301 87 LINE SMOOTH",
"301 65 OFFCURVE",
"293 59 OFFCURVE",
"260 59 CURVE SMOOTH",
"153 59 LINE",
"153 152 LINE SMOOTH",
"153 174 OFFCURVE",
"161 180 OFFCURVE",
"194 180 CURVE SMOOTH",
"301 180 LINE"
);
},
{
closed = 1;
nodes = (
"393 208 OFFCURVE",
"347 245 OFFCURVE",
"240 245 CURVE SMOOTH",
"152 245 LINE",
"152 336 LINE",
"165 339 OFFCURVE",
"203 341 OFFCURVE",
"242 341 CURVE SMOOTH",
"278 341 OFFCURVE",
"330 336 OFFCURVE",
"364 329 CURVE",
"375 398 LINE",
"347 407 OFFCURVE",
"281 416 OFFCURVE",
"247 416 CURVE SMOOTH",
"101 416 OFFCURVE",
"60 368 OFFCURVE",
"60 203 CURVE SMOOTH",
"60 33 OFFCURVE",
"92 -10 OFFCURVE",
"226 -10 CURVE SMOOTH",
"348 -10 OFFCURVE",
"393 27 OFFCURVE",
"393 124 CURVE SMOOTH"
);
}
);
width = 453;
}
);
leftKerningGroup = six.dnom;
rightKerningGroup = six.dnom;
userData = {
RMXScaler = {
source = six;
};
};
},
{
color = 10;
glyphname = seven.dnom;
layers = (
{
hints = (
{
horizontal = 1;
origin = "{0, 3}";
target = "{0, 2}";
},
{
horizontal = 1;
origin = "{0, 5}";
target = up;
type = BottomGhost;
}
);
layerId = "D5343206-61BD-433B-AB67-A494CBABC038";
paths = (
{
closed = 1;
nodes = (
"336 352 LINE",
"336 406 LINE",
"43 406 LINE",
"50 334 LINE",
"243 334 LINE",
"105 0 LINE",
"192 0 LINE"
);
}
);
width = 388;
}
);
leftKerningGroup = seven.dnom;
rightKerningGroup = seven.dnom;
userData = {
RMXScaler = {
source = seven;
};
};
},
{
color = 10;
glyphname = eight.dnom;
layers = (
{
hints = (
{
horizontal = 1;
origin = "{0, 12}";
target = "{1, 5}";
},
{
horizontal = 1;
origin = "{2, 4}";
target = "{0, 25}";
},
{
origin = "{0, 9}";
target = "{1, 5}";
},
{
origin = "{1, 0}";
target = "{0, 22}";
},
{
origin = "{0, 2}";
target = "{1, 5}";
},
{
origin = "{1, 1}";
target = "{0, 15}";
}
);
layerId = "D5343206-61BD-433B-AB67-A494CBABC038";
paths = (
{
closed = 1;
nodes = (
"127 416 OFFCURVE",
"69 390 OFFCURVE",
"69 303 CURVE SMOOTH",
"69 265 OFFCURVE",
"82 232 OFFCURVE",
"103 214 CURVE",
"103 209 LINE",
"78 192 OFFCURVE",
"60 153 OFFCURVE",
"60 111 CURVE SMOOTH",
"60 17 OFFCURVE",
"101 -10 OFFCURVE",
"231 -10 CURVE SMOOTH",
"362 -10 OFFCURVE",
"401 17 OFFCURVE",
"401 111 CURVE SMOOTH",
"401 146 OFFCURVE",
"386 179 OFFCURVE",
"361 195 CURVE",
"361 199 LINE",
"380 220 OFFCURVE",
"392 258 OFFCURVE",
"392 303 CURVE SMOOTH",
"392 390 OFFCURVE",
"335 416 OFFCURVE",
"231 416 CURVE SMOOTH"
);
},
{
closed = 1;
nodes = (
"309 141 LINE",
"309 84 LINE SMOOTH",
"309 62 OFFCURVE",
"295 59 OFFCURVE",
"265 59 CURVE SMOOTH",
"153 59 LINE",
"153 174 LINE SMOOTH",
"153 181 OFFCURVE",
"156 185 OFFCURVE",
"162 185 CURVE SMOOTH",
"166 185 OFFCURVE",
"171 183 OFFCURVE",
"177 181 CURVE SMOOTH"
);
},
{
closed = 1;
nodes = (
"153 269 LINE",
"153 322 LINE SMOOTH",
"153 344 OFFCURVE",
"167 347 OFFCURVE",
"198 347 CURVE SMOOTH",
"309 347 LINE",
"309 238 LINE SMOOTH",
"309 232 OFFCURVE",
"303 227 OFFCURVE",
"294 227 CURVE SMOOTH",
"290 227 OFFCURVE",
"287 228 OFFCURVE",
"282 229 CURVE SMOOTH"
);
}
);
width = 462;
}
);
leftKerningGroup = eight.dnom;
rightKerningGroup = eight.dnom;
userData = {
RMXScaler = {
source = eight;
};
};
},
{
color = 10;
glyphname = nine.dnom;
layers = (
{
hints = (
{
horizontal = 1;
origin = "{1, 14}";
target = "{1, 7}";
},
{
horizontal = 1;
origin = "{1, 2}";
target = "{0, 5}";
},
{
horizontal = 1;
origin = "{0, 9}";
target = "{1, 20}";
},
{
origin = "{1, 23}";
target = "{0, 8}";
},
{
origin = "{1, 4}";
target = "{1, 17}";
}
);
layerId = "D5343206-61BD-433B-AB67-A494CBABC038";
paths = (
{
closed = 1;
nodes = (
"266 348 LINE SMOOTH",
"293 348 OFFCURVE",
"301 343 OFFCURVE",
"301 321 CURVE SMOOTH",
"301 228 LINE",
"188 228 LINE SMOOTH",
"160 228 OFFCURVE",
"153 233 OFFCURVE",
"153 255 CURVE SMOOTH",
"153 348 LINE"
);
},
{
closed = 1;
nodes = (
"60 198 OFFCURVE",
"106 162 OFFCURVE",
"213 162 CURVE SMOOTH",
"300 162 LINE",
"300 71 LINE",
"288 67 OFFCURVE",
"250 65 OFFCURVE",
"210 65 CURVE SMOOTH",
"171 65 OFFCURVE",
"118 70 OFFCURVE",
"82 78 CURVE",
"71 9 LINE",
"100 0 OFFCURVE",
"169 -9 OFFCURVE",
"205 -9 CURVE SMOOTH",
"352 -9 OFFCURVE",
"393 38 OFFCURVE",
"393 204 CURVE SMOOTH",
"393 374 OFFCURVE",
"360 417 OFFCURVE",
"226 417 CURVE SMOOTH",
"105 417 OFFCURVE",
"60 380 OFFCURVE",
"60 283 CURVE SMOOTH"
);
}
);
width = 453;
}
);
leftKerningGroup = nine.dnom;
rightKerningGroup = nine.dnom;
userData = {
RMXScaler = {
source = nine;
};
};
},
{
color = 4;
glyphname = "zero-ar";
layers = (
{
layerId = "D5343206-61BD-433B-AB67-A494CBABC038";
paths = (
{
closed = 1;
nodes = (
"62 266 OFFCURVE",
"77 251 OFFCURVE",
"134 251 CURVE SMOOTH",
"192 251 OFFCURVE",
"206 266 OFFCURVE",
"206 326 CURVE SMOOTH",
"206 386 OFFCURVE",
"191 402 OFFCURVE",
"134 402 CURVE SMOOTH",
"77 402 OFFCURVE",
"62 387 OFFCURVE",
"62 326 CURVE SMOOTH"
);
}
);
width = 267;
}
);
leftMetricsKey = "=dotcenter-ar+30";
rightMetricsKey = "=dotcenter-ar+30";
unicode = 0660;
},
{
color = 4;
glyphname = "one-ar";
layers = (
{
hints = (
{
horizontal = 1;
origin = "{0, 3}";
target = down;
type = TopGhost;
},
{
origin = "{0, 0}";
target = "{0, 1}";
}
);
layerId = "D5343206-61BD-433B-AB67-A494CBABC038";
paths = (
{
closed = 1;
nodes = (
"74 0 LINE",
"186 0 LINE",
"186 625 LINE",
"74 625 LINE"
);
}
);
width = 260;
}
);
leftMetricsKey = H;
rightMetricsKey = H;
unicode = 0661;
},
{
color = 4;
glyphname = "two-ar";
layers = (
{
hints = (
{
horizontal = 1;
origin = "{0, 7}";
target = up;
type = BottomGhost;
},
{
horizontal = 1;
origin = "{0, 12}";
target = "{0, 1}";
},
{
horizontal = 1;
origin = "{0, 6}";
target = down;
type = TopGhost;
},
{
origin = "{0, 7}";
target = "{0, 8}";
},
{
origin = "{0, 0}";
target = "{0, 15}";
}
);
layerId = "D5343206-61BD-433B-AB67-A494CBABC038";
paths = (
{
closed = 1;
nodes = (
"375 310 LINE",
"263 310 LINE SMOOTH",
"210 310 OFFCURVE",
"186 323 OFFCURVE",
"186 364 CURVE SMOOTH",
"186 625 LINE",
"74 625 LINE",
"74 0 LINE",
"186 0 LINE",
"186 221 LINE",
"234 196 OFFCURVE",
"298 183 OFFCURVE",
"355 183 CURVE SMOOTH",
"449 183 OFFCURVE",
"487 218 OFFCURVE",
"487 280 CURVE SMOOTH",
"487 625 LINE",
"375 625 LINE"
);
}
);
width = 543;
}
);
leftMetricsKey = H;
unicode = 0662;
},
{
color = 4;
glyphname = "three-ar";
layers = (
{
hints = (
{
horizontal = 1;
origin = "{0, 30}";
target = up;
type = BottomGhost;
},
{
horizontal = 1;
origin = "{0, 4}";
target = "{0, 24}";
},
{
horizontal = 1;
origin = "{0, 29}";
target = down;
type = TopGhost;
},
{
origin = "{0, 30}";
target = "{0, 0}";
},
{
origin = "{0, 23}";
target = "{0, 21}";
},
{
origin = "{0, 16}";
target = "{0, 13}";
}
);
layerId = "D5343206-61BD-433B-AB67-A494CBABC038";
paths = (
{
closed = 1;
nodes = (
"186 0 LINE",
"186 216 LINE",
"227 191 OFFCURVE",
"285 177 OFFCURVE",
"345 177 CURVE SMOOTH",
"410 177 OFFCURVE",
"453 194 OFFCURVE",
"472 226 CURVE",
"516 195 OFFCURVE",
"569 177 OFFCURVE",
"635 177 CURVE SMOOTH",
"726 177 OFFCURVE",
"767 211 OFFCURVE",
"767 274 CURVE SMOOTH",
"767 625 LINE",
"655 625 LINE",
"655 303 LINE",
"553 303 LINE SMOOTH",
"498 303 OFFCURVE",
"477 318 OFFCURVE",
"477 357 CURVE SMOOTH",
"477 625 LINE",
"365 625 LINE",
"365 303 LINE",
"263 303 LINE SMOOTH",
"208 303 OFFCURVE",
"186 318 OFFCURVE",
"186 357 CURVE SMOOTH",
"186 625 LINE",
"74 625 LINE",
"74 0 LINE"
);
}
);
width = 823;
}
);
leftMetricsKey = H;
unicode = 0663;
},
{
color = 4;
glyphname = "four-ar";
layers = (
{
hints = (
{
horizontal = 1;
origin = "{1, 3}";
target = "{1, 6}";
},
{
horizontal = 1;
origin = "{0, 14}";
target = "{0, 7}";
},
{
origin = "{0, 17}";
target = "{0, 0}";
},
{
horizontal = 1;
origin = "{0, 1}";
target = "{0, 2}";
}
);
layerId = "D5343206-61BD-433B-AB67-A494CBABC038";
paths = (
{
closed = 1;
nodes = (
"181 278 LINE",
"372 278 LINE",
"372 352 LINE",
"183 381 LINE",
"183 507 LINE",
"203 512 OFFCURVE",
"245 514 OFFCURVE",
"288 514 CURVE SMOOTH",
"345 514 OFFCURVE",
"416 507 OFFCURVE",
"473 495 CURVE",
"491 612 LINE",
"423 630 OFFCURVE",
"344 640 OFFCURVE",
"270 640 CURVE SMOOTH",
"131 640 OFFCURVE",
"64 589 OFFCURVE",
"64 472 CURVE SMOOTH",
"64 397 OFFCURVE",
"88 345 OFFCURVE",
"135 317 CURVE",
"135 312 LINE"
);
},
{
closed = 1;
nodes = (
"81 241 OFFCURVE",
"49 169 OFFCURVE",
"36 98 CURVE",
"36 0 LINE",
"498 0 LINE",
"498 126 LINE",
"158 126 LINE",
"171 188 OFFCURVE",
"204 250 OFFCURVE",
"257 312 CURVE",
"134 312 LINE"
);
}
);
width = 523;
}
);
unicode = 0664;
},
{
color = 4;
glyphname = "five-ar";
layers = (
{
layerId = "D5343206-61BD-433B-AB67-A494CBABC038";
paths = (
{
closed = 1;
nodes = (
"52 43 OFFCURVE",
"85 -15 OFFCURVE",
"307 -15 CURVE SMOOTH",
"528 -15 OFFCURVE",
"561 42 OFFCURVE",
"561 312 CURVE SMOOTH",
"561 580 OFFCURVE",
"525 640 OFFCURVE",
"307 640 CURVE SMOOTH",
"87 640 OFFCURVE",
"52 579 OFFCURVE",
"52 312 CURVE SMOOTH"
);
},
{
closed = 1;
nodes = (
"442 168 LINE SMOOTH",
"442 125 OFFCURVE",
"418 115 OFFCURVE",
"365 115 CURVE SMOOTH",
"171 115 LINE",
"171 457 LINE SMOOTH",
"171 499 OFFCURVE",
"198 510 OFFCURVE",
"254 510 CURVE SMOOTH",
"442 510 LINE"
);
}
);
width = 613;
}
);
leftMetricsKey = zero;
rightMetricsKey = zero;
unicode = 0665;
},
{
color = 4;
glyphname = "six-ar";
layers = (
{
color = 1;
hints = (
{
horizontal = 1;
origin = "{0, 3}";
target = up;
type = BottomGhost;
},
{
horizontal = 1;
origin = "{0, 1}";
target = "{0, 0}";
},
{
origin = "{0, 3}";
target = "{0, 4}";
}
);
layerId = "D5343206-61BD-433B-AB67-A494CBABC038";
paths = (
{
closed = 1;
nodes = (
"11 625 LINE",
"11 499 LINE",
"239 499 LINE",
"239 0 LINE",
"351 0 LINE",
"351 625 LINE"
);
}
);
width = 425;
}
);
leftMetricsKey = T;
rightMetricsKey = H;
unicode = 0666;
},
{
color = 4;
glyphname = "seven-ar";
layers = (
{
layerId = "D5343206-61BD-433B-AB67-A494CBABC038";
paths = (
{
closed = 1;
nodes = (
"65 417 OFFCURVE",
"121 208 OFFCURVE",
"187 0 CURVE",
"374 0 LINE",
"440 208 OFFCURVE",
"496 417 OFFCURVE",
"541 625 CURVE",
"413 625 LINE",
"380 456 OFFCURVE",
"338 287 OFFCURVE",
"285 118 CURVE",
"276 118 LINE",
"223 287 OFFCURVE",
"181 456 OFFCURVE",
"148 625 CURVE",
"20 625 LINE"
);
}
);
width = 561;
}
);
unicode = 0667;
},
{
color = 4;
glyphname = "nine-ar";
layers = (
{
hints = (
{
horizontal = 1;
origin = "{0, 0}";
target = up;
type = BottomGhost;
},
{
horizontal = 1;
origin = "{0, 9}";
target = "{1, 0}";
},
{
horizontal = 1;
origin = "{1, 7}";
target = "{0, 3}";
},
{
origin = "{0, 6}";
target = "{1, 3}";
},
{
origin = "{0, 0}";
target = "{0, 1}";
}
);
layerId = "D5343206-61BD-433B-AB67-A494CBABC038";
paths = (
{
closed = 1;
nodes = (
"340 0 LINE",
"452 0 LINE",
"452 625 LINE",
"205 625 LINE SMOOTH",
"61 625 OFFCURVE",
"18 567 OFFCURVE",
"18 398 CURVE SMOOTH",
"18 243 OFFCURVE",
"66 176 OFFCURVE",
"190 176 CURVE SMOOTH",
"340 176 LINE"
);
},
{
closed = 1;
nodes = (
"186 302 LINE SMOOTH",
"152 302 OFFCURVE",
"137 312 OFFCURVE",
"137 344 CURVE SMOOTH",
"137 449 LINE SMOOTH",
"137 481 OFFCURVE",
"152 491 OFFCURVE",
"186 491 CURVE SMOOTH",
"340 491 LINE",
"340 302 LINE"
);
}
);
width = 526;
}
);
leftMetricsKey = "=|P";
rightMetricsKey = H;
unicode = 0669;
},
{
color = 4;
glyphname = "four-persian";
layers = (
{
hints = (
{
horizontal = 1;
origin = "{0, 26}";
target = up;
type = BottomGhost;
},
{
horizontal = 1;
origin = "{0, 31}";
target = "{0, 20}";
},
{
horizontal = 1;
origin = "{0, 15}";
target = "{0, 8}";
},
{
horizontal = 1;
origin = "{0, 12}";
target = up;
type = BottomGhost;
},
{
horizontal = 1;
origin = "{0, 25}";
target = down;
type = TopGhost;
},
{
origin = "{0, 26}";
target = "{0, 27}";
},
{
origin = "{0, 19}";
target = "{0, 34}";
},
{
origin = "{0, 0}";
target = "{0, 40}";
}
);
layerId = "D5343206-61BD-433B-AB67-A494CBABC038";
paths = (
{
closed = 1;
nodes = (
"655 283 LINE",
"557 283 LINE SMOOTH",
"500 283 OFFCURVE",
"477 294 OFFCURVE",
"477 324 CURVE SMOOTH",
"477 506 LINE",
"498 512 OFFCURVE",
"536 514 OFFCURVE",
"570 514 CURVE SMOOTH",
"595 514 OFFCURVE",
"619 512 OFFCURVE",
"641 509 CURVE",
"655 632 LINE",
"626 637 OFFCURVE",
"596 640 OFFCURVE",
"566 640 CURVE SMOOTH",
"405 640 OFFCURVE",
"365 587 OFFCURVE",
"365 432 CURVE SMOOTH",
"365 283 LINE",
"267 283 LINE SMOOTH",
"208 283 OFFCURVE",
"186 295 OFFCURVE",
"186 333 CURVE SMOOTH",
"186 625 LINE",
"74 625 LINE",
"74 0 LINE",
"186 0 LINE",
"186 195 LINE",
"230 169 OFFCURVE",
"291 157 OFFCURVE",
"345 157 CURVE SMOOTH",
"410 157 OFFCURVE",
"455 173 OFFCURVE",
"476 203 CURVE",
"521 172 OFFCURVE",
"573 157 OFFCURVE",
"635 157 CURVE SMOOTH",
"729 157 OFFCURVE",
"767 192 OFFCURVE",
"767 254 CURVE SMOOTH",
"767 411 LINE",
"655 411 LINE"
);
}
);
width = 823;
}
);
leftMetricsKey = H;
unicode = 06F4;
},
{
color = 4;
glyphname = "four-persian.urdu";
layers = (
{
hints = (
{
horizontal = 1;
origin = "{0, 17}";
target = up;
type = BottomGhost;
},
{
horizontal = 1;
origin = "{0, 11}";
target = "{0, 4}";
},
{
horizontal = 1;
origin = "{0, 16}";
target = "{0, 4}";
},
{
origin = "{0, 17}";
target = "{0, 0}";
},
{
origin = "{0, 6}";
target = "{0, 7}";
}
);
layerId = "D5343206-61BD-433B-AB67-A494CBABC038";
paths = (
{
closed = 1;
nodes = (
"186 0 LINE",
"186 464 LINE SMOOTH",
"186 502 OFFCURVE",
"208 514 OFFCURVE",
"267 514 CURVE SMOOTH",
"353 514 LINE",
"353 355 LINE",
"465 355 LINE",
"465 538 LINE SMOOTH",
"465 601 OFFCURVE",
"427 640 OFFCURVE",
"333 640 CURVE SMOOTH",
"292 640 OFFCURVE",
"228 628 OFFCURVE",
"186 603 CURVE",
"186 625 LINE",
"74 625 LINE",
"74 0 LINE"
);
},
{
closed = 1;
nodes = (
"464 355 LINE",
"464 464 LINE SMOOTH",
"464 501 OFFCURVE",
"486 514 OFFCURVE",
"545 514 CURVE SMOOTH",
"602 514 LINE",
"624 640 LINE",
"553 640 OFFCURVE",
"494 619 OFFCURVE",
"442 578 CURVE"
);
}
);
width = 635;
}
);
leftMetricsKey = H;
},
{
color = 4;
glyphname = "five-persian";
layers = (
{
color = 1;
layerId = "D5343206-61BD-433B-AB67-A494CBABC038";
paths = (
{
closed = 1;
nodes = (
"242 0 LINE SMOOTH",
"292 0 OFFCURVE",
"324 18 OFFCURVE",
"342 58 CURVE",
"345 58 LINE",
"364 20 OFFCURVE",
"399 0 OFFCURVE",
"444 0 CURVE SMOOTH",
"595 0 LINE SMOOTH",
"627 0 OFFCURVE",
"645 16 OFFCURVE",
"645 44 CURVE SMOOTH",
"645 194 OFFCURVE",
"565 422 OFFCURVE",
"442 625 CURVE",
"333 580 LINE",
"420 431 OFFCURVE",
"479 280 OFFCURVE",
"506 126 CURVE",
"421 126 LINE SMOOTH",
"403 126 OFFCURVE",
"392 135 OFFCURVE",
"387 153 CURVE SMOOTH",
"362 248 LINE",
"324 248 LINE",
"299 153 LINE SMOOTH",
"295 135 OFFCURVE",
"284 126 OFFCURVE",
"265 126 CURVE SMOOTH",
"181 126 LINE",
"205 254 OFFCURVE",
"255 367 OFFCURVE",
"338 495 CURVE",
"203 495 LINE",
"113 352 OFFCURVE",
"42 155 OFFCURVE",
"42 44 CURVE SMOOTH",
"42 16 OFFCURVE",
"60 0 OFFCURVE",
"92 0 CURVE SMOOTH"
);
}
);
width = 687;
}
);
unicode = 06F5;
},
{
color = 4;
glyphname = "six-persian";
layers = (
{
hints = (
{
horizontal = 1;
place = "{0, 42}";
},
{
horizontal = 1;
place = "{384, -51}";
},
{
origin = "{0, 2}";
target = "{0, 7}";
},
{
horizontal = 1;
origin = "{0, 6}";
target = "{0, 6}";
}
);
layerId = "D5343206-61BD-433B-AB67-A494CBABC038";
paths = (
{
closed = 1;
nodes = (
"81 246 OFFCURVE",
"49 158 OFFCURVE",
"36 70 CURVE",
"161 70 LINE",
"174 158 OFFCURVE",
"207 246 OFFCURVE",
"260 334 CURVE",
"134 334 LINE"
);
},
{
closed = 1;
nodes = (
"181 278 LINE",
"372 278 LINE",
"372 352 LINE",
"183 381 LINE",
"183 507 LINE",
"203 512 OFFCURVE",
"245 514 OFFCURVE",
"288 514 CURVE SMOOTH",
"345 514 OFFCURVE",
"416 507 OFFCURVE",
"473 495 CURVE",
"491 612 LINE",
"423 630 OFFCURVE",
"344 640 OFFCURVE",
"270 640 CURVE SMOOTH",
"131 640 OFFCURVE",
"64 589 OFFCURVE",
"64 472 CURVE SMOOTH",
"64 397 OFFCURVE",
"88 345 OFFCURVE",
"135 317 CURVE",
"135 312 LINE"
);
}
);
width = 518;
}
);
unicode = 06F6;
},
{
color = 4;
glyphname = "seven-persian.urdu";
layers = (
{
layerId = "D5343206-61BD-433B-AB67-A494CBABC038";
paths = (
{
closed = 1;
nodes = (
"128 445 OFFCURVE",
"60 267 OFFCURVE",
"32 87 CURVE",
"32 0 LINE",
"463 0 LINE",
"452 130 LINE",
"171 130 LINE",
"201 295 OFFCURVE",
"267 460 OFFCURVE",
"370 625 CURVE",
"235 625 LINE"
);
}
);
width = 480;
}
);
leftMetricsKey = "=|seven";
rightMetricsKey = "=|seven";
},
{
color = 10;
glyphname = asterisk;
layers = (
{
layerId = "D5343206-61BD-433B-AB67-A494CBABC038";
paths = (
{
closed = 1;
nodes = (
"436 389 LINE",
"402 436 LINE",
"282 543 LINE",
"243 514 LINE",
"307 367 LINE",
"341 320 LINE"
);
},
{
closed = 1;
nodes = (
"218 367 LINE",
"282 514 LINE",
"243 543 LINE",
"123 436 LINE",
"89 389 LINE",
"185 320 LINE"
);
},
{
closed = 1;
nodes = (
"270 552 LINE",
"132 633 LINE",
"76 651 LINE",
"40 539 LINE",
"96 521 LINE",
"255 505 LINE"
);
},
{
closed = 1;
nodes = (
"287 529 LINE",
"322 685 LINE",
"322 743 LINE",
"204 743 LINE",
"204 685 LINE",
"239 529 LINE"
);
},
{
closed = 1;
nodes = (
"429 521 LINE",
"485 539 LINE",
"449 651 LINE",
"393 633 LINE",
"255 552 LINE",
"270 505 LINE"
);
}
);
width = 525;
}
);
leftKerningGroup = asterisk;
rightKerningGroup = asterisk;
unicode = 002A;
},
{
color = 10;
glyphname = backslash;
layers = (
{
layerId = "D5343206-61BD-433B-AB67-A494CBABC038";
paths = (
{
closed = 1;
nodes = (
"361 -15 LINE",
"370 -31 OFFCURVE",
"376 -40 OFFCURVE",
"404 -40 CURVE SMOOTH",
"441 -40 LINE",
"88 640 LINE SMOOTH",
"79 656 OFFCURVE",
"73 665 OFFCURVE",
"45 665 CURVE SMOOTH",
"8 665 LINE"
);
}
);
width = 449;
}
);
leftKerningGroup = backslash;
rightKerningGroup = backslash;
unicode = 005C;
},
{
color = 10;
glyphname = bullet;
layers = (
{
layerId = "D5343206-61BD-433B-AB67-A494CBABC038";
paths = (
{
closed = 1;
nodes = (
"57 217 OFFCURVE",
"76 189 OFFCURVE",
"160 189 CURVE SMOOTH",
"242 189 OFFCURVE",
"261 217 OFFCURVE",
"261 288 CURVE SMOOTH",
"261 359 OFFCURVE",
"242 389 OFFCURVE",
"160 389 CURVE SMOOTH",
"76 389 OFFCURVE",
"57 359 OFFCURVE",
"57 288 CURVE SMOOTH"
);
}
);
width = 318;
}
);
leftKerningGroup = bullet;
rightKerningGroup = bullet;
unicode = 2022;
},
{
color = 10;
glyphname = comma;
layers = (
{
layerId = "D5343206-61BD-433B-AB67-A494CBABC038";
paths = (
{
closed = 1;
nodes = (
"178 -22 LINE SMOOTH",
"200 25 OFFCURVE",
"206 41 OFFCURVE",
"207 77 CURVE SMOOTH",
"207 141 OFFCURVE",
"187 161 OFFCURVE",
"126 161 CURVE SMOOTH",
"62 161 OFFCURVE",
"42 141 OFFCURVE",
"42 77 CURVE SMOOTH",
"42 26 OFFCURVE",
"54 6 OFFCURVE",
"91 -2 CURVE",
"65 -105 LINE",
"128 -125 LINE"
);
}
);
width = 249;
}
);
leftKerningGroup = period;
rightKerningGroup = period;
unicode = 002C;
},
{
color = 10;
glyphname = exclam;
layers = (
{
components = (
{
name = period;
transform = "{0.948, 0, 0, 0.948, 17, 0}";
}
);
layerId = "D5343206-61BD-433B-AB67-A494CBABC038";
paths = (
{
closed = 1;
nodes = (
"179 210 LINE",
"213 623 LINE",
"213 635 OFFCURVE",
"207 645 OFFCURVE",
"183 645 CURVE SMOOTH",
"84 645 LINE SMOOTH",
"60 645 OFFCURVE",
"55 635 OFFCURVE",
"55 623 CURVE",
"89 210 LINE"
);
}
);
width = 269;
}
);
leftKerningGroup = exclam;
rightKerningGroup = exclam;
unicode = 0021;
},
{
color = 10;
glyphname = numbersign;
layers = (
{
layerId = "D5343206-61BD-433B-AB67-A494CBABC038";
paths = (
{
closed = 1;
nodes = (
"395 -40 LINE SMOOTH",
"423 -40 OFFCURVE",
"431 -32 OFFCURVE",
"438 -15 CURVE SMOOTH",
"707 665 LINE",
"642 665 LINE SMOOTH",
"614 665 OFFCURVE",
"606 657 OFFCURVE",
"599 640 CURVE SMOOTH",
"330 -40 LINE"
);
},
{
closed = 1;
nodes = (
"580 142 LINE SMOOTH",
"598 142 OFFCURVE",
"609 145 OFFCURVE",
"620 171 CURVE SMOOTH",
"643 228 LINE",
"90 228 LINE SMOOTH",
"71 228 OFFCURVE",
"59 224 OFFCURVE",
"49 199 CURVE SMOOTH",
"26 142 LINE"
);
},
{
closed = 1;
nodes = (
"129 -40 LINE SMOOTH",
"157 -40 OFFCURVE",
"165 -32 OFFCURVE",
"172 -15 CURVE SMOOTH",
"441 665 LINE",
"376 665 LINE SMOOTH",
"348 665 OFFCURVE",
"340 657 OFFCURVE",
"333 640 CURVE SMOOTH",
"64 -40 LINE"
);
},
{
closed = 1;
nodes = (
"682 395 LINE SMOOTH",
"700 395 OFFCURVE",
"711 398 OFFCURVE",
"722 424 CURVE SMOOTH",
"745 481 LINE",
"192 481 LINE SMOOTH",
"173 481 OFFCURVE",
"161 477 OFFCURVE",
"151 452 CURVE SMOOTH",
"128 395 LINE"
);
}
);
width = 769;
}
);
leftKerningGroup = numbersign;
rightKerningGroup = numbersign;
unicode = 0023;
},
{
color = 10;
glyphname = period;
layers = (
{
layerId = "D5343206-61BD-433B-AB67-A494CBABC038";
paths = (
{
closed = 1;
nodes = (
"42 17 OFFCURVE",
"57 -6 OFFCURVE",
"125 -6 CURVE SMOOTH",
"192 -6 OFFCURVE",
"207 17 OFFCURVE",
"207 77 CURVE SMOOTH",
"207 136 OFFCURVE",
"192 161 OFFCURVE",
"125 161 CURVE SMOOTH",
"57 161 OFFCURVE",
"42 136 OFFCURVE",
"42 77 CURVE SMOOTH"
);
}
);
width = 249;
}
);
leftKerningGroup = period;
rightKerningGroup = period;
unicode = 002E;
},
{
color = 10;
glyphname = question;
layers = (
{
components = (
{
name = period;
transform = "{0.948, 0, 0, 0.948, 65, 0}";
}
);
layerId = "D5343206-61BD-433B-AB67-A494CBABC038";
paths = (
{
closed = 1;
nodes = (
"228 210 LINE",
"233 320 LINE",
"400 373 OFFCURVE",
"433 402 OFFCURVE",
"433 495 CURVE SMOOTH",
"433 601 OFFCURVE",
"375 640 OFFCURVE",
"220 640 CURVE SMOOTH",
"163 640 OFFCURVE",
"100 630 OFFCURVE",
"35 611 CURVE",
"54 515 LINE",
"104 526 OFFCURVE",
"162 535 OFFCURVE",
"206 535 CURVE SMOOTH",
"234 535 OFFCURVE",
"260 533 OFFCURVE",
"284 529 CURVE",
"284 442 LINE",
"190 412 LINE SMOOTH",
"139 395 OFFCURVE",
"125 386 OFFCURVE",
"125 364 CURVE SMOOTH",
"138 210 LINE"
);
}
);
width = 462;
}
);
leftKerningGroup = question;
rightKerningGroup = question;
unicode = 003F;
},
{
color = 10;
glyphname = quotedbl;
layers = (
{
layerId = "D5343206-61BD-433B-AB67-A494CBABC038";
paths = (
{
closed = 1;
nodes = (
"363 366 LINE",
"404 553 LINE",
"404 623 LINE SMOOTH",
"404 638 OFFCURVE",
"396 650 OFFCURVE",
"367 650 CURVE SMOOTH",
"299 650 LINE SMOOTH",
"270 650 OFFCURVE",
"262 638 OFFCURVE",
"262 623 CURVE SMOOTH",
"262 553 LINE",
"303 366 LINE"
);
},
{
closed = 1;
nodes = (
"155 366 LINE",
"196 553 LINE",
"196 623 LINE SMOOTH",
"196 638 OFFCURVE",
"188 650 OFFCURVE",
"159 650 CURVE SMOOTH",
"91 650 LINE SMOOTH",
"62 650 OFFCURVE",
"54 638 OFFCURVE",
"54 623 CURVE SMOOTH",
"54 553 LINE",
"95 366 LINE"
);
}
);
width = 458;
}
);
leftKerningGroup = quotedbl;
rightKerningGroup = quotedbl;
unicode = 0022;
},
{
color = 10;
glyphname = quotesingle;
layers = (
{
layerId = "D5343206-61BD-433B-AB67-A494CBABC038";
paths = (
{
closed = 1;
nodes = (
"155 366 LINE",
"196 553 LINE",
"196 623 LINE SMOOTH",
"196 638 OFFCURVE",
"188 650 OFFCURVE",
"159 650 CURVE SMOOTH",
"91 650 LINE SMOOTH",
"62 650 OFFCURVE",
"54 638 OFFCURVE",
"54 623 CURVE SMOOTH",
"54 553 LINE",
"95 366 LINE"
);
}
);
width = 250;
}
);
leftKerningGroup = quotedbl;
rightKerningGroup = quotedbl;
unicode = 0027;
},
{
color = 10;
glyphname = slash;
layers = (
{
anchors = (
{
name = _center;
position = "{202, 313}";
}
);
layerId = "D5343206-61BD-433B-AB67-A494CBABC038";
paths = (
{
closed = 1;
nodes = (
"404 665 LINE",
"365 665 LINE SMOOTH",
"342 665 OFFCURVE",
"332 660 OFFCURVE",
"322 640 CURVE SMOOTH",
"0 -40 LINE",
"39 -40 LINE SMOOTH",
"62 -40 OFFCURVE",
"72 -35 OFFCURVE",
"82 -15 CURVE SMOOTH"
);
}
);
width = 404;
}
);
leftKerningGroup = slash;
rightKerningGroup = slash;
unicode = 002F;
},
{
color = 10;
glyphname = underscore;
layers = (
{
layerId = "D5343206-61BD-433B-AB67-A494CBABC038";
paths = (
{
closed = 1;
nodes = (
"25 -101 LINE",
"447 -101 LINE SMOOTH",
"487 -101 OFFCURVE",
"510 -98 OFFCURVE",
"510 -59 CURVE SMOOTH",
"510 9 LINE",
"88 9 LINE SMOOTH",
"48 9 OFFCURVE",
"25 6 OFFCURVE",
"25 -33 CURVE SMOOTH"
);
}
);
width = 535;
}
);
leftKerningGroup = underscore;
rightKerningGroup = underscore;
unicode = 005F;
},
{
color = 10;
glyphname = braceleft;
layers = (
{
layerId = "D5343206-61BD-433B-AB67-A494CBABC038";
paths = (
{
closed = 1;
nodes = (
"225 175 LINE SMOOTH",
"231 236 OFFCURVE",
"211 278 OFFCURVE",
"169 305 CURVE",
"169 317 LINE",
"211 344 OFFCURVE",
"231 386 OFFCURVE",
"225 447 CURVE SMOOTH",
"208 642 LINE",
"291 649 LINE",
"284 754 LINE",
"157 754 OFFCURVE",
"76 749 OFFCURVE",
"82 643 CURVE SMOOTH",
"97 374 LINE",
"32 357 LINE",
"32 265 LINE",
"97 248 LINE",
"82 -18 LINE SMOOTH",
"76 -124 OFFCURVE",
"162 -129 OFFCURVE",
"284 -129 CURVE",
"291 -24 LINE",
"208 -17 LINE"
);
}
);
width = 333;
}
);
leftKerningGroup = braceleft;
rightKerningGroup = braceleft;
unicode = 007B;
},
{
color = 10;
glyphname = bracketleft;
layers = (
{
layerId = "D5343206-61BD-433B-AB67-A494CBABC038";
paths = (
{
closed = 1;
nodes = (
"62 -24 LINE SMOOTH",
"62 -102 OFFCURVE",
"114 -129 OFFCURVE",
"265 -129 CURVE",
"273 -24 LINE",
"190 -16 LINE",
"190 641 LINE",
"273 649 LINE",
"265 754 LINE",
"114 754 OFFCURVE",
"62 727 OFFCURVE",
"62 649 CURVE SMOOTH"
);
}
);
width = 303;
}
);
leftKerningGroup = bracketleft;
rightKerningGroup = bracketleft;
unicode = 005B;
},
{
color = 10;
glyphname = parenleft;
layers = (
{
layerId = "D5343206-61BD-433B-AB67-A494CBABC038";
paths = (
{
closed = 1;
nodes = (
"275 -20 LINE",
"205 29 OFFCURVE",
"164 114 OFFCURVE",
"164 312 CURVE SMOOTH",
"164 510 OFFCURVE",
"205 595 OFFCURVE",
"275 645 CURVE",
"259 752 LINE",
"121 705 OFFCURVE",
"32 571 OFFCURVE",
"32 312 CURVE SMOOTH",
"32 54 OFFCURVE",
"121 -80 OFFCURVE",
"259 -127 CURVE"
);
}
);
width = 317;
}
);
leftKerningGroup = parenleft;
rightKerningGroup = parenleft;
unicode = 0028;
},
{
color = 10;
glyphname = emdash;
layers = (
{
layerId = "D5343206-61BD-433B-AB67-A494CBABC038";
paths = (
{
closed = 1;
nodes = (
"30 220 LINE",
"730 220 LINE SMOOTH",
"767 220 OFFCURVE",
"788 222 OFFCURVE",
"788 257 CURVE SMOOTH",
"788 330 LINE",
"88 330 LINE SMOOTH",
"51 330 OFFCURVE",
"30 328 OFFCURVE",
"30 293 CURVE SMOOTH"
);
}
);
width = 818;
}
);
leftKerningGroup = hyphen;
rightKerningGroup = hyphen;
unicode = 2014;
},
{
color = 10;
glyphname = endash;
layers = (
{
layerId = "D5343206-61BD-433B-AB67-A494CBABC038";
paths = (
{
closed = 1;
nodes = (
"30 220 LINE",
"471 220 LINE SMOOTH",
"508 220 OFFCURVE",
"529 222 OFFCURVE",
"529 257 CURVE SMOOTH",
"529 330 LINE",
"88 330 LINE SMOOTH",
"51 330 OFFCURVE",
"30 328 OFFCURVE",
"30 293 CURVE SMOOTH"
);
}
);
width = 559;
}
);
leftKerningGroup = hyphen;
rightKerningGroup = hyphen;
unicode = 2013;
},
{
color = 10;
glyphname = hyphen;
layers = (
{
layerId = "D5343206-61BD-433B-AB67-A494CBABC038";
paths = (
{
closed = 1;
nodes = (
"30 220 LINE",
"262 220 LINE SMOOTH",
"299 220 OFFCURVE",
"320 222 OFFCURVE",
"320 257 CURVE SMOOTH",
"320 330 LINE",
"88 330 LINE SMOOTH",
"51 330 OFFCURVE",
"30 328 OFFCURVE",
"30 293 CURVE SMOOTH"
);
}
);
width = 350;
}
);
leftKerningGroup = hyphen;
rightKerningGroup = hyphen;
unicode = 002D;
},
{
color = 10;
glyphname = guillemotleft;
layers = (
{
layerId = "D5343206-61BD-433B-AB67-A494CBABC038";
paths = (
{
closed = 1;
nodes = (
"465 80 LINE",
"367 250 LINE",
"465 420 LINE",
"411 456 LINE",
"243 294 LINE",
"243 205 LINE",
"411 44 LINE"
);
},
{
closed = 1;
nodes = (
"247 80 LINE",
"149 250 LINE",
"247 420 LINE",
"193 456 LINE",
"25 294 LINE",
"25 205 LINE",
"193 44 LINE"
);
}
);
width = 489;
}
);
leftKerningGroup = guillemotleft;
rightKerningGroup = guillemotleft;
unicode = 00AB;
},
{
color = 10;
glyphname = guilsinglleft;
layers = (
{
layerId = "D5343206-61BD-433B-AB67-A494CBABC038";
paths = (
{
closed = 1;
nodes = (
"247 80 LINE",
"149 250 LINE",
"247 420 LINE",
"193 456 LINE",
"25 294 LINE",
"25 205 LINE",
"193 44 LINE"
);
}
);
width = 272;
}
);
leftKerningGroup = guillemotleft;
rightKerningGroup = guillemotleft;
unicode = 2039;
},
{
color = 4;
glyphname = "parenleft-ar";
layers = (
{
layerId = "D5343206-61BD-433B-AB67-A494CBABC038";
paths = (
{
closed = 1;
nodes = (
"157 236 LINE",
"349 551 LINE",
"222 583 LINE",
"26 261 LINE",
"26 240 LINE",
"222 -82 LINE",
"349 -50 LINE",
"157 265 LINE"
);
}
);
width = 401;
}
);
unicode = FD3E;
},
{
color = 10;
glyphname = Euro;
layers = (
{
components = (
{
name = C;
transform = "{1, 0, 0, 1, 30, 0}";
}
);
layerId = "D5343206-61BD-433B-AB67-A494CBABC038";
paths = (
{
closed = 1;
nodes = (
"404 215 LINE",
"410 281 LINE",
"22 281 LINE",
"15 215 LINE"
);
},
{
closed = 1;
nodes = (
"415 345 LINE",
"422 412 LINE",
"34 412 LINE",
"27 345 LINE"
);
}
);
width = 527;
}
);
leftKerningGroup = Euro;
rightKerningGroup = Euro;
rightMetricsKey = C;
unicode = 20AC;
},
{
color = 10;
glyphname = cent;
layers = (
{
components = (
{
name = c;
transform = "{1, 0, 0, 1, 0, 65}";
}
);
layerId = "D5343206-61BD-433B-AB67-A494CBABC038";
paths = (
{
closed = 1;
nodes = (
"188 86 LINE",
"170 -130 LINE",
"256 -130 LINE",
"275 86 LINE"
);
},
{
closed = 1;
nodes = (
"316 551 LINE",
"334 754 LINE",
"248 754 LINE",
"230 551 LINE"
);
}
);
width = 451;
}
);
leftKerningGroup = o;
leftMetricsKey = c;
rightKerningGroup = c;
rightMetricsKey = c;
unicode = 00A2;
},
